<?xml version="1.0" encoding="utf-8"?>
<!-- Generator: Adobe Illustrator 24.3.0, SVG Export Plug-In . SVG Version: 6.00 Build 0)  -->
<svg version="1.1" id="Calque_1" xmlns="http://www.w3.org/2000/svg" xmlns:xlink="http://www.w3.org/1999/xlink" x="0px" y="0px"
	 viewBox="0 0 581.7 127" style="enable-background:new 0 0 581.7 127;" xml:space="preserve">
<style type="text/css">
	.st0{fill:#000000;}
	.st1{fill:#EA2227;}
	.st2{fill:#C5C9CA;}
	.st3{fill:#14978F;}
	.st4{fill:#68BDB9;}
</style>
<g>
	<g>
		<g>
			<g>
				<path class="st0" d="M148.6,56c-3,0-4.6-3.1-4.6-7.5c0-4.3,1.3-7.4,4.7-7.4c1.4,0,2.2,0.5,2.7,0.9l0.7-1.8
					c-0.6-0.5-1.8-1.3-4.1-1.3c-4.1,0-7.1,3.5-7.1,9.6c0,6,3,9.7,7,9.7c2.1,0,3.4-0.6,4.2-1.3l-0.8-1.9
					C150.8,55.5,149.9,56,148.6,56z"/>
			</g>
			<g>
				<path class="st0" d="M167.7,39c-2.5,0-4.6,0.8-5.7,1.4l0.7,1.8c1.1-0.5,2.7-1.2,4.5-1.2c2.3,0,4.1,0.8,4.1,3.7v1.1
					c-5.7,0.6-10.3,2-10.3,6.9c0,3.4,2.2,5.5,7.1,5.5c2.6,0,4.7-0.5,6.1-1.3V45C174.2,40.5,171.2,39,167.7,39z M171.3,55.8
					c-0.7,0.4-1.9,0.6-3,0.6c-2.7,0-4.4-1.1-4.4-3.8c0-3.7,2.8-4.7,7.4-5.3V55.8z"/>
			</g>
			<g>
				<path class="st0" d="M185.1,40.3v17.5h3V41.6c1-0.7,2.7-0.8,4.2-0.3l0.7-2.3C188.7,38.9,187,39.4,185.1,40.3z"/>
			</g>
			<g>
				<path class="st0" d="M202.2,40.3v17.5h3V41.6c1-0.7,2.7-0.8,4.2-0.3l0.7-2.3C205.8,38.9,204.1,39.4,202.2,40.3z"/>
			</g>
			<g>
				<path class="st0" d="M219.6,39.3v18.5h3V39.3H219.6z M221.1,32.4c-1,0-1.8,0.8-1.8,1.7c0,0.9,0.8,1.7,1.8,1.7
					c1,0,1.8-0.8,1.8-1.7C222.9,33.1,222.1,32.4,221.1,32.4z"/>
			</g>
			<g>
				<path class="st0" d="M239.5,32.6c-1.2-0.8-2.9-0.8-3.2,0l3.9,4.7h1.7L239.5,32.6z M241.5,56c-3.3,0-5.3-2-5.6-6.2l11.6-1.7
					c0.1-6.2-2.6-9.1-7-9.1c-4.4,0-7.5,3.3-7.5,9.6c0,6.6,3.4,9.7,8.3,9.7c2.5,0,4.5-0.6,5.6-1.3l-0.8-2
					C245.1,55.5,243.6,56,241.5,56z M240.4,40.9c2.6,0,4.3,1.7,4.3,5.9l-8.9,1.4C235.7,43.1,237.7,40.9,240.4,40.9z"/>
			</g>
			<g>
				<path class="st0" d="M257.7,40.3v17.5h3V41.6c1-0.7,2.7-0.8,4.2-0.3l0.7-2.3C261.3,38.9,259.5,39.4,257.7,40.3z"/>
			</g>
			<g>
				<path class="st0" d="M282.6,56c-3.3,0-5.3-2-5.6-6.2l11.6-1.7c0.1-6.2-2.6-9.1-7-9.1c-4.4,0-7.5,3.3-7.5,9.6
					c0,6.6,3.4,9.7,8.3,9.7c2.5,0,4.5-0.6,5.6-1.3l-0.8-2C286.2,55.5,284.7,56,282.6,56z M281.5,40.9c2.6,0,4.3,1.7,4.3,5.9
					l-8.9,1.4C276.8,43.1,278.8,40.9,281.5,40.9z"/>
			</g>
			<g>
				<path class="st0" d="M304.2,47.3c-1.8-0.7-3.1-1.6-3.1-3.3c0-1.6,1.1-2.9,3.1-2.9c1.5,0,2.5,0.6,3.1,1.1l0.8-1.8
					c-1-0.7-2.4-1.3-4.3-1.3c-3.4,0-5.6,2.3-5.6,5.1c0,1.9,0.7,3.9,4.4,5.2c2,0.8,3,1.6,3,3.5c0,1.8-1.4,3.2-3.4,3.2
					c-1.7,0-2.9-0.6-3.6-1.1l-0.8,2c1,0.8,2.7,1.3,4.7,1.3c3.8,0,6.2-2.6,6.2-5.5C308.7,50.6,307.8,48.6,304.2,47.3z"/>
			</g>
			<g>
				<path class="st0" d="M346.8,41c-2.5,1.3-5.8,2.6-8.7,2.6c-2.4,0-4.4-1.4-4.4-3.7c0-2,1.2-3.3,3.9-3.3c1.4,0,2.5,0.5,3.3,0.9
					l0.8-1.7c-1-0.6-2.7-1.2-4.7-1.2c-3.8,0-6.2,2.2-6.2,5.2c0,2.5,1.7,4.3,4.5,5v0.1c-3.6,1.1-6,3.4-6,6.8c0,4.1,3.3,6.5,8.5,6.5
					c2.8,0,5-0.5,6.1-1.3V44.2c1.2-0.3,2.8-0.9,3.7-1.4L346.8,41z M341.1,55.8c-0.8,0.4-1.7,0.5-3.1,0.5c-3.6,0-5.4-1.9-5.4-4.8
					c0-3.7,2.6-5.3,8.6-6.6V55.8z"/>
			</g>
		</g>
		<g>
			<g>
				<path class="st0" d="M148.4,77.2v-1.7h-2.8v-4.5l-2.6,0.8v3.7h-1.8v1.7h1.8v10.5c0,2,1.1,4.1,4,4.1c0.7,0,1.1-0.2,1.4-0.3v-1.7
					c-0.3,0.1-0.5,0.1-0.8,0.1c-1.5,0-2-1.1-2-2.3V77.2H148.4z"/>
			</g>
			<g>
				<path class="st0" d="M150.8,76.5v15.2h2.6v-14c0.9-0.6,2.4-0.7,3.7-0.3l0.6-2C153.9,75.3,152.3,75.7,150.8,76.5z"/>
			</g>
			<g>
				<path class="st0" d="M164.4,75.3c-2.2,0-4,0.7-4.9,1.2l0.6,1.6c0.9-0.4,2.3-1,3.8-1c2.1,0,3.6,0.7,3.6,3.2v1c-5,0.5-9,1.8-9,6
					c0,2.9,1.9,4.7,6.1,4.7c2.2,0,4.1-0.4,5.3-1.1V80.5C170,76.6,167.4,75.3,164.4,75.3z M167.6,89.9c-0.7,0.4-1.7,0.5-2.7,0.5
					c-2.4,0-3.8-0.9-3.8-3.3c0-3.2,2.4-4.1,6.5-4.6V89.9z"/>
			</g>
			<g>
				<path class="st0" d="M179.2,75.3c-2.5,0-4.4,0.5-5.9,1.2v15.2h2.6V77.6c0.8-0.4,1.6-0.6,3-0.6c2.7,0,3.4,1.6,3.4,3.1v11.5h2.6
					V80.1C185,77.8,183.7,75.3,179.2,75.3z"/>
			</g>
			<g>
				<path class="st0" d="M192.9,82.5c-1.6-0.6-2.7-1.3-2.7-2.9c0-1.4,0.9-2.5,2.7-2.5c1.3,0,2.2,0.6,2.7,0.9l0.7-1.6
					c-0.9-0.6-2.1-1.1-3.8-1.1c-2.9,0-4.8,2-4.8,4.4c0,1.7,0.6,3.3,3.8,4.5c1.8,0.7,2.6,1.4,2.6,3.1c0,1.6-1.2,2.8-3,2.8
					c-1.4,0-2.5-0.5-3.1-1l-0.7,1.7c0.9,0.7,2.4,1.1,4.1,1.1c3.3,0,5.4-2.2,5.4-4.7C196.8,85.3,196,83.7,192.9,82.5z"/>
			</g>
			<g>
				<path class="st0" d="M204.4,75.3c-2.3,0-3.9,0.5-5,1.2V98h2.6v-6.5c0.6,0.2,1.6,0.4,2.5,0.4c4.2,0,7-3.2,7-8.5
					C211.4,78.5,208.9,75.3,204.4,75.3z M203.9,90.3c-0.8,0-1.5-0.2-2-0.4V77.3c0.6-0.3,1.3-0.5,2.3-0.5c3.4,0,4.6,2.5,4.6,6.6
					C208.8,87.7,207.2,90.3,203.9,90.3z"/>
			</g>
			<g>
				<path class="st0" d="M219.7,75.3c-4.3,0-6.2,3.5-6.2,8.3c0,4.7,1.9,8.3,6.3,8.3c4.3,0,6.2-3.6,6.2-8.3
					C226,78.8,224.1,75.3,219.7,75.3z M219.8,90.1c-3,0-3.6-3.2-3.6-6.5c0-3.2,0.6-6.6,3.6-6.6c3.1,0,3.6,3.4,3.6,6.6
					C223.4,86.8,222.8,90.1,219.8,90.1z"/>
			</g>
			<g>
				<path class="st0" d="M228.7,76.5v15.2h2.6v-14c0.9-0.6,2.3-0.7,3.7-0.3l0.6-2C231.8,75.3,230.3,75.7,228.7,76.5z"/>
			</g>
			<g>
				<path class="st0" d="M243.6,77.2v-1.7h-2.8v-4.5l-2.6,0.8v3.7h-1.9v1.7h1.9v10.5c0,2,1.1,4.1,4,4.1c0.7,0,1.1-0.2,1.4-0.3v-1.7
					c-0.3,0.1-0.5,0.1-0.8,0.1c-1.5,0-2-1.1-2-2.3V77.2H243.6z"/>
			</g>
			<g>
				<path class="st0" d="M269,75.3c-2.4,0-4.1,0.8-5.2,1.8c-0.9-1-2.4-1.8-5-1.8c-2.7,0-4.4,0.4-6,1.2v15.2h3.6V78
					c0.7-0.3,1.3-0.4,2.4-0.4c2,0,3,1,3,2.5v11.5h3.6V78.7c0.7-0.8,1.6-1.1,2.7-1.1c1.9,0,2.7,1.2,2.7,2.6v11.4h3.6V80.2
					C274.5,77.7,272.8,75.3,269,75.3z"/>
				<path class="st0" d="M269,75.1c-2.1,0-3.8,0.6-5.1,1.7c-1.1-1.2-2.8-1.7-5-1.7c-2.5,0-4.4,0.3-6.1,1.2l-0.1,0.1v15.5h4V78.2
					c0.6-0.3,1.2-0.4,2.2-0.4c1.8,0,2.8,0.9,2.8,2.4v11.7h4v-13c0.7-0.7,1.5-1,2.5-1c2.2,0,2.5,1.7,2.5,2.4v11.6h4V80.2
					C274.7,77.9,273.2,75.1,269,75.1z M274.3,91.5H271V80.3c0-1.8-1.1-2.8-2.9-2.8c-1.1,0-2,0.4-2.8,1.2l-0.1,0v12.8H262V80.2
					c0-1.7-1.2-2.7-3.2-2.7c-1.1,0-1.8,0.2-2.4,0.5l-0.1,0v13.6H253V76.6c1.7-0.8,3.3-1.1,5.8-1.1c2.2,0,3.8,0.6,4.9,1.7l0.1,0.1
					l0.1-0.1c1.2-1.2,2.9-1.7,5-1.7c3.9,0,5.3,2.5,5.3,4.7V91.5z"/>
			</g>
			<g>
				<path class="st0" d="M284.3,69.7l-2.1,4.2h2l3.6-4.1C287.5,69,285.5,69,284.3,69.7z M284.7,89.4c-2.6,0-4.1-1.5-4.4-4.5l9.8-1.4
					c0.2-5.4-2.1-8.2-6.4-8.2c-4.2,0-6.8,3-6.8,8.3c0,5.4,2.9,8.4,7.4,8.4c2.4,0,4.2-0.5,5.3-1.1l-0.9-2.3
					C287.8,89,286.5,89.4,284.7,89.4z M283.6,77.5c2,0,3.1,1.3,3.1,4.5l-6.6,1C280,79.3,281.5,77.5,283.6,77.5z"/>
				<path class="st0" d="M288,69.7c-0.1-0.3-0.3-0.5-0.7-0.6c-0.9-0.3-2.2-0.1-3.1,0.4l0,0l-2.2,4.5h2.4L288,69.7L288,69.7z
					 M282.5,73.7l1.9-3.9c0.8-0.5,2-0.6,2.7-0.4c0.1,0,0.3,0.1,0.4,0.3l-3.4,3.9H282.5z M283.6,77.3c-1,0-1.7,0.3-2.3,0.9
					c-0.9,1-1.4,2.6-1.3,4.8v0.2l7-1.1v-0.2C286.9,78.9,285.8,77.3,283.6,77.3z M280.3,82.9c0-2,0.4-3.5,1.2-4.3
					c0.6-0.5,1.2-0.8,2.1-0.8c2,0,2.9,1.4,2.9,4.2L280.3,82.9z M283.6,77.3c-1,0-1.7,0.3-2.3,0.9c-0.9,1-1.4,2.6-1.3,4.8v0.2l7-1.1
					v-0.2C286.9,78.9,285.8,77.3,283.6,77.3z M280.3,82.9c0-2,0.4-3.5,1.2-4.3c0.6-0.5,1.2-0.8,2.1-0.8c2,0,2.9,1.4,2.9,4.2
					L280.3,82.9z M283.6,77.3c-1,0-1.7,0.3-2.3,0.9c-0.9,1-1.4,2.6-1.3,4.8v0.2l7-1.1v-0.2C286.9,78.9,285.8,77.3,283.6,77.3z
					 M280.3,82.9c0-2,0.4-3.5,1.2-4.3c0.6-0.5,1.2-0.8,2.1-0.8c2,0,2.9,1.4,2.9,4.2L280.3,82.9z M283.6,77.3c-1,0-1.7,0.3-2.3,0.9
					c-0.9,1-1.4,2.6-1.3,4.8v0.2l7-1.1v-0.2C286.9,78.9,285.8,77.3,283.6,77.3z M280.3,82.9c0-2,0.4-3.5,1.2-4.3
					c0.6-0.5,1.2-0.8,2.1-0.8c2,0,2.9,1.4,2.9,4.2L280.3,82.9z M283.6,77.3c-1,0-1.7,0.3-2.3,0.9c-0.9,1-1.4,2.6-1.3,4.8v0.2l7-1.1
					v-0.2C286.9,78.9,285.8,77.3,283.6,77.3z M280.3,82.9c0-2,0.4-3.5,1.2-4.3c0.6-0.5,1.2-0.8,2.1-0.8c2,0,2.9,1.4,2.9,4.2
					L280.3,82.9z M283.6,77.3c-1,0-1.7,0.3-2.3,0.9c-0.9,1-1.4,2.6-1.3,4.8v0.2l7-1.1v-0.2C286.9,78.9,285.8,77.3,283.6,77.3z
					 M280.3,82.9c0-2,0.4-3.5,1.2-4.3c0.6-0.5,1.2-0.8,2.1-0.8c2,0,2.9,1.4,2.9,4.2L280.3,82.9z M290.3,83.5c0.1-3-0.6-5.3-2-6.7
					c-1.1-1.2-2.7-1.7-4.7-1.7c-4.4,0-7,3.1-7,8.4c0,5.4,2.8,8.6,7.6,8.6c2.7,0,4.4-0.6,5.4-1.2l0.1-0.1l-1-2.6l-0.2,0.1
					c-0.8,0.4-2.1,0.9-4,0.9c-2.5,0-3.8-1.4-4.2-4.1l9.8-1.4V83.5z M280.1,84.8l0,0.2c0.3,3.1,1.9,4.6,4.6,4.6
					c1.8,0,3.1-0.4,3.9-0.8l0.7,1.9c-0.9,0.5-2.5,1.1-5.1,1.1c-4.6,0-7.2-3-7.2-8.2c0-5.1,2.5-8.1,6.6-8.1c1.9,0,3.3,0.6,4.4,1.6
					c1.3,1.3,2,3.4,1.9,6.2L280.1,84.8z M283.6,77.3c-1,0-1.7,0.3-2.3,0.9c-0.9,1-1.4,2.6-1.3,4.8v0.2l7-1.1v-0.2
					C286.9,78.9,285.8,77.3,283.6,77.3z M280.3,82.9c0-2,0.4-3.5,1.2-4.3c0.6-0.5,1.2-0.8,2.1-0.8c2,0,2.9,1.4,2.9,4.2L280.3,82.9z
					 M283.6,77.3c-1,0-1.7,0.3-2.3,0.9c-0.9,1-1.4,2.6-1.3,4.8v0.2l7-1.1v-0.2C286.9,78.9,285.8,77.3,283.6,77.3z M280.3,82.9
					c0-2,0.4-3.5,1.2-4.3c0.6-0.5,1.2-0.8,2.1-0.8c2,0,2.9,1.4,2.9,4.2L280.3,82.9z M283.6,77.3c-1,0-1.7,0.3-2.3,0.9
					c-0.9,1-1.4,2.6-1.3,4.8v0.2l7-1.1v-0.2C286.9,78.9,285.8,77.3,283.6,77.3z M280.3,82.9c0-2,0.4-3.5,1.2-4.3
					c0.6-0.5,1.2-0.8,2.1-0.8c2,0,2.9,1.4,2.9,4.2L280.3,82.9z M283.6,77.3c-1,0-1.7,0.3-2.3,0.9c-0.9,1-1.4,2.6-1.3,4.8v0.2l7-1.1
					v-0.2C286.9,78.9,285.8,77.3,283.6,77.3z M280.3,82.9c0-2,0.4-3.5,1.2-4.3c0.6-0.5,1.2-0.8,2.1-0.8c2,0,2.9,1.4,2.9,4.2
					L280.3,82.9z M283.6,77.3c-1,0-1.7,0.3-2.3,0.9c-0.9,1-1.4,2.6-1.3,4.8v0.2l7-1.1v-0.2C286.9,78.9,285.8,77.3,283.6,77.3z
					 M280.3,82.9c0-2,0.4-3.5,1.2-4.3c0.6-0.5,1.2-0.8,2.1-0.8c2,0,2.9,1.4,2.9,4.2L280.3,82.9z"/>
			</g>
			<g>
				<path class="st0" d="M298.7,75.3c-2.7,0-4.8,0.5-6.3,1.2v15.2h3.6V78c0.7-0.3,1.3-0.4,2.5-0.4c2.3,0,2.9,1.4,2.9,2.7v11.3h3.6
					V80.2C305.1,77.6,303.5,75.3,298.7,75.3z"/>
				<path class="st0" d="M298.7,75.1c-2.5,0-4.7,0.4-6.3,1.2l-0.1,0.1v15.5h4V78.2c0.7-0.3,1.3-0.4,2.3-0.4c2.2,0,2.7,1.4,2.7,2.5
					v11.5h4V80.2C305.3,78.3,304.5,75.1,298.7,75.1z M304.9,91.5h-3.2V80.3c0-1.1-0.4-2.9-3.1-2.9c-1.2,0-1.8,0.2-2.6,0.5l-0.1,0
					v13.6h-3.3V76.6c1.6-0.7,3.6-1.1,6.1-1.1c4,0,6.2,1.7,6.2,4.7V91.5z"/>
			</g>
			<g>
				<path class="st0" d="M313.7,75.3c-2.5,0-4.5,0.7-5.5,1.2l0.8,2.1c1-0.5,2.5-1,4-1c1.9,0,3.2,0.6,3.2,2.6v0.9
					c-4.9,0.5-9,1.7-9,5.9c0,3.1,2.2,4.9,6.5,4.9c2.5,0,4.5-0.5,5.8-1.2v-9.9C319.6,76.7,317,75.3,313.7,75.3z M316.2,82.9v6.6
					c-0.5,0.3-1.3,0.4-2.2,0.4c-2.1,0-3.3-0.9-3.3-3C310.7,84,312.8,83.3,316.2,82.9z"/>
				<path class="st0" d="M316.2,82.7c-3.6,0.4-5.7,1.3-5.7,4.3c0,2.1,1.2,3.2,3.5,3.2c0.9,0,1.7-0.2,2.3-0.5l0.1-0.1v-6.9
					L316.2,82.7z M316,89.4c-0.5,0.2-1.3,0.4-2,0.4c-2.1,0-3.2-0.9-3.2-2.8c0-2.7,1.8-3.4,5.2-3.9V89.4z M316.2,82.7
					c-3.6,0.4-5.7,1.3-5.7,4.3c0,2.1,1.2,3.2,3.5,3.2c0.9,0,1.7-0.2,2.3-0.5l0.1-0.1v-6.9L316.2,82.7z M316,89.4
					c-0.5,0.2-1.3,0.4-2,0.4c-2.1,0-3.2-0.9-3.2-2.8c0-2.7,1.8-3.4,5.2-3.9V89.4z M316.2,82.7c-3.6,0.4-5.7,1.3-5.7,4.3
					c0,2.1,1.2,3.2,3.5,3.2c0.9,0,1.7-0.2,2.3-0.5l0.1-0.1v-6.9L316.2,82.7z M316,89.4c-0.5,0.2-1.3,0.4-2,0.4
					c-2.1,0-3.2-0.9-3.2-2.8c0-2.7,1.8-3.4,5.2-3.9V89.4z M316.2,82.7c-3.6,0.4-5.7,1.3-5.7,4.3c0,2.1,1.2,3.2,3.5,3.2
					c0.9,0,1.7-0.2,2.3-0.5l0.1-0.1v-6.9L316.2,82.7z M316,89.4c-0.5,0.2-1.3,0.4-2,0.4c-2.1,0-3.2-0.9-3.2-2.8
					c0-2.7,1.8-3.4,5.2-3.9V89.4z M316.2,82.7c-3.6,0.4-5.7,1.3-5.7,4.3c0,2.1,1.2,3.2,3.5,3.2c0.9,0,1.7-0.2,2.3-0.5l0.1-0.1v-6.9
					L316.2,82.7z M316,89.4c-0.5,0.2-1.3,0.4-2,0.4c-2.1,0-3.2-0.9-3.2-2.8c0-2.7,1.8-3.4,5.2-3.9V89.4z M316.2,82.7
					c-3.6,0.4-5.7,1.3-5.7,4.3c0,2.1,1.2,3.2,3.5,3.2c0.9,0,1.7-0.2,2.3-0.5l0.1-0.1v-6.9L316.2,82.7z M316,89.4
					c-0.5,0.2-1.3,0.4-2,0.4c-2.1,0-3.2-0.9-3.2-2.8c0-2.7,1.8-3.4,5.2-3.9V89.4z M313.7,75.1c-2.6,0-4.6,0.8-5.6,1.2l-0.2,0.1
					l1,2.4l0.2-0.1c0.6-0.3,2.2-1,3.9-1c2.1,0,3,0.7,3,2.5V81c-4.4,0.4-8.9,1.5-8.9,6.1c0,3.2,2.4,5.1,6.7,5.1
					c2.4,0,4.5-0.4,5.9-1.2l0.1-0.1v-10C319.8,77.1,317.7,75.1,313.7,75.1z M319.4,90.7c-1.4,0.7-3.4,1.1-5.6,1.1
					c-4.1,0-6.3-1.7-6.3-4.7c0-4.3,4.4-5.3,8.8-5.8h0.2v-1c0-2.5-1.9-2.8-3.4-2.8c-1.7,0-3.2,0.6-3.9,0.9l-0.7-1.8
					c1-0.5,2.8-1.1,5.3-1.1c3.8,0,5.7,1.8,5.7,5.4V90.7z M310.5,86.9c0,2.1,1.2,3.2,3.5,3.2c0.9,0,1.7-0.2,2.3-0.5l0.1-0.1v-6.9
					l-0.2,0C312.6,83.1,310.5,84,310.5,86.9z M316,89.4c-0.5,0.2-1.3,0.4-2,0.4c-2.1,0-3.2-0.9-3.2-2.8c0-2.7,1.8-3.4,5.2-3.9V89.4z
					 M316.2,82.7c-3.6,0.4-5.7,1.3-5.7,4.3c0,2.1,1.2,3.2,3.5,3.2c0.9,0,1.7-0.2,2.3-0.5l0.1-0.1v-6.9L316.2,82.7z M316,89.4
					c-0.5,0.2-1.3,0.4-2,0.4c-2.1,0-3.2-0.9-3.2-2.8c0-2.7,1.8-3.4,5.2-3.9V89.4z M316.2,82.7c-3.6,0.4-5.7,1.3-5.7,4.3
					c0,2.1,1.2,3.2,3.5,3.2c0.9,0,1.7-0.2,2.3-0.5l0.1-0.1v-6.9L316.2,82.7z M316,89.4c-0.5,0.2-1.3,0.4-2,0.4
					c-2.1,0-3.2-0.9-3.2-2.8c0-2.7,1.8-3.4,5.2-3.9V89.4z M316.2,82.7c-3.6,0.4-5.7,1.3-5.7,4.3c0,2.1,1.2,3.2,3.5,3.2
					c0.9,0,1.7-0.2,2.3-0.5l0.1-0.1v-6.9L316.2,82.7z M316,89.4c-0.5,0.2-1.3,0.4-2,0.4c-2.1,0-3.2-0.9-3.2-2.8
					c0-2.7,1.8-3.4,5.2-3.9V89.4z M316.2,82.7c-3.6,0.4-5.7,1.3-5.7,4.3c0,2.1,1.2,3.2,3.5,3.2c0.9,0,1.7-0.2,2.3-0.5l0.1-0.1v-6.9
					L316.2,82.7z M316,89.4c-0.5,0.2-1.3,0.4-2,0.4c-2.1,0-3.2-0.9-3.2-2.8c0-2.7,1.8-3.4,5.2-3.9V89.4z"/>
			</g>
			<g>
				<path class="st0" d="M322.6,76.5v15.2h3.6V78.1c0.9-0.5,2.2-0.5,3.4-0.1l0.7-2.6C326.3,75.2,324.2,75.7,322.6,76.5z"/>
				<path class="st0" d="M330.3,75.2c-3.6-0.1-5.9,0.2-7.8,1.1l-0.1,0.1v15.5h4V78.2c0.8-0.4,2-0.4,3.1,0l0.2,0.1l0.8-3.1H330.3z
					 M326,78v13.5h-3.3V76.6c1.3-0.6,3.2-1.2,7.3-1.1l-0.6,2.2C328.3,77.4,326.9,77.4,326,78L326,78z"/>
			</g>
			<g>
				<path class="st0" d="M337.4,75.3c-2.5,0-4.5,0.7-5.5,1.2l0.8,2.1c1-0.5,2.5-1,4-1c1.9,0,3.2,0.6,3.2,2.6v0.9
					c-4.9,0.5-9,1.7-9,5.9c0,3.1,2.2,4.9,6.5,4.9c2.5,0,4.5-0.5,5.8-1.2v-9.9C343.3,76.7,340.7,75.3,337.4,75.3z M339.9,82.9v6.6
					c-0.5,0.3-1.3,0.4-2.2,0.4c-2.1,0-3.3-0.9-3.3-3C334.4,84,336.5,83.3,339.9,82.9z"/>
				<path class="st0" d="M339.9,82.7c-3.6,0.4-5.7,1.3-5.7,4.3c0,2.1,1.2,3.2,3.5,3.2c0.8,0,1.7-0.2,2.3-0.5l0.1-0.1v-6.9
					L339.9,82.7z M339.7,89.4c-0.5,0.2-1.3,0.4-2,0.4c-2.1,0-3.2-0.9-3.2-2.8c0-2.7,1.8-3.4,5.2-3.9V89.4z M339.9,82.7
					c-3.6,0.4-5.7,1.3-5.7,4.3c0,2.1,1.2,3.2,3.5,3.2c0.8,0,1.7-0.2,2.3-0.5l0.1-0.1v-6.9L339.9,82.7z M339.7,89.4
					c-0.5,0.2-1.3,0.4-2,0.4c-2.1,0-3.2-0.9-3.2-2.8c0-2.7,1.8-3.4,5.2-3.9V89.4z M339.9,82.7c-3.6,0.4-5.7,1.3-5.7,4.3
					c0,2.1,1.2,3.2,3.5,3.2c0.8,0,1.7-0.2,2.3-0.5l0.1-0.1v-6.9L339.9,82.7z M339.7,89.4c-0.5,0.2-1.3,0.4-2,0.4
					c-2.1,0-3.2-0.9-3.2-2.8c0-2.7,1.8-3.4,5.2-3.9V89.4z M339.9,82.7c-3.6,0.4-5.7,1.3-5.7,4.3c0,2.1,1.2,3.2,3.5,3.2
					c0.8,0,1.7-0.2,2.3-0.5l0.1-0.1v-6.9L339.9,82.7z M339.7,89.4c-0.5,0.2-1.3,0.4-2,0.4c-2.1,0-3.2-0.9-3.2-2.8
					c0-2.7,1.8-3.4,5.2-3.9V89.4z M339.9,82.7c-3.6,0.4-5.7,1.3-5.7,4.3c0,2.1,1.2,3.2,3.5,3.2c0.8,0,1.7-0.2,2.3-0.5l0.1-0.1v-6.9
					L339.9,82.7z M339.7,89.4c-0.5,0.2-1.3,0.4-2,0.4c-2.1,0-3.2-0.9-3.2-2.8c0-2.7,1.8-3.4,5.2-3.9V89.4z M339.9,82.7
					c-3.6,0.4-5.7,1.3-5.7,4.3c0,2.1,1.2,3.2,3.5,3.2c0.8,0,1.7-0.2,2.3-0.5l0.1-0.1v-6.9L339.9,82.7z M339.7,89.4
					c-0.5,0.2-1.3,0.4-2,0.4c-2.1,0-3.2-0.9-3.2-2.8c0-2.7,1.8-3.4,5.2-3.9V89.4z M337.4,75.1c-2.6,0-4.7,0.8-5.6,1.2l-0.2,0.1
					l1,2.4l0.2-0.1c0.6-0.3,2.2-1,3.9-1c2.1,0,3,0.7,3,2.5V81c-4.4,0.4-8.9,1.5-8.9,6.1c0,3.2,2.4,5.1,6.7,5.1
					c2.4,0,4.5-0.4,5.9-1.2l0.1-0.1v-10C343.5,77.1,341.4,75.1,337.4,75.1z M343.1,90.7c-1.4,0.7-3.4,1.1-5.6,1.1
					c-4.2,0-6.3-1.7-6.3-4.7c0-4.3,4.4-5.3,8.8-5.8h0.2v-1c0-2.5-1.9-2.8-3.4-2.8c-1.7,0-3.2,0.6-3.9,0.9l-0.7-1.8
					c1-0.5,2.8-1.1,5.3-1.1c3.8,0,5.7,1.8,5.7,5.4V90.7z M334.2,86.9c0,2.1,1.2,3.2,3.5,3.2c0.8,0,1.7-0.2,2.3-0.5l0.1-0.1v-6.9
					l-0.2,0C336.3,83.1,334.2,84,334.2,86.9z M339.7,89.4c-0.5,0.2-1.3,0.4-2,0.4c-2.1,0-3.2-0.9-3.2-2.8c0-2.7,1.8-3.4,5.2-3.9
					V89.4z M339.9,82.7c-3.6,0.4-5.7,1.3-5.7,4.3c0,2.1,1.2,3.2,3.5,3.2c0.8,0,1.7-0.2,2.3-0.5l0.1-0.1v-6.9L339.9,82.7z
					 M339.7,89.4c-0.5,0.2-1.3,0.4-2,0.4c-2.1,0-3.2-0.9-3.2-2.8c0-2.7,1.8-3.4,5.2-3.9V89.4z M339.9,82.7c-3.6,0.4-5.7,1.3-5.7,4.3
					c0,2.1,1.2,3.2,3.5,3.2c0.8,0,1.7-0.2,2.3-0.5l0.1-0.1v-6.9L339.9,82.7z M339.7,89.4c-0.5,0.2-1.3,0.4-2,0.4
					c-2.1,0-3.2-0.9-3.2-2.8c0-2.7,1.8-3.4,5.2-3.9V89.4z M339.9,82.7c-3.6,0.4-5.7,1.3-5.7,4.3c0,2.1,1.2,3.2,3.5,3.2
					c0.8,0,1.7-0.2,2.3-0.5l0.1-0.1v-6.9L339.9,82.7z M339.7,89.4c-0.5,0.2-1.3,0.4-2,0.4c-2.1,0-3.2-0.9-3.2-2.8
					c0-2.7,1.8-3.4,5.2-3.9V89.4z M339.9,82.7c-3.6,0.4-5.7,1.3-5.7,4.3c0,2.1,1.2,3.2,3.5,3.2c0.8,0,1.7-0.2,2.3-0.5l0.1-0.1v-6.9
					L339.9,82.7z M339.7,89.4c-0.5,0.2-1.3,0.4-2,0.4c-2.1,0-3.2-0.9-3.2-2.8c0-2.7,1.8-3.4,5.2-3.9V89.4z"/>
			</g>
		</g>
		<g>
			<g>
				<path class="st0" d="M369.4,35.4c-3.8,0-6.4,3.1-6.4,7.4c0,4.4,2.7,7.5,6.4,7.5c1.9,0,3.2-0.6,4-1.9c-0.1,3.8-1.7,5.7-4.7,5.7
					v2.2c4.9-0.3,7.1-2.9,7.1-8.4v-5C375.8,38.5,373.1,35.4,369.4,35.4z M369.5,48.1c-2.4,0-4.1-2.3-4.1-5.4c0-2.9,1.5-5.3,4-5.3
					c2.5,0,4.2,2.4,4.2,5.4C373.5,45.8,371.9,48.1,369.5,48.1z"/>
			</g>
			<g>
				<path class="st0" d="M396.4,48.4V35.5H394v12.9c0,4-1.6,5.7-4.7,5.7v2.2c3.9-0.2,6.2-2,6.8-5.5h5.8v-2.3H396.4z"/>
			</g>
			<g>
				<path class="st0" d="M401.3,48.4v2.3H460v-2.3H401.3z"/>
			</g>
			<g>
				<path class="st0" d="M402.2,48.4v2.3h58.7v-2.3H402.2z"/>
			</g>
			<g>
				<path class="st0" d="M471.7,53v2.9h2.4V53H471.7z M472.3,35.9c-3.7,0-6.4,1.2-8.3,3.6c1,1.1,1.7,1.7,2,2.1
					c1.4-2.2,3.5-3.3,6.3-3.3c5.3,0,8.3,3.2,8.3,8.9c0,0.4,0,0.8-0.1,1.2h-20.5v2.3h23.3v-3.4C483.4,40.4,479,35.9,472.3,35.9z"/>
			</g>
			<g>
				<path class="st0" d="M497.1,48.4c-0.9,0-1.2,0-1.4,0c-0.9-0.1-1.5-0.5-1.9-1.1c-0.4-0.7-0.7-1.8-0.7-3.3V29h-2.4v16.4
					c0,1.8,0.5,3.1,1.5,4.1c0.8,0.8,1.9,1.3,3,1.3h2.7v-2.3H497.1z"/>
			</g>
			<g>
				<path class="st0" d="M557.8,48.4v-1.1c0-7-4.4-11.4-11.1-11.4c-3.7,0-6.4,1.2-8.3,3.6c1,1.1,1.7,1.7,2.1,2.1
					c1.4-2.2,3.5-3.3,6.3-3.3c5.3,0,8.3,3.2,8.3,8.9c0,0.4,0,0.8-0.1,1.2h-57.8v2.3h64.4v-2.3H557.8z"/>
			</g>
			<g>
				<path class="st0" d="M578,40.6c-1.2-1.5-3-2.2-5.2-2.2c-2.2,0-3.9,0.7-5.2,2.1c-1.3,1.5-1.9,3.3-1.9,5.5c0,0.8,0.1,1.6,0.3,2.3
					h-5.5v2.3h6.5c1.3,2,3.2,2.9,5.8,2.9c2.1,0,3.9-0.8,5.1-2.2c1.2-1.4,1.8-3.2,1.8-5.4C579.7,43.8,579.1,42,578,40.6z M572.8,51.6
					c-1.5,0-2.6-0.6-3.3-1.7c-0.6-1-1-2.2-1-3.7c0-1.7,0.4-2.9,1-3.9c0.8-1.2,1.9-1.8,3.5-1.8c1.4,0,2.5,0.5,3.2,1.7
					c0.6,0.9,0.9,2.1,0.9,3.6C577,49.6,575.6,51.6,572.8,51.6z"/>
			</g>
			<g>
				<path class="st0" d="M371.9,67.8v3.7h3.7v-3.7H371.9z M365.6,67.8v3.7h3.7v-3.7H365.6z M370.7,74.7c-4.6,0-8,3.3-8,8.2
					c0,4.7,3.3,8.3,8,8.3c4.8,0,8-3.5,8-8.1C378.6,78.1,375.3,74.7,370.7,74.7z M370.8,87.7c-2.4,0-4.2-2.1-4.2-4.9
					c0-2.7,1.5-4.8,4-4.8c2.6,0,4.2,2.1,4.2,5C374.8,85.7,373.2,87.7,370.8,87.7z"/>
			</g>
			<g>
				<path class="st0" d="M388.1,75.8v12.9c0,3.2-1.6,4.8-4.7,4.8v3.2c5.8,0,8.4-2.5,8.4-8.6V75.8H388.1z"/>
			</g>
			<g>
				<path class="st0" d="M405.5,87.3c-1.4,0-2.4-0.2-2.9-0.6c-0.7-0.5-1.1-1.6-1.1-3.2V69.4h-3.7V85c0,1.9,0.4,3.3,1.3,4.4
					c1,1.2,2.4,1.8,4.2,1.8h38.1v-3.8H405.5z"/>
			</g>
			<g>
				<path class="st0" d="M446.4,69v3.7h3.7V69H446.4z M449.2,87.3c0.6-0.6,0.8-1.9,0.8-3.9v-7.5h-3.7v7.7c0,1.2-0.1,2-0.4,2.6
					c-0.4,0.8-1.2,1.1-2.2,1.1h-37.2v3.8h49.2v-3.8H449.2z"/>
			</g>
			<g>
				<path class="st0" d="M466.8,78.5c-4.5,0-7.6,3.2-7.6,7.7c0,0.3,0,0.6,0.1,0.9l0,0.2h-4.7v3.8h6.1c1.5,2,3.5,3,6.1,3
					c4.5,0,7.5-3.3,7.5-7.8C474.3,81.9,471.3,78.5,466.8,78.5z M466.9,90.6c-2.3,0-3.8-1.9-3.8-4.4c0-2.5,1.5-4.3,3.6-4.3
					c2.2,0,3.7,1.9,3.7,4.5C470.4,88.9,469,90.6,466.9,90.6z"/>
			</g>
			<g>
				<path class="st0" d="M505.9,88.8c0.3-1.2,0.4-2.3,0.4-3.6V69.3H504v15.3c0,6-2.7,9.8-7.1,9.8c-4.4,0-7.1-4-7.1-9.8v-2.8h-2.4
					v3.2c0,6.7,4,11.6,9.5,11.6c3.5,0,6.6-2.1,8.3-5.6h6.5v-2.3H505.9z"/>
			</g>
			<g>
				<path class="st0" d="M510.8,88.8v2.3h37v-2.3H510.8z"/>
			</g>
			<g>
				<path class="st0" d="M544.2,88.8v2.3h7.1v-2.3H544.2z"/>
			</g>
			<g>
				<path class="st0" d="M562.5,67.9v2.9h2.4v-2.9H562.5z M558.2,67.9v2.9h2.4v-2.9H558.2z M567.3,88.8c-1.3,0-2.4-0.3-3.4-0.8
					c1.5-0.7,2.7-1.8,3.6-3.1c0.8-1.3,1.2-2.7,1.2-4.2c0-1.9-0.6-3.5-1.8-4.9c-1.4-1.5-3.2-2.1-5.5-2.1c-2.2,0-4.1,0.7-5.4,2.1
					c-1.3,1.3-1.9,2.9-1.9,4.9c0,1.5,0.4,2.9,1.2,4.2c0.8,1.4,2,2.4,3.5,3.1c-1,0.5-2.2,0.8-3.4,0.8h-5.3v2.3h3.3
					c1.9,0,3.2-0.1,3.9-0.2c1.2-0.2,2.6-0.8,4-1.6c1.5,0.9,2.7,1.4,4,1.6c0.7,0.1,2,0.2,3.9,0.2h3.3v-2.3H567.3z M561.5,86.5
					c-1.5-0.6-2.7-1.6-3.6-2.8c-0.8-1.1-1.2-2.3-1.2-3.5c0-2.6,1.8-4.6,4.7-4.6c1.5,0,2.6,0.5,3.5,1.4c0.8,0.8,1.2,1.9,1.2,3.2
					c0,1.2-0.4,2.4-1.2,3.5C564.1,85,563,85.9,561.5,86.5z"/>
			</g>
			<g>
				<path class="st0" d="M577.3,70.6v2.8h2.4v-2.8H577.3z M577.4,75.8v8.3c0,1.5-0.2,2.6-0.5,3.2c-0.5,1-1.4,1.4-2.9,1.4h-2.1v2.3
					h2.9c3.3,0,4.9-2,4.9-5.9v-9.4H577.4z"/>
			</g>
		</g>
	</g>
	<path class="st1" d="M13.3,48.6l16.1-16.1c4.5,2,5.4,6.4,5.5,8c0.3,3.4,1.1,7.9-1.1,9.7c-2.6,2-11.4,1.1-14,0.8
		C18.8,50.8,14.2,50.1,13.3,48.6z"/>
	<path class="st2" d="M36.1,81.1c-1.3,2.7-4.5,7.4-8.1,12.1L4.6,69.8c-2.9-2.8-3.4-7.2-1.5-10.6l0,0C3.4,59,3.7,58.8,4,58.8
		c13.8-3,30.9-2.6,33.9,0.9C41.8,64,39.4,74.1,36.1,81.1z"/>
	<path class="st3" d="M50.2,59.5C38.4,37.2,37.9,28.2,39.7,22.1L52,9.8c3.5-3.5,9.1-3.5,12.6,0l33,33C82.5,52.9,54.2,67.1,50.2,59.5
		z"/>
	<path class="st4" d="M112.1,69.8l-47.4,47.5c-3.5,3.4-9.1,3.4-12.6,0L33.9,99.1c2-6.6,6-13.7,12.4-18.8c11-8.7,50-30,57.7-30.4
		c0.3,0,0.5,0,0.8,0l7.2,7.2C115.5,60.7,115.5,66.3,112.1,69.8z"/>
</g>
</svg>
