<?xml version="1.0" encoding="utf-8"?>
<!-- Generator: Adobe Illustrator 24.3.0, SVG Export Plug-In . SVG Version: 6.00 Build 0)  -->
<svg version="1.1" id="Calque_1" xmlns="http://www.w3.org/2000/svg" xmlns:xlink="http://www.w3.org/1999/xlink" x="0px" y="0px"
	 viewBox="0 0 581.7 127" style="enable-background:new 0 0 581.7 127;" xml:space="preserve">
<style type="text/css">
	.st0{fill:#000000;}
	.st1{fill:#4A6A8B;}
</style>
<g>
	<g>
		<g>
			<path class="st0" d="M94.4,72.4c0-15.9-12.9-28.8-28.8-28.8c-15.9,0-28.8,12.9-28.8,28.8c0,9.7,4.8,18.3,12.1,23.5
				c0.4-5.7,0.8-10.3,1-10.5c0.4-0.6,8.4-2.2,9.2-2.5c0.1,0,0.3-0.1,0.4-0.1l-0.2-0.2c0.2-1.8,1.2-2.4,1.2-2.4
				c0.1,0.1,0.1,0.2,0.2,0.3l0-2c-0.5-0.7-0.7-1.3-0.8-1.6c-0.1-0.1-0.1-0.1-0.2-0.2l0,0h0c-1.1-1.5-1.7-2.8-1.7-2.9
				c0,0,0-0.8-0.1-1.9h-0.1c-0.6,0-1-0.5-1-1l0-1.3c0-0.5,0-0.9,0.5-1c-0.2-0.1,0,0,0,0S57,67.1,57,65.4c-0.2,0-0.3-0.1-0.5-0.1
				l0,3.3l-1-0.6l-1.2,0.6v0l0-4.1c-0.2-0.1-0.2-0.1-0.3-0.1l-0.3-0.2l0-0.4l0-4.6l-2-0.8l-1.4-0.5l1.4-0.6l2-0.8v0h0.1l12.3-4.8
				l0.2-0.1l0.2,0.1L80.6,57l1.4,0.5l-1.4,0.6L78.3,59l0,4.7v0.4L78,64.3c-0.1,0-1.1,0.6-3,1.1c0,1.7-0.6,3-0.6,3c0,0,0,0,0,0
				c0.5,0.1,0.8,0.5,0.8,1l0,1.3c0,0.6-0.5,1-1,1h0c-0.1,0-0.1,0-0.2,0c0,1.1-0.1,1.9-0.1,2c0,0.1-0.9,1.7-2.1,3.3
				c-0.2,0.3-0.4,0.8-0.7,1.3l0.1,2.2c0.1-0.1,0.2-0.2,0.2-0.4c0,0,1.1,0.6,1.2,2.4l-0.1,0.1c0.3,0.1,0.7,0.2,1.1,0.4
				c1,0.4,8,1.7,8.4,2.3c0.1,0.2,0.5,4.6,1,10.1C89.9,90.2,94.4,81.8,94.4,72.4z"/>
		</g>
		<g>
			<g>
				<g id="XMLID_1_">
					<g id="XMLID_4_">
						<path class="st1" d="M39.1,94.5C54.4,118.9,72.3,127,72.3,127s17.9-8.2,33-32.9c-8.6,8.4-20.3,13.7-33.2,13.7
							C59.3,107.8,47.7,102.8,39.1,94.5z"/>
					</g>
					<g id="XMLID_3_">
						<path class="st0" d="M72,13c26.1,0,47.4,21.2,47.5,47.4c0,0.3,0,0.6,0,1c4-14,6.5-30.8,6.4-50.8C124.6,10.5,98.3,0,71.9,0
							C45,0,18.1,10.7,18.1,10.7c0,19.9,2.6,36.6,6.6,50.6c0-0.3,0-0.5,0-0.8C24.6,34.3,45.8,13,72,13z"/>
					</g>
					<g id="XMLID_2_">
						<path class="st1" d="M72,19.8c-22.4,0-40.6,18.3-40.6,40.7c0,5.9,1.3,11.6,3.6,16.7c-0.2-1.5-0.3-3.1-0.4-4.6
							c0-17.1,13.9-31,30.9-31c17.1,0,31,13.9,31,30.9c0,12.3-7.2,23-17.6,28c19.1-3.3,33.7-20,33.6-40
							C112.6,37.9,94.4,19.7,72,19.8z"/>
					</g>
				</g>
			</g>
		</g>
	</g>
	<g>
		<g>
			<path class="st0" d="M167.2,108.6c-7,0-10.1-3.3-10.1-8.2c0-7.7,7-10,16-10.9l0-2c0-5.2-3-6.6-7-6.6c-2.8,0-5.2,1-6.6,1.9
				l-0.8-1.9c1.5-0.9,4.5-2.1,7.8-2.1c4.8,0,9.4,2.1,9.4,8.7l0,19C173.8,107.8,170.7,108.6,167.2,108.6z M173.1,91.2
				c-8.4,1.1-13.2,2.8-13.2,9.2c0,4.6,2.9,6.4,7.6,6.4c2.1,0,4.2-0.4,5.6-1.2L173.1,91.2z"/>
			<path class="st0" d="M193.3,108.6c-6,0-10.4-5.8-10.4-14.8c0-9.3,4.2-14.9,10.6-14.9c3.5,0,5.2,1.2,6,1.8l-0.8,1.8
				c-0.9-0.7-2.3-1.5-4.7-1.5c-6,0-8.1,5.4-8.1,12.6c0,7.4,2.7,12.8,8,12.8c2.1,0,3.7-0.7,4.8-1.5l0.9,2
				C198.4,107.7,196.3,108.6,193.3,108.6z"/>
			<path class="st0" d="M214.3,108.5c-7,0-10.1-3.3-10.1-8.2c0-7.7,7-10,16-10.9l0-2c0-5.2-3-6.6-7-6.6c-2.8,0-5.2,1-6.6,1.9
				l-0.8-1.9c1.5-0.9,4.5-2.1,7.8-2.1c4.8,0,9.4,2.1,9.4,8.7l0,19C220.8,107.7,217.8,108.5,214.3,108.5z M220.2,91.1
				c-8.4,1.1-13.2,2.8-13.2,9.2c0,4.6,2.9,6.4,7.6,6.4c2.1,0,4.2-0.4,5.6-1.2L220.2,91.1z"/>
			<path class="st0" d="M241.8,108.5c-8,0-11.9-6.1-11.9-14.2c0-9.7,4.9-15.2,12.4-15.2c1.5,0,2.9,0.2,4.6,0.7l0-13.6l2.8,0l0,40.3
				C248.2,107.6,245.3,108.5,241.8,108.5z M246.9,81.4c-1.3-0.4-2.8-0.6-4.2-0.6c-7.7,0-9.9,6.6-9.9,13c0,7,2.6,12.6,9.3,12.6
				c2.3,0,3.8-0.2,4.9-1L246.9,81.4z"/>
			<path class="st0" d="M259.5,94.9c0.4,7.6,4,11.4,9.6,11.4c3.2,0,5.4-0.9,6.9-1.7l0.9,2.1c-1.5,1-4.4,1.9-7.8,1.9
				c-6.9,0-12.3-4.2-12.3-14.9c0-10.1,4.8-14.8,10.8-14.8c6.2,0,10.3,3.9,10.3,13.4L259.5,94.9z M267.6,80.9
				c-4.6,0-8.1,3.5-8.1,12.2l15.6-2.4C275.1,83.5,272.2,80.9,267.6,80.9z M267.6,76l-1.7,0l3.8-7.1c1.6-1,3.3-1.1,3.6,0L267.6,76z"
				/>
			<path class="st0" d="M317.2,107.9l0-20.9c0-3.2-1.5-6.3-6.3-6.3c-2.8,0-5,1-7,3.1l0,24l-2.9,0l0-21.2c0-3.6-2.5-6.1-7.3-6.1
				c-2.7,0-4.2,0.3-6,1.2l0,26.1l-2.9,0l0-27.2c2.3-1.3,4.7-2,9.1-2c4.3,0,6.9,1.4,8.6,3.7c2.1-2.3,5-3.7,8.6-3.7
				c6.9,0,8.8,4.7,8.8,8.2l0,21L317.2,107.9z"/>
			<path class="st0" d="M330,73.1c-1.1,0-1.9-0.8-1.9-1.9c0-1.1,0.9-1.9,1.9-1.9c1.1,0,1.9,0.8,1.9,1.9
				C332,72.2,331.1,73.1,330,73.1z M328.6,107.9l0-28.7l2.9,0l0,28.7L328.6,107.9z"/>
			<path class="st0" d="M341.6,94.8c0.4,7.6,4,11.4,9.6,11.4c3.2,0,5.4-0.9,6.9-1.7l0.9,2.1c-1.5,1-4.4,1.9-7.8,1.9
				c-6.9,0-12.3-4.2-12.3-14.9c0-10.1,4.8-14.8,10.8-14.8c6.2,0,10.3,3.9,10.3,13.4L341.6,94.8z M349.7,80.8
				c-4.6,0-8.1,3.5-8.1,12.2l15.6-2.4C357.2,83.4,354.3,80.8,349.7,80.8z"/>
			<path class="st0" d="M412,107.8l0-21.1c0-2.3-1.3-4.1-4.4-4.1c-1.5,0-2.8,0.5-3.8,1.5l0,23.8l-8.7,0l0-21.3c0-2.4-1.7-4-4.7-4
				c-1.6,0-2.5,0.2-3.5,0.6l0,24.7l-8.7,0l0-28.5c3.4-1.5,6.9-2.2,12.2-2.3c5,0,7.8,1.3,9.6,3c1.9-1.6,5-3,10-3
				c7.2,0,10.9,4.2,10.9,9.6l0,21.1L412,107.8z"/>
			<path class="st0" d="M434.6,95.7c0.6,4.4,2.9,6.6,7.3,6.6c3.5,0,6.2-0.8,7.8-1.6l2,5.4c-2.4,1.2-5.7,2.2-10.8,2.2
				c-9.2,0-14.6-6.1-14.6-15.7c0-9.5,4.9-15.6,13.6-15.6c8.7,0,13.2,5.9,12.8,16.1L434.6,95.7z M439.5,82.2c-3.6,0-5.8,3.1-5.5,9.3
				l10.5-1.6C444.5,84.5,442.7,82.2,439.5,82.2z M441.5,74.5l-4.8,0l3.8-8.1c2.6-1.6,7.3-1.7,8.2,0.2L441.5,74.5z"/>
			<path class="st0" d="M475.1,107.7l0-21.1c0-2.1-1-4.2-4.5-4.2c-1.7,0-2.7,0.3-3.7,0.6l0,24.7l-8.7,0l0-28.5
				c3-1.3,7.3-2.2,12.6-2.3c9.6,0,13,4.1,13,9.6l0,21.1L475.1,107.7z"/>
			<path class="st0" d="M502.3,108.2c-8.7,0-13.2-3.2-13.2-9.5c0-7.8,7.8-10.1,16.8-10.9v-1.4c0-3.1-2.1-4-5.3-4
				c-2.9,0-5.9,1-7.8,1.9l-1.9-5c2.1-0.9,6-2.3,11.4-2.3c6.8,0,11.9,2.8,11.9,11l0,18C511.6,107.3,507.5,108.2,502.3,108.2z
				 M505.9,91.8c-5.3,0.5-8.7,1.7-8.7,6.6c0,3.5,2,5,5.5,5c1.3,0,2.4-0.2,3.2-0.6L505.9,91.8z"/>
			<path class="st0" d="M535.2,83.2c-2.1-0.9-4.4-0.8-5.8-0.2l0,24.6l-8.7,0l0-28.5c3.4-1.6,8.1-2.5,16.2-2.1L535.2,83.2z"/>
			<path class="st0" d="M551.4,108.2c-8.7,0-13.2-3.2-13.2-9.5c0-7.8,7.8-10.1,16.8-10.9v-1.4c0-3.1-2.1-4-5.3-4
				c-2.9,0-5.9,1-7.8,1.9l-1.9-5c2.1-0.9,6-2.3,11.4-2.3c6.8,0,11.9,2.8,11.9,11l0,18C560.7,107.3,556.6,108.2,551.4,108.2z
				 M555,91.8c-5.3,0.5-8.7,1.7-8.7,6.6c0,3.5,2,5,5.5,5c1.3,0,2.4-0.2,3.2-0.6L555,91.8z"/>
		</g>
		<g>
			<path class="st0" d="M167.4,33.9c-3.9,0-6.8,1.3-8.7,3.9c-1.6,2.1-2.3,5-2.3,8.4c0,3.5,0.8,6.4,2.4,8.5c1.9,2.7,4.8,4,8.7,4
				c3.9,0,6.9-1.3,8.8-4c1.5-2.1,2.3-5,2.3-8.5c0-3.5-0.8-6.3-2.3-8.4C174.3,35.2,171.3,33.9,167.4,33.9z M167.4,54.4
				c-3.9,0-5.9-2.7-5.9-8.1c0-5.3,2-8,5.9-8c4,0,6,2.7,6,8C173.4,51.7,171.4,54.4,167.4,54.4z"/>
			<path class="st0" d="M171,29.4c1.5,0,2.8-1.3,2.8-2.8c0-1.5-1.3-2.8-2.8-2.8c-1.5,0-2.8,1.3-2.8,2.8
				C168.2,28,169.5,29.4,171,29.4z"/>
			<path class="st0" d="M163.6,29.4c1.6,0,2.9-1.3,2.9-2.8c0-1.5-1.3-2.8-2.9-2.8c-1.5,0-2.8,1.3-2.8,2.8
				C160.8,28.1,162.1,29.4,163.6,29.4z"/>
			<path class="st0" d="M194.5,35.7l0,21.6c0,4.6-2.7,7.4-7.1,7.4c-3.1,0-5.8-0.7-8.3-2.1l2.5,5.1c1.6,1,3.5,1.5,5.8,1.5
				c3.8,0,6.8-1.1,8.9-3.3c2.2-2.2,3.3-5.1,3.3-8.8l0-22.9L194.5,35.7z"/>
			<path class="st0" d="M263.2,29.3c1.5,0,2.8-1.3,2.8-2.8c0-1.5-1.3-2.8-2.8-2.8c-1.5,0-2.8,1.3-2.8,2.8
				C260.4,27.9,261.7,29.3,263.2,29.3z"/>
			<path class="st0" d="M314.3,35.2c-3.8,0-6.5,1.2-8.3,3.7c-1.5,2.1-2.2,4.7-2.2,8.1l0,1.7c0,3.7-1.8,5.5-5.3,5.5l-25.5,0l0,0
				l-1.6,0c-3.6,0-5.4-1.8-5.4-5.4l0-14.7l-5.1,1.5l0,13c0,3.7-1.8,5.5-5.4,5.5l-2.2,0l0,0l-40.9,0c-1.8,0-2.7-0.9-2.7-2.6l0-28
				l-5.2,1.6l0,26.5c0,4.2,2.6,7,7.2,7l41.6,0v0l2.6,0c3.3,0,5.9-1,7.7-2.9c1.9,1.9,4.4,2.9,7.6,2.9l3.3,0l0,0l24.5,0
				c3.6,0,6.3-1,8-2.9c1.9,1.9,4.4,2.9,7.6,2.9c3.7,0,6.5-1.3,8.3-3.7c1.5-2,2.2-4.7,2.2-8c0-3.3-0.8-6-2.2-8.1
				C320.8,36.4,318,35.2,314.3,35.2z M314.4,54.2c-3.6,0-5.4-2.4-5.4-7.2c0-4.9,1.8-7.3,5.4-7.3c3.5,0,5.3,2.4,5.3,7.3
				C319.7,51.8,317.9,54.2,314.4,54.2z"/>
			<rect x="353" y="29.3" class="st0" width="3.2" height="3.4"/>
			<rect x="359.5" y="29.3" class="st0" width="3.2" height="3.4"/>
			<rect x="399.8" y="63.7" class="st0" width="3.2" height="3.4"/>
			<rect x="406.3" y="63.7" class="st0" width="3.2" height="3.4"/>
			<rect x="453" y="63.7" class="st0" width="3.2" height="3.4"/>
			<rect x="459.5" y="63.7" class="st0" width="3.2" height="3.4"/>
			<path class="st0" d="M483.6,37.5c-6,0-7.7,3.4-8.2,6.2l0,0.1h3l0-0.1c0.3-2.4,2-3.6,5.2-3.6c3.2,0,4.6,1.3,4.9,4.5v11.7h-13.6
				v2.6h16.5V44.6C491.4,39.9,488.7,37.5,483.6,37.5z"/>
			<path class="st0" d="M562.6,23.2c-0.3,0.5-0.9,0.5-1.1,0.5h-2.6v-1.6c0-1.2,0.4-2.2,1.5-2.2c1,0,1.3,0.7,1.3,1.5h1.6
				c-0.1-1.5-1.3-2.9-2.9-2.9c-2.1,0-3.1,1.8-3.1,3.7v1.6h-1.2l-0.6,1.5h5.7c0.8,0,1.6-0.1,2.3-1L562.6,23.2z"/>
			<rect x="559.3" y="28" class="st0" width="2.6" height="30.8"/>
			<path class="st0" d="M462.9,50.5c0,3.7-2.2,5.9-5.8,5.9h-6.3c-3.5,0-5.6-2-6.2-5.9c-0.2-5.2-3.5-10.7-10-10.7
				c-6.4,0-9.6,5.6-9.9,10.8c-0.1,2.1-0.9,3.7-2.3,4.7c-1.5,1-3,1.1-3.5,1.1h-3.2c-4,0-6.5-2.7-6.6-7.1V39.2h-2.4v11.3
				c0,3.7-2.2,5.9-5.8,5.9h-30.6c-3.5,0-5.6-2.1-5.8-5.8l0-14.5l-2.4,0.7V39l-0.1,0c-5.2-0.4-9.1,0.6-11.5,2.7
				c-1.7,1.5-2.6,3.7-2.6,6.4c0,2.3,0.8,4.4,2.3,5.9c1.4,1.4,3.2,2.2,5,2.2c5,0,7-4,7-4l0.1-0.3l0,0.3c0.4,2.9,2.1,6.4,7.3,6.4h31.9
				c3.5,0,5.8-1.6,6.9-4.6l0.1-0.2l0.1,0.2c0.9,2.3,3.8,4.6,7.5,4.6h3.2c4,0,5.6-2.1,6-2.8l0.1-0.2l0.1,0.2c1.5,4,5,6.4,9.1,6.4
				c4.6,0,8.2-2.8,9.5-7.6l0.1-0.2l0.1,0.2c0.8,1.7,3.7,4,6.9,4h6.6c6.5,0,7.5-5.4,7.5-8.5V37.7h-2.4V50.5z M360,52.6
				c-1,1.1-2.5,1.6-4.4,1.6c-1.4,0-2.6-0.5-3.5-1.5c-1.3-1.4-1.7-3.5-1.7-4.6c0.4-7.1,6.9-7,10.4-6.9c0.5,0,0.9,0,1.3,0l0.1,0l0,0.8
				C362.3,45.6,362.4,50.2,360,52.6z M427.5,51.1c0-3.6,1.9-8.9,7.2-8.9c5.3,0,7.2,5.3,7.2,8.9c0,6.1-3.7,8.9-7.2,8.9
				C431.2,60,427.5,57.2,427.5,51.1z"/>
			<path class="st0" d="M538.2,37.6c-2.4,0-12.7,0-17.2,0c0.8-4,5.3-7.5,9.8-7.5h5.2V28h-5.7c-6.6,0-12.1,5.5-12.1,12
				c0,0,17.9,0,20,0c4.9,0,7.9,4.7,7.9,8.3c0,4.1-3,8.1-7.9,8.1c-4.6,0-23.9,0-25.9,0h-0.2H510c-3.5,0-5.6-2.1-5.6-5.8V28h-2.6v22.2
				c0,2.5,0.6,8.6,7.6,8.6h2.7h0.2c2.2,0,23.2,0,25.9,0c6.2,0,10.7-4.4,10.7-10.1C548.8,43,544.7,37.6,538.2,37.6z"/>
		</g>
	</g>
</g>
</svg>
