<?xml version="1.0" standalone="no"?>
<!DOCTYPE svg PUBLIC "-//W3C//DTD SVG 20010904//EN"
 "http://www.w3.org/TR/2001/REC-SVG-20010904/DTD/svg10.dtd">
<svg version="1.0" xmlns="http://www.w3.org/2000/svg"
 width="1534.000000pt" height="406.000000pt" viewBox="0 0 1534.000000 406.000000"
 preserveAspectRatio="xMidYMid meet">

<g transform="translate(0.000000,406.000000) scale(0.100000,-0.100000)"
fill="#000000" stroke="none">
<path d="M3840 3846 c-742 -107 -1340 -640 -1525 -1361 -47 -185 -58 -292 -53
-512 8 -287 56 -489 177 -740 71 -147 129 -237 227 -360 266 -329 640 -555
1053 -639 649 -131 1317 92 1749 586 210 240 358 544 424 870 31 155 33 499 4
655 -69 376 -245 712 -512 979 -273 273 -591 438 -989 513 -112 21 -434 26
-555 9z m490 -81 c744 -106 1332 -664 1482 -1406 20 -99 23 -143 23 -334 -1
-201 -3 -231 -28 -346 -98 -461 -358 -847 -742 -1104 -917 -615 -2155 -246
-2591 772 -56 132 -88 243 -115 401 -18 111 -21 152 -16 327 8 295 51 475 178
730 84 170 172 295 304 433 207 216 445 367 722 458 92 30 265 68 353 77 93
10 335 5 430 -8z"/>
<path d="M3957 3643 c-14 -4 -16 -8 -6 -19 15 -18 29 -18 29 0 0 8 6 17 13 19
15 7 -11 7 -36 0z"/>
<path d="M3767 3573 c7 -54 13 -69 13 -32 0 20 19 5 116 -91 l115 -115 -7 55
c-7 59 -14 78 -14 39 0 -20 -17 -7 -108 84 -59 59 -111 107 -114 107 -4 0 -5
-21 -1 -47z"/>
<path d="M4300 3510 c-41 -61 -87 -122 -103 -136 -28 -23 -28 -24 -5 -24 17 0
28 11 42 41 10 22 24 43 32 46 7 2 38 -10 69 -29 48 -29 55 -36 52 -60 -4 -28
8 -38 45 -38 15 0 18 3 10 13 -6 6 -22 75 -37 152 -15 77 -28 141 -29 143 -2
1 -36 -47 -76 -108z m71 -35 c8 -47 13 -85 11 -85 -2 0 -28 15 -57 32 l-52 33
35 52 c19 29 38 53 41 53 4 0 13 -38 22 -85z"/>
<path d="M3381 3601 c-10 -7 -12 -19 -6 -47 l8 -39 12 35 c22 57 18 71 -14 51z"/>
<path d="M3972 3575 c0 -16 2 -22 5 -12 2 9 2 23 0 30 -3 6 -5 -1 -5 -18z"/>
<path d="M3450 3515 c-14 -8 -20 -14 -15 -14 6 -1 17 3 25 9 9 5 19 5 27 -2
10 -8 12 -7 7 6 -7 19 -12 19 -44 1z"/>
<path d="M3982 3500 c0 -14 2 -19 5 -12 2 6 2 18 0 25 -3 6 -5 1 -5 -13z"/>
<path d="M4761 3491 c10 -14 1 -37 -47 -125 -34 -62 -68 -111 -79 -116 -17 -6
-14 -10 23 -29 40 -20 42 -21 33 -3 -7 14 -2 31 23 76 l33 58 31 -37 c35 -39
37 -51 21 -109 -9 -33 -8 -41 8 -57 17 -18 18 -17 22 19 2 20 4 56 5 80 0 33
4 42 18 42 32 0 68 23 74 47 14 54 -35 112 -128 152 -44 18 -47 19 -37 2z m89
-38 c35 -24 49 -44 50 -71 0 -35 -16 -59 -47 -70 -33 -11 -61 -3 -87 26 -18
20 -17 22 14 76 17 31 35 56 39 56 3 0 18 -8 31 -17z"/>
<path d="M3361 3476 c-33 -17 -40 -24 -27 -29 22 -9 118 -216 113 -244 -4 -20
2 -18 80 20 52 26 83 47 82 57 0 10 -2 11 -6 2 -4 -10 -92 -62 -106 -62 -2 0
-16 27 -32 61 -29 60 -29 61 -10 76 19 14 19 14 -5 8 -23 -5 -27 0 -49 50 -13
31 -22 57 -20 59 2 2 13 8 24 14 38 22 0 11 -44 -12z"/>
<path d="M3782 3470 c0 -14 2 -19 5 -12 2 6 2 18 0 25 -3 6 -5 1 -5 -13z"/>
<path d="M3510 3407 c0 -9 -7 -20 -16 -25 -13 -7 -10 -9 14 -8 27 1 29 3 20
21 -15 28 -18 30 -18 12z"/>
<path d="M3792 3400 c0 -14 2 -19 5 -12 2 6 2 18 0 25 -3 6 -5 1 -5 -13z"/>
<path d="M3017 3332 c-15 -15 -27 -33 -27 -38 0 -5 25 -71 55 -147 30 -75 55
-139 55 -141 0 -2 -70 19 -155 47 l-155 52 -27 -28 -28 -28 25 5 c21 5 41 -9
134 -99 92 -90 107 -110 103 -131 -4 -25 -4 -25 29 7 19 18 34 34 34 35 0 0
-11 -1 -25 -4 -21 -4 -41 11 -120 89 -52 51 -93 94 -92 96 2 1 74 -22 160 -52
l156 -54 -18 47 c-11 26 -38 94 -61 152 -23 58 -45 112 -47 120 -3 8 42 -32
101 -90 93 -91 106 -108 101 -130 -4 -14 -5 -23 -3 -20 2 3 21 24 42 47 32 35
35 41 17 36 -18 -5 -42 14 -133 105 -99 99 -109 112 -99 131 16 28 10 26 -22
-7z"/>
<path d="M3790 3340 c-9 -17 -8 -20 9 -20 26 0 32 12 15 28 -11 10 -15 8 -24
-8z"/>
<path d="M3900 3235 c-282 -48 -506 -167 -698 -370 -174 -183 -286 -415 -323
-665 -18 -126 -7 -342 24 -462 95 -364 325 -649 652 -808 170 -83 336 -120
536 -120 198 0 364 38 540 125 229 113 425 305 541 531 102 199 133 331 132
569 0 150 -3 182 -26 275 -89 352 -304 629 -618 799 -216 116 -522 167 -760
126z m447 -94 c427 -106 740 -415 850 -840 33 -128 41 -318 19 -451 -81 -494
-465 -874 -960 -951 -105 -17 -343 -6 -439 20 -209 55 -369 146 -523 296 -160
157 -252 314 -312 534 -24 87 -26 113 -26 281 0 168 3 194 27 283 119 443 490
776 942 847 96 15 327 4 422 -19z"/>
<path d="M3970 3069 c-186 -20 -390 -105 -537 -224 -379 -305 -499 -835 -288
-1272 134 -277 383 -480 684 -560 82 -22 118 -26 251 -27 166 -1 218 7 358 55
151 51 276 131 400 256 215 217 325 528 293 832 -15 140 -41 234 -101 356
-160 330 -469 546 -835 585 -101 11 -119 11 -225 -1z m91 -213 c27 -87 21
-154 -21 -243 -33 -68 -51 -141 -33 -130 6 4 13 19 16 34 3 16 30 65 61 111
65 99 83 162 67 247 -6 30 -15 64 -21 76 -7 11 -9 23 -6 26 14 15 40 -80 43
-162 5 -97 3 -104 -81 -247 -15 -26 -26 -56 -24 -65 3 -13 10 -6 27 25 12 24
46 70 76 102 30 33 62 76 71 97 17 40 24 165 12 218 -7 28 -6 28 9 -5 10 -22
16 -63 16 -110 1 -90 -28 -163 -91 -232 -42 -46 -78 -108 -64 -108 5 0 20 16
33 35 13 19 54 60 91 90 84 70 118 133 121 228 1 36 6 62 11 60 5 -3 6 -39 3
-80 -8 -100 -41 -168 -116 -234 -55 -48 -102 -109 -84 -109 5 0 27 18 48 41
22 22 63 54 92 70 68 39 120 100 138 163 35 127 35 125 28 66 -12 -118 -50
-183 -147 -255 -81 -60 -111 -90 -98 -99 5 -3 18 4 28 15 11 12 57 41 104 65
47 24 94 51 105 61 40 35 77 93 96 150 19 58 20 58 14 14 -7 -57 -59 -153
-102 -191 -19 -17 -60 -43 -91 -60 -67 -35 -109 -66 -100 -75 3 -3 30 7 59 23
30 16 83 37 118 47 46 14 77 31 114 64 48 43 97 125 97 163 0 9 4 19 9 22 16
10 -9 -76 -37 -127 -38 -71 -110 -131 -185 -156 -70 -24 -138 -62 -120 -68 6
-2 25 3 41 11 16 8 71 23 121 32 131 24 211 83 257 192 17 38 28 44 14 7 -31
-81 -99 -164 -162 -196 -21 -11 -68 -26 -104 -35 -69 -16 -130 -41 -121 -51 3
-3 21 0 39 5 18 6 69 14 113 17 44 3 98 10 120 16 56 14 131 71 166 126 16 26
29 42 29 37 0 -21 -59 -101 -100 -137 -52 -44 -113 -66 -218 -76 -82 -8 -102
-15 -102 -32 0 -6 9 -7 23 -3 12 4 78 6 146 5 115 -2 128 0 177 24 30 15 74
49 100 78 26 29 41 41 35 29 -25 -48 -84 -102 -143 -132 -56 -27 -70 -30 -162
-30 -56 0 -111 -3 -123 -6 -32 -9 -18 -24 16 -18 15 3 72 -3 127 -14 138 -29
220 -11 304 68 18 17 34 29 36 27 9 -8 -76 -78 -126 -104 -61 -30 -134 -35
-279 -18 -55 6 -72 5 -67 -3 4 -7 20 -12 35 -12 15 0 68 -14 117 -31 74 -26
100 -30 154 -27 67 5 135 32 178 71 12 11 22 15 22 9 0 -21 -104 -81 -168 -97
-70 -18 -111 -15 -201 16 -30 11 -68 19 -85 18 -30 -1 -30 -1 7 -10 20 -5 71
-26 112 -48 41 -22 95 -43 121 -47 54 -8 134 8 188 37 21 11 40 18 43 16 2 -3
-26 -20 -64 -39 -59 -29 -77 -33 -143 -33 -65 0 -86 6 -159 38 -46 21 -94 36
-105 35 -16 -3 -11 -8 24 -24 25 -11 75 -41 112 -67 99 -68 201 -80 311 -38
47 18 45 11 -3 -11 -55 -25 -191 -36 -243 -19 -20 7 -63 30 -96 51 -64 41
-111 59 -111 42 0 -5 11 -13 24 -16 13 -3 54 -33 90 -66 94 -85 134 -104 226
-105 41 0 89 3 105 7 28 7 27 6 -5 -9 -21 -9 -64 -16 -110 -16 -90 -1 -146 21
-223 86 -60 51 -96 72 -105 61 -4 -4 0 -9 8 -12 8 -3 31 -22 50 -42 19 -21 58
-62 86 -93 63 -67 125 -92 228 -91 39 0 61 -3 50 -7 -33 -13 -119 -10 -174 7
-65 19 -127 60 -163 108 -30 39 -85 81 -94 72 -3 -3 8 -18 24 -33 16 -15 50
-60 75 -99 71 -110 144 -154 256 -154 43 0 53 -3 44 -12 -18 -18 -145 5 -211
39 -35 18 -67 44 -88 73 -62 84 -107 133 -111 121 -2 -7 5 -22 16 -34 11 -12
37 -56 57 -97 57 -120 130 -180 242 -200 l48 -9 -50 3 c-60 3 -147 41 -197 84
-19 18 -52 64 -73 104 -20 40 -43 79 -51 87 -23 25 -27 4 -6 -31 11 -18 29
-63 41 -100 11 -37 27 -80 35 -96 32 -61 146 -141 204 -142 12 0 22 -4 22 -9
0 -12 -54 1 -111 26 -90 40 -156 120 -189 229 -14 47 -49 99 -50 73 0 -9 6
-32 14 -50 8 -19 17 -56 21 -84 17 -128 70 -207 174 -259 66 -34 65 -41 -1
-13 -69 28 -159 116 -181 177 -9 25 -21 70 -27 100 -6 30 -15 62 -20 70 -17
27 -22 2 -11 -50 6 -28 11 -79 11 -114 0 -109 53 -191 176 -274 11 -7 0 -3
-24 8 -102 49 -168 144 -183 263 -22 181 -33 182 -36 5 -4 -171 8 -211 88
-290 31 -32 53 -58 48 -58 -4 0 -35 26 -67 57 -81 79 -102 138 -102 278 0 63
-4 105 -10 105 -5 0 -10 -17 -10 -37 -1 -21 -7 -65 -15 -98 -31 -129 -12 -222
62 -305 25 -27 40 -50 35 -50 -19 0 -84 83 -110 139 -29 61 -33 129 -18 254 7
48 6 67 -3 67 -6 0 -11 -12 -11 -26 0 -14 -14 -66 -31 -116 -26 -75 -31 -101
-27 -152 5 -62 41 -150 72 -175 9 -8 16 -18 16 -24 0 -20 -38 25 -68 81 -53
101 -58 186 -18 301 9 24 16 55 15 70 0 22 -2 19 -13 -14 -7 -22 -30 -74 -51
-115 -34 -66 -38 -83 -38 -147 0 -60 5 -82 30 -133 16 -33 26 -60 22 -60 -13
0 -58 102 -70 158 -14 68 -6 123 30 199 33 70 47 123 33 123 -6 0 -13 -12 -17
-27 -3 -16 -24 -53 -46 -83 -65 -90 -82 -136 -82 -215 0 -42 7 -85 17 -109 22
-53 19 -59 -5 -12 -26 48 -36 173 -20 232 6 22 28 67 50 100 21 32 42 69 46
82 8 27 -11 30 -20 2 -3 -10 -33 -49 -67 -86 -33 -37 -69 -87 -80 -112 -25
-56 -34 -145 -20 -196 9 -30 8 -36 0 -28 -7 7 -14 51 -16 99 -5 113 16 174 93
261 30 35 55 67 55 73 0 16 -19 10 -30 -11 -6 -11 -40 -45 -77 -74 -107 -89
-136 -147 -135 -275 0 -70 -1 -73 -10 -36 -14 57 -2 149 27 212 16 35 49 77
96 123 40 38 70 73 66 76 -3 4 -21 -6 -39 -22 -19 -16 -63 -48 -100 -72 -93
-61 -147 -148 -149 -241 0 -27 -2 -31 -8 -17 -17 43 25 172 76 232 10 12 43
39 73 61 69 51 100 83 78 83 -9 0 -22 -8 -29 -17 -8 -9 -47 -32 -87 -50 -116
-54 -169 -112 -208 -227 l-14 -41 6 40 c7 54 44 133 83 178 18 20 58 48 89 63
75 36 114 63 106 75 -3 6 -19 1 -37 -10 -18 -10 -64 -28 -103 -40 -115 -34
-199 -110 -226 -205 -6 -23 -15 -45 -20 -51 -5 -5 -2 11 6 35 45 145 111 214
252 260 62 21 104 50 71 50 -8 0 -30 -7 -50 -15 -19 -8 -65 -19 -102 -25 -116
-19 -194 -75 -241 -175 -13 -27 -24 -43 -24 -35 1 28 38 98 76 139 51 57 106
88 193 106 70 14 117 36 105 47 -3 3 -26 -1 -51 -8 -25 -8 -78 -14 -117 -14
-107 0 -176 -37 -249 -134 -40 -51 -49 -51 -17 1 57 95 157 157 270 168 166
16 159 29 -17 32 -128 3 -140 1 -192 -23 -33 -15 -76 -46 -105 -77 -42 -44
-46 -47 -30 -18 24 42 85 95 143 123 38 19 66 24 161 26 63 2 119 8 124 13 6
5 -7 9 -35 9 -24 0 -71 7 -104 15 -131 31 -234 8 -319 -73 -27 -26 -35 -30
-27 -15 17 34 96 90 159 114 59 22 70 22 245 3 39 -5 57 -3 57 5 0 6 -15 11
-32 11 -18 0 -71 14 -118 30 -48 17 -104 30 -132 30 -56 0 -135 -28 -184 -65
-19 -14 -34 -22 -34 -17 0 13 66 57 125 83 65 29 158 29 239 0 33 -12 73 -21
90 -20 31 1 30 1 -6 10 -21 5 -75 28 -120 51 -74 37 -91 42 -154 42 -59 0 -81
-5 -132 -30 -34 -17 -62 -27 -62 -23 0 4 30 23 67 41 57 28 77 32 142 33 66 0
87 -5 160 -38 46 -21 94 -37 105 -35 15 2 5 11 -37 30 -32 15 -76 41 -97 58
-21 17 -54 37 -74 45 -45 19 -168 19 -221 0 -21 -8 -41 -12 -43 -11 -2 2 22
13 53 25 38 14 79 21 128 21 78 0 109 -11 211 -74 33 -20 66 -36 73 -36 22 0
14 18 -11 24 -13 3 -58 37 -101 76 -60 55 -89 74 -133 86 -53 16 -142 15 -197
-1 -11 -3 -4 2 15 11 27 12 56 15 125 12 101 -5 141 -21 215 -85 25 -22 56
-45 68 -52 29 -15 45 -4 17 11 -11 7 -33 26 -50 44 -16 17 -53 56 -81 87 -64
68 -124 91 -234 91 -51 -1 -65 2 -45 7 121 28 261 -18 334 -110 36 -45 89 -87
98 -77 4 4 -3 13 -14 21 -12 8 -46 52 -76 99 -77 116 -133 153 -251 166 l-71
7 67 2 c116 2 207 -46 272 -142 42 -64 96 -117 96 -95 0 8 -10 23 -21 34 -12
10 -37 52 -56 92 -18 41 -44 88 -58 106 -31 41 -113 86 -185 103 l-55 13 53
-5 c63 -5 144 -40 193 -83 19 -17 55 -67 79 -111 24 -45 49 -86 57 -93 25 -20
25 0 0 39 -14 21 -35 70 -46 109 -35 119 -101 190 -208 224 -32 11 -48 19 -36
19 41 1 131 -39 177 -81 47 -41 82 -98 106 -173 15 -47 52 -103 58 -87 2 6 -4
25 -13 42 -9 17 -22 66 -30 109 -7 43 -20 94 -28 114 -21 49 -89 114 -150 143
-29 13 -45 24 -37 24 28 -1 98 -38 139 -76 58 -52 87 -106 107 -198 10 -43 26
-88 36 -100 l19 -21 -6 30 c-3 17 -10 48 -15 70 -5 22 -9 65 -10 96 0 102 -41
177 -128 240 -64 45 -57 53 9 11 89 -57 143 -150 154 -267 8 -83 23 -137 36
-129 5 3 6 11 2 17 -4 7 -7 75 -8 152 0 129 -2 144 -25 189 -14 27 -47 68 -73
92 -27 24 -44 44 -37 44 21 0 116 -104 140 -155 21 -41 26 -71 31 -175 8 -142
6 -130 19 -130 6 0 8 15 5 38 -4 21 2 76 13 128 15 68 18 103 11 143 -8 53
-44 126 -73 151 -9 7 -16 17 -16 23 0 22 49 -37 81 -96 30 -55 33 -71 33 -137
0 -41 -4 -108 -8 -147 -7 -53 -6 -73 3 -73 6 0 11 15 11 34 0 19 14 72 31 118
41 110 38 195 -9 282 -17 32 -24 52 -16 45 25 -21 64 -106 75 -165 9 -47 7
-68 -12 -137 -12 -45 -23 -100 -25 -122 l-3 -40 10 40 c5 22 28 78 52 125 38
76 42 92 42 155 -1 54 -7 83 -28 129 -32 70 -34 82 -7 41 11 -16 30 -61 41
-99z"/>
<path d="M3815 2252 c-6 -4 -21 -30 -34 -59 -20 -43 -23 -62 -18 -115 6 -75
30 -127 89 -190 54 -59 116 -88 188 -88 129 0 169 21 177 94 5 42 3 51 -20 72
-14 13 -31 24 -37 24 -9 0 -58 23 -137 64 -46 24 -92 87 -110 151 -14 50 -18
55 -44 55 -21 0 -29 -5 -30 -17 0 -17 -1 -17 -7 -1 -4 10 -12 14 -17 10z"/>
<path d="M5175 3081 c-81 -28 -104 -39 -87 -43 12 -4 22 -2 22 2 0 4 27 17 60
28 33 12 60 18 60 14 -1 -4 -18 -40 -39 -81 -34 -68 -39 -73 -50 -55 -12 18
-12 18 -6 -1 13 -39 9 -54 -15 -63 -20 -7 -19 -9 10 -37 29 -28 30 -28 30 -7
0 12 29 81 65 152 36 72 64 130 63 129 -2 0 -52 -17 -113 -38z"/>
<path d="M5008 3031 l-37 -6 20 -25 c12 -14 18 -19 14 -13 -3 8 7 21 27 33 18
11 29 19 23 19 -5 -1 -27 -5 -47 -8z"/>
<path d="M2622 2388 c-21 -21 -14 -66 13 -84 50 -32 103 22 70 72 -17 26 -62
33 -83 12z"/>
<path d="M5512 2388 c-21 -21 -14 -66 13 -84 50 -32 103 22 70 72 -17 26 -62
33 -83 12z"/>
<path d="M5296 1768 c-3 -13 -6 -26 -6 -30 0 -7 71 -51 75 -46 2 2 -12 25 -30
51 -30 44 -33 46 -39 25z"/>
<path d="M5415 1769 c-9 -28 -2 -33 13 -9 6 11 8 21 3 25 -5 3 -13 -4 -16 -16z"/>
<path d="M2821 1753 c-2 -23 -32 -42 -113 -69 -107 -35 -151 -57 -177 -90 -38
-48 -20 -153 33 -187 48 -32 79 -30 203 13 70 24 127 39 141 35 25 -6 26 -3 7
45 -13 33 -14 33 -14 9 -1 -30 -30 -45 -178 -94 -71 -23 -88 -25 -117 -15 -86
28 -106 135 -35 182 14 8 75 33 136 54 98 34 115 37 134 26 19 -12 20 -12 13
10 -16 53 -33 92 -33 81z"/>
<path d="M5539 1726 c4 -6 10 -17 12 -24 3 -8 8 -6 16 7 10 16 9 19 -13 24
-17 3 -22 1 -15 -7z"/>
<path d="M5401 1714 c0 -11 3 -14 6 -6 3 7 2 16 -1 19 -3 4 -6 -2 -5 -13z"/>
<path d="M5704 1714 c3 -8 6 -23 7 -32 0 -14 2 -13 9 3 12 29 12 32 -6 39 -12
5 -15 2 -10 -10z"/>
<path d="M5387 1657 c-5 -21 -9 -44 -11 -50 -1 -7 -1 -9 1 -4 7 12 40 8 146
-18 127 -32 147 -40 148 -62 0 -10 7 5 15 32 15 55 17 82 4 48 -9 -21 -10 -21
-72 -6 -35 9 -68 22 -74 30 -7 8 -13 10 -15 4 -3 -7 -26 -4 -66 6 -48 13 -63
22 -65 38 -3 13 -6 7 -11 -18z"/>
<path d="M5541 1664 c0 -11 3 -14 6 -6 3 7 2 16 -1 19 -3 4 -6 -2 -5 -13z"/>
<path d="M5701 1644 c0 -11 3 -14 6 -6 3 7 2 16 -1 19 -3 4 -6 -2 -5 -13z"/>
<path d="M5241 1329 c-34 -55 -61 -103 -61 -107 0 -5 11 -19 25 -32 l26 -24
-15 34 c-12 30 -12 40 -1 68 8 17 17 32 21 32 21 0 244 -147 246 -163 2 -13
11 -5 30 28 22 36 24 43 9 33 -17 -10 -37 -1 -140 61 -67 41 -121 77 -121 81
0 22 40 53 75 59 l40 6 -37 11 -37 12 -60 -99z"/>
<path d="M2868 1217 c-123 -97 -145 -110 -163 -103 -11 4 -9 -3 7 -24 20 -28
37 -42 24 -21 -12 18 7 40 90 105 46 36 86 66 88 66 2 0 -14 -70 -36 -156 -22
-85 -37 -158 -35 -161 3 -2 45 26 94 65 117 92 139 105 163 99 17 -4 17 -2 -6
29 -15 19 -27 34 -29 34 -1 0 0 -11 2 -23 4 -20 -9 -35 -82 -92 -47 -37 -89
-65 -91 -62 -3 3 13 74 35 158 22 84 39 154 37 156 -2 2 -46 -30 -98 -70z"/>
<path d="M5016 1051 c-35 -35 -36 -38 -13 -34 20 4 38 -11 113 -92 50 -55 89
-106 88 -117 -1 -15 5 -13 33 14 33 32 42 45 23 33 -15 -9 -29 3 -124 103 -65
69 -87 98 -83 113 3 10 4 19 3 19 -1 0 -19 -17 -40 -39z"/>
<path d="M3249 963 c9 -17 -1 -36 -67 -126 -42 -58 -85 -110 -96 -114 -17 -8
-15 -11 16 -35 34 -26 35 -26 31 -5 -3 15 20 54 77 130 64 86 85 108 101 104
10 -3 19 -4 19 -3 0 2 -21 18 -46 36 -36 25 -44 28 -35 13z"/>
<path d="M4788 879 c-44 -23 -60 -49 -56 -91 4 -43 41 -68 114 -75 66 -6 99
-22 109 -53 8 -26 -19 -70 -43 -71 -11 0 -13 -2 -4 -6 8 -3 27 7 43 23 22 21
29 37 29 64 0 51 -25 70 -96 76 -78 7 -114 22 -125 52 -18 47 37 96 81 72 22
-12 27 -1 8 18 -15 15 -15 15 -60 -9z"/>
<path d="M3485 786 c8 -20 16 -69 16 -113 1 -43 4 -107 8 -142 l6 -63 90 102
c50 56 105 112 122 125 l33 22 -36 11 c-30 9 -33 8 -23 -4 9 -11 8 -19 -4 -36
-26 -39 -145 -163 -150 -158 -3 3 -7 56 -8 119 -3 96 -1 115 13 125 15 11 12
14 -20 26 -20 7 -43 15 -49 17 -10 4 -9 -4 2 -31z"/>
<path d="M4435 723 c64 -8 76 -14 90 -45 23 -57 -10 -106 -75 -109 -33 -2 -34
-2 -5 -6 63 -8 76 -15 101 -56 33 -51 41 -57 79 -56 25 0 27 2 10 8 -11 4 -31
28 -46 52 -14 24 -35 49 -46 54 -21 11 -21 11 3 38 31 36 30 71 -1 102 -20 21
-33 25 -82 24 -32 -1 -44 -4 -28 -6z"/>
<path d="M4343 708 c-31 -10 -31 -11 -13 -27 11 -10 30 -62 50 -139 26 -102
29 -126 18 -139 -11 -14 -9 -15 22 -8 19 4 44 11 55 16 19 7 19 8 -2 8 -24 1
-28 11 -73 189 -21 80 -22 95 -10 102 13 8 13 10 0 9 -8 -1 -29 -6 -47 -11z"/>
<path d="M3953 538 c-2 -122 -5 -145 -20 -155 -15 -11 -12 -13 20 -13 l37 0 0
78 c0 42 3 112 5 155 5 75 4 77 -17 77 -23 0 -23 -2 -25 -142z"/>
<path d="M4065 673 c27 -3 53 -10 57 -16 5 -8 8 -6 8 6 0 14 -9 17 -57 15
l-58 -2 50 -3z"/>
<path d="M4830 628 c0 -26 22 -58 40 -58 11 0 20 5 20 10 0 6 -4 10 -10 10 -5
0 -18 10 -30 22 -11 12 -20 19 -20 16z"/>
<path d="M4100 552 c0 -6 -10 -14 -22 -18 -22 -7 -22 -7 -3 -14 15 -5 22 -2
28 13 4 11 5 22 2 25 -3 3 -5 0 -5 -6z"/>
<path d="M4115 381 c-6 -5 -21 -11 -35 -14 -18 -3 -15 -5 13 -6 27 -1 37 3 37
14 0 17 -3 18 -15 6z"/>
<path d="M8011 3167 c-5 -12 -19 -56 -31 -96 -12 -41 -24 -80 -27 -87 -13 -35
21 -5 111 96 l97 110 -71 0 c-64 0 -71 -2 -79 -23z"/>
<path d="M6520 3060 c8 -5 22 -10 31 -10 9 0 28 -12 43 -26 l26 -27 0 -360 c0
-348 -1 -361 -21 -394 -14 -22 -32 -36 -50 -40 -69 -13 -31 -23 92 -23 131 0
147 5 87 25 -18 6 -40 23 -50 41 -17 29 -18 58 -16 355 l3 324 180 -377 c99
-207 182 -375 185 -373 3 2 84 184 180 404 l175 401 3 -363 3 -362 -31 -27
c-17 -16 -41 -28 -55 -28 -14 0 -25 -4 -25 -10 0 -6 62 -10 165 -10 103 0 165
4 165 10 0 6 -7 10 -15 10 -30 0 -72 29 -84 57 -8 21 -11 129 -9 387 l3 358
28 24 c15 13 37 24 47 24 10 0 22 5 25 10 4 7 -30 10 -105 8 l-112 -3 -157
-357 c-85 -197 -158 -358 -161 -358 -3 0 -82 161 -176 358 l-171 357 -109 3
c-75 1 -104 -1 -94 -8z"/>
<path d="M8450 2605 c0 -372 -2 -384 -63 -410 -30 -13 -24 -14 78 -14 103 1
108 1 78 15 -60 26 -64 45 -61 325 l3 251 235 -306 c129 -168 240 -306 247
-306 10 0 13 69 13 338 1 370 1 371 61 403 l34 18 -110 0 c-102 0 -108 -1 -78
-14 62 -27 64 -34 61 -319 l-3 -257 -234 306 c-128 168 -240 305 -247 305 -12
0 -14 -58 -14 -335z"/>
<path d="M10145 2934 c-11 -2 -51 -6 -90 -9 -68 -7 -69 -7 -38 -20 63 -26 63
-29 63 -355 0 -326 0 -327 -63 -354 -29 -13 -20 -14 108 -14 128 0 137 1 108
14 -63 27 -63 25 -63 380 0 364 -8 334 88 334 77 0 126 -15 168 -52 47 -42 66
-82 66 -140 0 -100 -85 -174 -191 -166 -31 2 -71 11 -88 20 -26 13 -33 13 -33
3 0 -21 23 -34 96 -50 109 -25 130 -52 178 -227 9 -31 28 -70 42 -87 24 -29
30 -31 87 -30 34 1 52 4 39 6 -32 6 -56 50 -75 140 -21 96 -51 151 -100 183
l-38 24 37 13 c81 28 144 104 144 173 0 70 -57 142 -140 179 -73 32 -217 49
-305 35z"/>
<path d="M9503 2915 c-6 -11 -70 -152 -142 -313 -72 -161 -145 -313 -162 -338
-20 -29 -47 -53 -73 -65 l-41 -19 110 0 c96 0 107 2 85 13 -37 19 -34 91 8
181 l32 68 35 -6 c20 -4 77 -27 127 -52 50 -24 105 -44 120 -44 25 0 32 -7 49
-45 24 -55 18 -82 -24 -100 -29 -13 -18 -14 113 -14 80 0 138 3 130 6 -52 19
-83 39 -95 62 -10 21 -135 347 -255 666 -7 19 -7 19 -17 0z m45 -338 c39 -107
72 -199 72 -206 0 -17 -44 -4 -132 39 -42 21 -94 44 -116 50 l-41 10 51 113
c28 61 57 129 66 150 8 20 18 37 21 37 3 0 39 -87 79 -193z"/>
<path d="M11142 2889 c-51 -117 -237 -529 -258 -570 -31 -63 -70 -107 -108
-124 -29 -12 -24 -13 74 -14 91 -1 102 1 80 12 -37 19 -37 66 3 162 32 80 32
80 68 78 20 -1 78 -22 129 -48 51 -25 108 -45 125 -45 29 0 34 -5 49 -45 23
-58 18 -76 -24 -97 -35 -18 -34 -18 110 -17 114 1 138 3 113 11 -61 20 -77 50
-208 398 -69 184 -128 336 -130 338 -3 3 -13 -15 -23 -39z m57 -310 c38 -101
73 -192 77 -203 6 -16 3 -17 -26 -11 -19 4 -74 27 -124 51 -49 24 -98 44 -108
44 -10 0 -21 6 -24 13 -2 7 23 73 56 147 67 148 70 153 76 147 2 -2 35 -86 73
-188z"/>
<path d="M7760 2898 l45 -23 0 -325 0 -325 -45 -23 -45 -22 260 2 259 3 8 39
c11 51 4 69 -12 35 -19 -41 -54 -51 -192 -57 l-128 -5 0 177 0 176 95 0 c101
0 137 -10 153 -44 8 -16 11 -3 11 59 0 62 -3 75 -11 59 -16 -34 -52 -44 -153
-44 l-95 0 0 160 0 160 104 0 c144 0 163 -5 186 -49 l19 -36 1 53 0 52 -252 0
-252 0 44 -22z"/>
<path d="M6500 1990 l0 -40 3260 0 3260 0 0 40 0 40 -3260 0 -3260 0 0 -40z"/>
<path d="M12807 1903 c-3 -5 -17 -47 -31 -96 -15 -48 -29 -94 -32 -102 -14
-36 19 -8 104 90 51 57 92 107 92 110 0 8 -128 6 -133 -2z"/>
<path d="M6545 1774 c72 -27 69 -13 76 -342 5 -276 7 -301 28 -354 26 -68 86
-132 149 -161 70 -32 219 -31 284 1 64 32 116 85 147 151 26 56 26 57 29 353
3 297 3 297 27 320 13 12 38 28 57 34 29 11 17 13 -97 13 l-130 0 45 -22 c25
-12 51 -33 58 -47 9 -19 12 -93 10 -305 -3 -260 -5 -283 -24 -325 -48 -104
-131 -160 -238 -160 -107 0 -186 61 -215 165 -7 25 -11 150 -11 331 0 328 -2
321 75 348 38 14 29 15 -135 15 -165 0 -173 -1 -135 -15z"/>
<path d="M7460 1325 c0 -372 -1 -382 -62 -406 l-33 -13 58 -4 c32 -2 81 -2
110 0 l52 3 -36 16 c-57 26 -60 44 -57 324 l3 250 233 -305 c129 -168 240
-306 248 -308 12 -3 14 48 14 335 0 318 1 340 20 370 11 18 31 35 45 39 54 14
20 24 -80 24 -107 0 -128 -7 -76 -27 59 -22 62 -34 59 -316 l-3 -256 -233 305
c-128 167 -239 304 -247 304 -13 0 -15 -48 -15 -335z"/>
<path d="M10178 1653 c-43 -2 -78 -8 -78 -13 0 -6 8 -10 19 -10 10 0 30 -9 45
-21 l26 -20 0 -309 c0 -170 -3 -316 -6 -325 -4 -9 -25 -25 -48 -35 l-41 -19
145 1 c129 0 142 1 115 13 -68 30 -66 17 -63 381 l3 329 75 3 c93 4 146 -15
194 -68 38 -42 52 -90 43 -147 -8 -45 -27 -75 -73 -110 -32 -24 -46 -28 -103
-28 -42 0 -78 6 -98 17 -25 12 -33 13 -33 3 0 -21 22 -33 97 -50 106 -24 125
-50 177 -237 22 -79 58 -108 134 -108 l57 1 -33 14 c-36 16 -43 29 -72 147
-24 97 -56 150 -106 176 l-36 18 39 12 c55 16 118 74 138 126 14 36 15 50 5
87 -16 60 -79 120 -155 149 -63 24 -196 32 -367 23z"/>
<path d="M11001 1649 c-89 -18 -161 -96 -161 -175 0 -90 42 -146 180 -244 124
-88 150 -118 150 -173 0 -58 -31 -104 -85 -128 -102 -45 -195 29 -195 155 0
46 -16 19 -30 -52 -12 -57 -11 -64 5 -82 10 -11 42 -29 72 -40 143 -54 293 10
321 138 21 93 -14 145 -180 263 -138 98 -171 161 -131 246 12 25 29 41 61 55
82 37 157 7 197 -79 9 -19 19 -32 22 -29 3 3 2 34 -1 69 l-7 64 -57 6 c-31 4
-70 8 -87 11 -16 2 -50 0 -74 -5z"/>
<path d="M8190 1640 c0 -5 9 -10 20 -10 12 0 32 -11 45 -25 l25 -24 0 -309 c0
-301 -1 -309 -21 -328 -11 -10 -33 -24 -47 -31 -22 -9 -2 -11 118 -11 l145 -1
-42 19 c-62 28 -65 46 -61 378 l3 284 28 24 c15 13 37 24 48 24 11 0 17 5 14
10 -4 6 -62 10 -141 10 -83 0 -134 -4 -134 -10z"/>
<path d="M8575 1640 c-3 -5 3 -10 14 -10 31 0 87 -63 124 -138 19 -37 85 -187
148 -334 63 -147 117 -264 120 -260 4 4 61 147 128 317 131 331 168 401 221
412 16 3 27 9 24 14 -7 13 -204 11 -204 -1 0 -5 6 -10 14 -10 31 0 48 -31 42
-73 -9 -54 -188 -509 -197 -500 -15 16 -198 459 -204 494 -8 41 7 79 30 79 8
0 15 5 15 10 0 6 -51 10 -134 10 -79 0 -137 -4 -141 -10z"/>
<path d="M9465 1640 c-3 -5 3 -10 14 -10 11 0 33 -11 48 -24 l28 -24 3 -294
c2 -185 -1 -305 -7 -322 -7 -17 -26 -33 -53 -46 l-43 -19 261 0 261 -1 7 38
c10 60 8 62 -28 26 l-34 -34 -136 0 -136 0 0 170 0 170 103 0 c106 0 124 -5
145 -45 9 -16 11 -2 11 65 0 66 -3 79 -10 59 -14 -38 -48 -49 -154 -49 l-95 0
0 160 0 160 121 0 c67 0 129 -5 140 -11 12 -6 27 -25 34 -42 l14 -32 1 58 0
57 -244 0 c-153 0 -247 -4 -251 -10z"/>
<path d="M11370 1640 c0 -5 8 -10 19 -10 10 0 30 -9 45 -21 l26 -20 0 -309 c0
-170 -3 -316 -6 -325 -4 -9 -25 -25 -48 -35 l-41 -19 143 0 c93 -1 141 2 137
9 -3 6 -14 10 -24 10 -10 0 -27 10 -39 23 -22 23 -22 29 -22 331 l0 307 25 24
c13 14 33 25 45 25 11 0 20 5 20 10 0 6 -53 10 -140 10 -87 0 -140 -4 -140
-10z"/>
<path d="M11776 1564 c-10 -47 -15 -88 -12 -91 2 -3 13 12 24 34 39 74 104
113 192 113 l50 0 0 -324 c0 -178 -3 -332 -6 -341 -4 -9 -25 -25 -48 -35 l-41
-19 145 1 c120 0 140 2 118 11 -14 7 -36 21 -47 31 -20 19 -21 27 -21 349 l0
330 69 -5 c87 -6 131 -33 172 -102 l31 -51 -6 43 c-4 23 -11 65 -17 92 l-11
50 -287 0 -288 0 -17 -86z"/>
<path d="M12510 1640 c0 -5 8 -10 19 -10 10 0 30 -9 45 -21 l26 -20 0 -309 c0
-170 -3 -316 -6 -325 -4 -9 -25 -25 -48 -35 l-41 -19 257 0 c141 -1 259 2 261
7 3 4 8 27 12 52 l7 44 -34 -37 -35 -37 -137 0 -136 0 0 170 0 170 103 0 c106
0 124 -5 145 -45 9 -16 11 -2 11 65 0 66 -3 79 -10 59 -14 -38 -48 -49 -154
-49 l-95 0 0 160 0 160 121 0 c66 0 129 -5 140 -10 11 -6 26 -25 33 -43 l14
-32 1 58 1 57 -250 0 c-160 0 -250 -4 -250 -10z"/>
</g>
</svg>
