<?xml version="1.0" encoding="utf-8"?>
<!-- Generator: Adobe Illustrator 24.3.0, SVG Export Plug-In . SVG Version: 6.00 Build 0)  -->
<svg version="1.1" id="Calque_1" xmlns="http://www.w3.org/2000/svg" xmlns:xlink="http://www.w3.org/1999/xlink" x="0px" y="0px"
	 viewBox="0 0 581.7 127" style="enable-background:new 0 0 581.7 127;" xml:space="preserve">
<style type="text/css">
	.st0{fill:#000000;}
</style>
<g>
	<polygon class="st0" points="205.5,91.5 200.5,95 572.4,95 577.4,91.5 	"/>
	<g>
		<path class="st0" d="M478.3,99.4l-3.8,5.8h18.1c0,0,1.8-0.2,1.3,0.8l-1.1,1.7c0,0-0.4,0.7-1.6,0.6h-18.7l-10.7,16.2h11.5l6.8-10.1
			h6.6c0,0,1.5-0.2,1.2,1.6l-5.6,8.5h10.2l6-9c0,0,0.3-0.4,0.3-0.9c0-0.5-0.4-1.4-1.4-1.9c0,0-0.3-0.2,0.1-0.3c0,0,4.8-0.1,6.3-3.4
			l3.4-5c0,0,0.9-2.2-0.5-3.3c0,0-1.3-1.4-4.8-1.3H478.3z"/>
		<path class="st0" d="M442.3,99.4l-3.5,5.3h19.6c0,0,0.9,0.3,0.5,1l-1.5,2.3c0,0-0.5,0.8-1.7,0.7h-19.5l-10.4,15.8h11.5l6.9-10.5
			h14.6c0,0,5.5,0.3,8.1-3.7l4.4-6.6c0,0,2-3.9-4.4-4.3H442.3z"/>
		<path class="st0" d="M514.2,99.4l-16.6,25h11l16.6-25H514.2z"/>
		<path class="st0" d="M528.2,99.4l7.5,10.9l-20.5,14.2h14.3l10.8-7.7l5.5,7.7h11.6l-8.8-12.3c0,0-0.2-0.3,0.3-0.6l17.6-12.2h-12.9
			l-9.2,6.1c0,0-0.3,0.2-0.5-0.1l-4.5-6H528.2z"/>
	</g>
	<g>
		<path class="st0" d="M297.4,42.3h-53.9c0,0-5.8-0.9-11.1,5.1l-19.8,29.9c0,0-2.4,4.4,0.9,7.2c0,0,2.1,2.3,6.4,2.4h38.6
			c0,0,8.3,0.6,14.5-8l13.7-20.3l-30.9,0.1l-6.6,9.9h9.3c0,0,0.9,0.3,0.2,1.3l-1.8,2.4c0,0-3.1,3.4-7.1,3.3h-12.4c0,0-2.6-0.9-1.5-3
			l10.6-16.1c0,0,2.1-3.6,7.4-3.7h36.6L297.4,42.3z"/>
		<path class="st0" d="M304.4,42.5l-6.8,10.3h32.3c0,0,3.1-0.3,2.3,1.4l-2,3c0,0-0.6,1.3-2.9,1.1H294l-19.1,28.8h20.5l12.1-18h11.8
			c0,0,2.7-0.4,2.2,2.9l-10,15.2h18.1l10.6-16c0,0,0.6-0.8,0.6-1.5c0-0.9-0.8-2.5-2.4-3.4c0,0-0.5-0.4,0.1-0.5c0,0,8.5-0.2,11.2-6
			l6-9c0,0,1.6-4-0.8-6c0,0-2.4-2.6-8.6-2.3H304.4z"/>
		<path class="st0" d="M365.4,42.4l-6.9,10.4h34.8c0,0,2.2,0.3,1.8,1.7l-1.8,2.9c0,0-0.5,1.1-1.9,0.9h-26.8c0,0-7.4-0.1-13.4,6.8
			l-14.7,22.2h19.8l9.5-14.2c0,0,2.7-4,6.4-4.1h12.9c0,0,0.6,0.2,0,0.9l-11.6,17.5h20.9l22.8-34.5c0,0,2.5-3.7,0-7
			c0,0-2.4-3.4-7.6-3.3H365.4z"/>
		<path class="st0" d="M431.2,42.3l-29.7,44.9h20.7l22.3-33.7c0,0,0.5-0.6,1.3-0.6h15.4c0,0,3.1,0.1,1.7,3.2l-20.6,31.2h21.2
			l23.5-35.4c0,0,2.5-3.5-0.6-6.8c0,0-2.8-2.8-8.4-2.7L431.2,42.3z"/>
		<path class="st0" d="M549.6,42.3h-49.3l-6.9,10.5h30.7v0h7.1c0,0,3.1,0.1,1.7,3.2l-10,15.2c0,0-2,3.6-8,4.2h-15.6l11.4-17h-21
			l-19,28.7h53.2c0,0,10.2-0.3,16.6-11.3l16.1-24.4C556.5,51.3,561.2,43.4,549.6,42.3z"/>
	</g>
	<g>
		<path class="st0" d="M127.1,2.6c-5.7,0-10.5,1.5-14.4,4.5L74.6,36.6h15.1l9.4-7.3h20.5l-0.3,7.3h15.1l1-29.5
			C135.6,4.1,132.8,2.6,127.1,2.6z M119.8,22.5H108l12.3-10.9L119.8,22.5z"/>
		<path class="st0" d="M89.8,4.3c-1.5-1.2-4.1-1.8-7.9-1.8c-1.3,0-2.7,0.1-4,0.2C73,3.2,69.3,4.6,66.6,6.9L44.4,26.3l4.5-19.4
			c0.5-2.3-1.4-3.7-5.7-4.2c-1.2-0.1-2.5-0.2-3.7-0.2c-3.8,0-7.2,0.6-10.3,1.8c-3.1,1.2-5.3,2.7-6.5,4.6L4.3,36.6h13.8l16-24.1
			L31,32.8c-0.5,3.1,1.7,4.6,6.5,4.6c3.8,0,7.1-0.8,9.8-2.5c1-0.6,1.9-1.2,2.9-2.1L74,12.5l-16,24.1h13.7L90.2,8.9
			C91.4,7,91.3,5.5,89.8,4.3z"/>
		<path class="st0" d="M422.2,28.9c-0.6-0.4-0.5-1.3,0.4-2.5l9.8-14.8c0.9-0.9,2.4-1.4,4.4-1.5h26.2l4.8-7.2h-28.2
			c-6,0-10.5,0.5-13.5,1.6c-3,1.1-5.5,3.1-7.4,6l-12.3,18.5c-2.3,3.5-1,5.8,4,6.9c1.5,0.4,3.1,0.6,4.7,0.6h30.4l4.8-7.3H425
			C423.5,29.3,422.6,29.2,422.2,28.9z"/>
		<polygon class="st0" points="506.3,3 497.6,16 477.3,16 485.9,3 471.5,3 449.2,36.6 463.7,36.6 472.4,23.3 492.8,23.3 484,36.6 
			498.5,36.6 520.8,3 		"/>
		<polygon class="st0" points="325.5,3 303.2,36.6 317.7,36.6 340,3 		"/>
		<path class="st0" d="M374.2,3h-16.5L334,16.3l-2.7,1.5c-1,0.7-1.7,1.3-2,1.8c-0.5,0.7-0.3,1.8,0.4,3.5l6.1,13.5h16.6L345,19.5
			L374.2,3z"/>
		<path class="st0" d="M293,2.6c-5.7,0-10.5,1.5-14.4,4.5l-38.1,29.5h15.1l9.4-7.3h20.5l-0.3,7.3h15.1l1-29.5
			C301.5,4.1,298.7,2.6,293,2.6z M285.7,22.5h-11.9l12.3-10.9L285.7,22.5z"/>
		<path class="st0" d="M193.4,3h-33.8l-4.8,7.2h19.8v0h9.1c0.4,0,0.7,0,0.9,0.1c2.2,0.2,3,0.8,2.3,2l-2,3.1
			c-0.8,1.2-2.5,1.9-5.1,1.9h-0.8l0.1,0h-28.8l-12.9,19.4h14.5l8.4-12.7c0.9-0.8,1.5,0.2,1.5,0.2l6.9,12.5h17.1l-7.6-13.4l2.2,0.1
			c0.6,0,1.5,0,2.6-0.1c2.8-0.2,5.5-0.7,8-1.6c3.6-1.2,6.1-3,7.5-5.1l4.5-6.7C205.8,5.2,202.7,3,193.4,3z"/>
		<path class="st0" d="M245.2,3h-33.8l-4.8,7.2h19.8v0h9.1c0.4,0,0.7,0,0.9,0.1c2.2,0.2,3,0.8,2.2,2l-2,3.1
			c-0.8,1.2-2.5,1.9-5.1,1.9h-0.8l0.1,0H202l-12.9,19.4h14.5l8.4-12.7c0.9-0.8,1.5,0.2,1.5,0.2l6.9,12.5h17.1l-7.6-13.4l2.2,0.1
			c0.6,0,1.5,0,2.6-0.1c2.8-0.2,5.5-0.7,8-1.6c3.6-1.2,6.1-3,7.5-5.1l4.5-6.7C257.6,5.2,254.5,3,245.2,3z"/>
		<path class="st0" d="M381,16h-14.5l-9,13.6c-3.1,4.7,0.7,7,11.4,7h27.8l4.8-7.3h-25.7c-2.4-0.1-3.2-0.9-2.2-2.2l2.5-3.7h20.5
			l4.8-7.3L381,16L381,16z M389.2,3c-7.9,0-13.8,1.9-17.6,5.8c-0.5,0.5-0.9,1-1.2,1.4h22.2l0,0h21.7l4.8-7.2H389.2z"/>
	</g>
</g>
</svg>
