<?xml version="1.0" encoding="utf-8"?>
<!-- Generator: Adobe Illustrator 24.3.0, SVG Export Plug-In . SVG Version: 6.00 Build 0)  -->
<svg version="1.1" id="Calque_1" xmlns="http://www.w3.org/2000/svg" xmlns:xlink="http://www.w3.org/1999/xlink" x="0px" y="0px"
	 viewBox="0 0 581.7 127" style="enable-background:new 0 0 581.7 127;" xml:space="preserve">
<style type="text/css">
	.st0{fill:#000000;}
	.st1{fill:#D76A3E;}
	.st2{fill:#CECECC;}
	.st3{fill:#C77A61;}
	.st4{fill:#B9A193;}
	.st5{fill:#B78D79;}
	.st6{fill:#BEB5AF;}
</style>
<g>
	<path class="st0" d="M245.7,62.2l-4,0l3.6-6.4l-1.3-0.7l-3.6,6.4L207.3,8.5l8.1,0l0-1.5l-8.3,0l2.1-3.7l-1.3-0.7l-2,3.6L202,0
		l-1.3,0.8l3.9,6.2l-63.1,0l3.4-6.1l-1.3-0.7l-3.4,6.1L138,2.6l-1.3,0.8l2.2,3.6l-6.9,0l0,1.5l6.9,0l-29.7,52.8l-3.3-5.3l-1.3,0.8
		l3.4,5.5l-4.3,0l0,1.5l4.2,0l-3.2,5.7l1.3,0.7l3.3-5.9l33.1,53.2l-8.8,0l0,1.5l8.8,0l-2.1,3.7l1.3,0.7l2.1-3.7l4.6,7.4l1.3-0.8
		l-4.6-7.4l62.8,0.2l-3.7,6.5l1.3,0.7l3.7-6.5l2.1,3.4l1.3-0.8l-2.1-3.3l6.4,0l0-1.5l-6.5,0l29.9-53.1l3.7,5.9l1.3-0.8l-3.6-5.8
		l3.9,0L245.7,62.2z M174.7,61.5L141.6,8.4l63,0L174.7,61.5z M205.9,9.1L239,62.2l-63,0L205.9,9.1z M173.4,62.2l-62.9,0l29.9-53.1
		L173.4,62.2z M173.5,63.7l-29.8,52.9l-33-53L173.5,63.7z M174.8,64.5l33.1,53.1l-62.9-0.2L174.8,64.5z M176,63.7l63.1,0l-29.9,53.1
		L176,63.7z"/>
	<path class="st1" d="M193.2,13.3h-39c-1.7,0-2.8,1.9-1.9,3.3l20.4,32.8c0.9,1.4,2.9,1.4,3.8-0.1l18.5-32.8
		C195.9,15.1,194.9,13.3,193.2,13.3"/>
	<path class="st2" d="M122,57.9h39c1.7,0,2.8-1.9,1.9-3.3l-20.4-32.8c-0.9-1.4-2.9-1.4-3.8,0.1l-18.5,32.8
		C119.3,56.1,120.3,57.9,122,57.9"/>
	<path class="st3" d="M187.8,57.9h39c1.7,0,2.8-1.9,1.9-3.3l-20.4-32.8c-0.9-1.4-2.9-1.4-3.8,0.1l-18.5,32.8
		C185,56.1,186.1,57.9,187.8,57.9"/>
	<path class="st4" d="M156.6,112.6h39c1.7,0,2.8-1.9,1.9-3.3L177,76.5c-0.9-1.4-2.9-1.4-3.8,0.1l-18.5,32.8
		C153.8,110.9,154.9,112.6,156.6,112.6"/>
	<path class="st5" d="M226.8,68.1h-39c-1.7,0-2.8,1.9-1.9,3.3l20.4,32.8c0.9,1.4,2.9,1.4,3.8-0.1l18.5-32.8
		C229.5,69.9,228.4,68.1,226.8,68.1"/>
	<path class="st6" d="M162,68.1h-39c-1.7,0-2.8,1.9-1.9,3.3l20.4,32.8c0.9,1.4,2.9,1.4,3.8-0.1l18.5-32.8
		C164.7,69.9,163.7,68.1,162,68.1"/>
	<g>
		<g>
			<rect x="262.4" y="82.3" class="st0" width="1.8" height="1.8"/>
			<path class="st0" d="M264.9,85.6c-2.2,0-3.9,1.6-3.9,3.9c0,2.3,1.6,4,3.9,4c2.3,0,3.9-1.7,3.9-3.9
				C268.7,87.3,267.1,85.6,264.9,85.6z M264.9,91.9c-1.2,0-2-1-2-2.4c0-1.3,0.7-2.3,1.9-2.3c1.2,0,2,1,2,2.4
				C266.9,91,266.1,91.9,264.9,91.9z"/>
			<rect x="265.5" y="82.3" class="st0" width="1.8" height="1.8"/>
			<path class="st0" d="M272.1,92.4c0,1.6-0.8,2.3-2.3,2.3v1.6c2.8,0,4.1-1.2,4.1-4.1v-5.9h-1.8V92.4z"/>
			<rect x="282.9" y="82.9" class="st0" width="1.8" height="1.8"/>
			<path class="st0" d="M302.5,87.5c-2.2,0-3.7,1.6-3.7,3.7c0,0.1,0,0.3,0,0.4l0,0.1H297h-0.4h-2.8h-0.4h-2.9h-0.4h-2.8h-0.5h-2.7
				c0.3-0.3,0.4-0.9,0.4-1.9v-3.6h-1.8v3.7c0,0.6-0.1,1-0.2,1.2c-0.2,0.4-0.6,0.6-1.1,0.6h-1.1h-0.6h-0.5c-0.7,0-1.2-0.1-1.4-0.3
				c-0.3-0.2-0.5-0.8-0.5-1.6v-6.8h-1.8v7.5c0,0.9,0.2,1.6,0.7,2.1c0.5,0.6,1.1,0.8,2,0.8h1.6h0.6h6.5h0.5h2.8h0.4h2.9h0.4h2.8h0.4
				h2.5c0.7,1,1.7,1.4,3,1.4c2.2,0,3.7-1.6,3.7-3.7C306.2,89.1,304.7,87.5,302.5,87.5z M302.6,93.3c-1.1,0-1.9-0.9-1.9-2.1
				c0-1.2,0.7-2.1,1.8-2.1c1.1,0,1.8,0.9,1.8,2.2C304.3,92.5,303.6,93.3,302.6,93.3z"/>
			<rect x="314.3" y="84" class="st0" width="0.9" height="1"/>
			<rect x="312.6" y="84" class="st0" width="0.9" height="1"/>
			<path class="st0" d="M328.5,87.5c-1.6,0-2.6,1.1-2.6,3c0,0.9,0.3,1.7,0.9,2.3h-2.4H324h-2.6h-0.3h-2.9v0h-1.5
				c-0.5,0-0.8-0.4-0.8-1.1l0-5h-0.8v0.8c-0.6-0.6-1.3-0.9-2-0.9c-0.6,0-1,0.2-1.4,0.6c-0.5,0.5-0.8,1.2-0.8,2.2
				c0,1.4,0.6,2.2,1.8,2.2h2.4c0,0.5,0.1,0.9,0.4,1.3c0.3,0.4,0.7,0.6,1.2,0.6h1.5h0.3h2.6h0.3h2.6h0.3h4.3c1.6,0,2.6-1.1,2.6-3.1
				c0-0.8-0.2-1.5-0.7-2.1C330,87.8,329.3,87.5,328.5,87.5z M312.9,90.9c-0.7,0-1.1-0.5-1.1-1.4c0-0.7,0.2-1.3,0.5-1.7
				c0.3-0.4,0.7-0.6,1.1-0.6c0.4,0,0.7,0.1,1,0.3c0.3,0.2,0.5,0.5,0.6,0.8l0,2.6H312.9z M329.9,92.3c-0.3,0.4-0.7,0.6-1.2,0.6
				c-0.5,0-0.9-0.2-1.2-0.6c-0.4-0.4-0.6-1-0.6-1.8c0-0.8,0.2-1.4,0.5-1.8c0.3-0.4,0.7-0.6,1.2-0.6c0.5,0,0.9,0.2,1.2,0.6
				c0.4,0.4,0.6,1,0.6,1.8C330.4,91.3,330.2,91.9,329.9,92.3z"/>
			<path class="st0" d="M355.4,83c0,3.4,0,6.2,0,8.4c0,0.9-0.4,1.3-1.3,1.3h-1.5h-0.3h-2.6h-0.3h-2.6h-0.3h-3.1
				c-0.3,0-0.6-0.1-0.9-0.4c1.6-1.2,2.7-2.3,3.5-3.6c-0.4-0.4-0.8-0.7-1.4-1c-0.9-0.5-1.9-0.7-3-0.7c-1.1,0-2.1,0.2-2.9,0.6
				c-0.5,0.2-0.9,0.5-1.2,0.7v1.2c1.4,0.1,2.8,1,4.1,2.6c-0.9,0.5-1.7,0.7-2.4,0.7l-2.6,0v0h-1.5c-0.5,0-0.9-0.5-0.9-1.1l-0.1-8.6
				h-0.9l0,8.8c0,0.6,0.2,1,0.6,1.3c0.3,0.3,0.7,0.4,1,0.4h1.7h0.3h2.3c0.9,0,1.8-0.3,2.8-0.9c0.5,0.6,1,0.9,1.6,0.9h2.8h0.3h2.6
				h0.3h2.6h0.3h1.7c0.7,0,1.1-0.2,1.5-0.6c0.3-0.4,0.5-0.9,0.5-1.5c0-3.4,0-6.2,0-8.5H355.4z M342.2,91.8c-1.1-1.5-2.4-2.5-4.1-3
				c0.7-0.4,1.2-0.6,1.6-0.8c0.6-0.2,1.2-0.3,2-0.3c0.8,0,1.5,0.1,2.1,0.4c0.3,0.1,0.7,0.4,1.3,0.7
				C344.6,89.9,343.6,90.8,342.2,91.8z"/>
			<polygon class="st0" points="358.4,83 358.5,93.6 359.4,93.6 359.3,83 			"/>
			<path class="st0" d="M367.3,90.8c0-1.2,0.5-1.9,1.6-1.9c0.6,0,1,0.2,1.3,0.6l0.4-0.7c-0.5-0.5-1.1-0.7-1.7-0.7
				c-1.5,0-2.5,1-2.5,2.6c0,0.6,0.5,1.5,0.9,1.9h-1.8l-0.5,0.9h5.7v-0.9h-1.3C368.2,92.7,367.3,91.9,367.3,90.8z"/>
			<rect x="384.9" y="85" class="st0" width="0.9" height="1.1"/>
			<rect x="400.2" y="95.2" class="st0" width="0.9" height="1.1"/>
			<path class="st0" d="M409.7,83c0,3.4,0,6.2,0,8.4c0,0.9-0.4,1.3-1.3,1.3H407h-0.3h-2.9v0h-1.2c-0.4,0-0.7-0.2-1-0.5
				c-0.3-0.4-0.5-0.9-0.5-1.4c0-0.7,0-1.8,0-3.2h-0.9c0,1.4,0,2.7,0,3.8c0,0.4-0.2,0.8-0.6,1c-0.3,0.2-0.6,0.3-0.9,0.3l-1.2,0v0
				h-2.9h-0.3h-2.6h-0.3h-2.9v0h-1.2c-0.4,0-0.7-0.2-1-0.5c-0.3-0.4-0.5-0.9-0.5-1.4c0-0.7,0-1.8,0-3.2h-0.9c0,1.4,0,2.7,0,3.8
				c0,0.4-0.2,0.8-0.6,1c-0.3,0.2-0.6,0.3-0.9,0.3l-1.2,0v0h-2.9h-0.3h-2.9v0h-1.5c-0.5,0-0.9-0.5-0.9-1.1l-0.1-8.6h-0.9l0,8.8
				c0,0.6,0.2,1,0.6,1.3c0.3,0.3,0.7,0.4,1,0.4h1.7h0.3h2.6h0.3h2.6h0.3h1.5c0.4,0,0.8-0.1,1.2-0.3c0.4-0.2,0.8-0.6,0.9-1.2
				c0.1,0.4,0.2,0.7,0.5,1c0.3,0.3,0.7,0.5,1.2,0.5h1.1h0.3h2.6h0.3h2.6h0.3h2.6h0.3h1.5c0.4,0,0.8-0.1,1.2-0.3
				c0.4-0.2,0.8-0.6,0.9-1.2c0.1,0.4,0.2,0.7,0.5,1c0.3,0.3,0.7,0.5,1.2,0.5h1.1h0.3h2.6h0.3h1.7c0.7,0,1.1-0.2,1.5-0.6
				c0.3-0.4,0.5-0.9,0.5-1.5c0-3.4,0-6.2,0-8.5H409.7z"/>
			<polygon class="st0" points="412.8,83 412.8,93.6 413.7,93.6 413.6,83 			"/>
			<path class="st0" d="M425.9,83l0.1,9.4c0,1-0.3,1.9-1,2.6c-0.7,0.7-1.5,1.1-2.4,1.1c-0.9,0-1.7-0.4-2.4-1.1c-0.7-0.7-1-1.6-1-2.6
				l0-3.3h-0.9c0,1.9,0,3,0,3.3c0,1.3,0.4,2.4,1.2,3.2c0.8,0.9,1.8,1.4,3,1.4c1.2,0,2.1-0.5,3-1.3c0.8-0.9,1.2-2,1.2-3.3l-0.1-9.5
				H425.9z"/>
			<rect x="451.4" y="84.7" class="st0" width="0.9" height="1.1"/>
			<rect x="469.2" y="83.4" class="st0" width="0.9" height="1"/>
			<rect x="470.1" y="85" class="st0" width="0.9" height="1.1"/>
			<rect x="468.4" y="85" class="st0" width="0.9" height="1.1"/>
			<path class="st0" d="M473.5,87.6c0,2.3,0,3.6,0,4c0,0.4-0.1,0.8-0.4,1c-0.2,0.2-0.5,0.3-0.9,0.3c-0.6,0-1.1-0.2-1.5-0.6
				c-0.4-0.4-0.6-0.9-0.6-1.5c0-1.3,0-2.2,0-2.8h-0.9c0,1.9,0,3.1,0,3.5c0,0.8-0.5,1.3-1.2,1.3c-1.4,0-2-0.7-2.1-2
				c0-1.8,0-2.8,0-2.8h-0.8l0,4.6h-2.5h-0.3h-2.6h-0.3h-2.6h-0.3h-3.1c-0.3,0-0.6-0.1-0.9-0.4c1.6-1.2,2.7-2.3,3.5-3.6
				c-0.4-0.4-0.8-0.7-1.4-1c-0.9-0.5-1.9-0.7-3-0.7c-1.1,0-2.1,0.2-2.9,0.6c-0.5,0.2-0.9,0.5-1.2,0.7v1.2c1.4,0.1,2.8,1,4.1,2.6
				c-0.9,0.5-1.7,0.7-2.4,0.7l-2.3,0v0h-2.9h-0.3h-2.6h-0.3h-2.6H438h-2.6h-0.3h-2.9v0h-1.5c-0.5,0-0.9-0.5-0.9-1.1l-0.1-8.6h-0.9
				l0,8.8c0,0.6,0.2,1,0.6,1.3c0.3,0.3,0.7,0.4,1,0.4h1.7h0.3h2.6h0.3h2.6h0.3h2.6h0.3h2.6h0.3h2.6h0.3h2.3c0.9,0,1.8-0.3,2.8-0.9
				c0.5,0.6,1,0.9,1.6,0.9h2.8h0.3h2.6h0.3h2.6h0.3h3.3l0-1.2l0,0c0.4,0.9,1.1,1.3,2.1,1.3c1,0,1.7-0.5,2-1.5c0.4,1,1.1,1.5,2.2,1.5
				c1.2,0,2-0.9,2-2.1c0-0.2,0-1.6,0-4H473.5z M452.2,91.8c-1.1-1.5-2.4-2.5-4.1-3c0.7-0.4,1.2-0.6,1.6-0.8c0.6-0.2,1.2-0.3,2-0.3
				c0.8,0,1.5,0.1,2.1,0.4c0.3,0.1,0.7,0.4,1.3,0.7C454.6,89.9,453.6,90.8,452.2,91.8z"/>
			<polygon class="st0" points="476.5,83 476.6,93.6 477.5,93.6 477.4,83 			"/>
			<path class="st0" d="M477.4,81.6c-0.6,0-0.9-0.4-0.9-0.8c0-0.5,0.2-0.8,0.7-0.8c0.2,0,0.5,0.1,0.6,0.3L478,80
				c-0.2-0.2-0.5-0.4-0.8-0.4c-0.7,0-1.1,0.5-1.1,1.2c0,0.3,0.1,0.6,0.3,0.8h-0.7l-0.2,0.5h2.7v-0.5H477.4z"/>
		</g>
		<g>
			
				<rect x="368.7" y="-7.4" transform="matrix(1.347284e-03 -1 1 1.347284e-03 267.8751 469.4321)" class="st1" width="0.5" height="216"/>
		</g>
		<g>
			<path class="st0" d="M284.7,18.8v55.7h-11.8V18.8H261v-7.9h35.8v7.9H284.7z"/>
			<path class="st0" d="M343.5,71.8c-3.1,2.4-7.5,3.6-13.3,3.6c-4.1,0-7.7-0.9-10.8-2.6c-3.1-1.8-5.6-4.1-7.7-7.1
				c-2-3-3.6-6.5-4.6-10.4c-1-3.9-1.5-8.1-1.5-12.6c0-4.3,0.5-8.4,1.6-12.4c1.1-3.9,2.6-7.4,4.7-10.4c2-3,4.6-5.4,7.7-7.2
				c3.1-1.8,6.7-2.7,10.8-2.7c3,0,5.5,0.3,7.7,1c2.1,0.6,4,1.5,5.5,2.6l-2.6,7c-0.9-0.6-2.1-1.1-3.4-1.5c-1.3-0.5-3-0.7-4.9-0.7
				c-2.7,0-5,0.7-6.9,2.1c-1.9,1.4-3.4,3.2-4.6,5.5c-1.2,2.2-2,4.8-2.5,7.8c-0.5,2.9-0.7,5.9-0.7,8.9c0,3.1,0.3,6.1,0.8,8.9
				c0.6,2.9,1.4,5.4,2.6,7.6c1.2,2.2,2.7,4,4.6,5.3c1.9,1.3,4.1,2,6.7,2c1.9,0,3.4-0.2,4.6-0.6c1.2-0.4,2.4-0.9,3.5-1.6L343.5,71.8z
				"/>
			<path class="st0" d="M397.5,71.8c-2,1.2-4.3,2.1-6.9,2.7s-6,0.9-10.3,0.9c-4.3,0-8.2-0.7-11.6-2.2s-6.4-3.6-8.8-6.4
				c-2.4-2.8-4.3-6.3-5.6-10.3c-1.3-4.1-2-8.8-2-14.2c0-5,0.7-9.6,2.1-13.6c1.4-4,3.3-7.4,5.8-10.2c2.5-2.8,5.5-4.9,8.9-6.4
				c3.4-1.5,7.3-2.2,11.4-2.2c3.7,0,6.8,0.3,9.4,1c2.6,0.6,4.8,1.5,6.6,2.5l-3.5,7.2c-1.1-0.6-2.5-1.2-4.2-1.7
				c-1.8-0.5-4.1-0.7-6.8-0.7c-5.5,0-9.8,2-13,5.9c-3.1,3.9-4.7,10.2-4.7,18.7c0,8.1,1.5,14.2,4.4,18.2c2.9,4.1,6.6,6.1,11.1,6.1
				c1.7,0,3.1-0.1,4.1-0.4c1-0.2,1.8-0.5,2.3-0.8V45.2h-9.2V38h20.4V71.8z"/>
			<path class="st0" d="M466.1,74.5c0-0.2-0.1-0.9-0.2-2.2c-0.1-1.3-0.3-3-0.5-5c-0.2-2-0.4-4.3-0.7-6.8c-0.2-2.5-0.5-5-0.7-7.6
				c-0.6-6.1-1.3-12.9-2-20.4c-0.1-1-0.2-2-0.2-2.9c0-1,0-1.8,0-2.4v-2.3h-0.2l-0.5,2.3c-0.1,0.7-0.3,1.5-0.6,2.4
				c-0.2,0.9-0.5,1.9-0.8,3c-2.2,7.5-4.1,14.2-5.9,20.2c-0.7,2.6-1.5,5.1-2.2,7.6c-0.7,2.5-1.4,4.7-2,6.7c-0.6,2-1.1,3.7-1.5,5
				c-0.4,1.4-0.6,2.2-0.7,2.4h-6.7c-0.1-0.2-0.4-1-0.7-2.4c-0.4-1.3-0.9-3-1.4-5c-0.6-2-1.2-4.2-2-6.7c-0.7-2.5-1.4-5-2.2-7.6
				c-1.7-6-3.7-12.8-5.8-20.4c-0.3-1-0.6-1.9-0.8-2.9c-0.2-0.9-0.4-1.7-0.6-2.4c-0.2-0.8-0.4-1.6-0.5-2.3h-0.2v2.3
				c0,0.7,0,1.5,0,2.4c0,0.9-0.1,1.9-0.2,2.9c-0.7,7.6-1.4,14.4-2,20.4c-0.2,2.6-0.5,5.1-0.7,7.6c-0.2,2.5-0.5,4.7-0.7,6.7
				c-0.2,2-0.3,3.7-0.5,5c-0.1,1.3-0.2,2.1-0.2,2.4h-10l7.2-63.6h11.9l11.5,40.7c0.3,1,0.6,2,0.7,2.8s0.3,1.6,0.5,2.3
				c0.2,0.7,0.3,1.4,0.5,2h0.2c0.1-0.6,0.2-1.3,0.4-2c0.1-0.7,0.3-1.4,0.5-2.3c0.2-0.8,0.5-1.8,0.8-2.8l11.8-40.7h11.9l7.2,63.6
				H466.1z"/>
		</g>
		<g>
			<path class="st0" d="M263.8,105.6v9.8H263v-9.8h-2.2V105h5.3v0.6H263.8z"/>
			<path class="st0" d="M269,107.8c-0.2-0.1-0.4-0.1-0.6-0.1c-0.2,0-0.4,0-0.6,0c-0.2,0-0.4,0.1-0.5,0.1c-0.2,0.1-0.3,0.1-0.4,0.2
				v7.4h-0.8v-7.7c0.2-0.1,0.4-0.2,0.5-0.2c0.2-0.1,0.4-0.1,0.6-0.2c0.2,0,0.5-0.1,0.8-0.1c0.3,0,0.7,0,1.1,0L269,107.8z"/>
			<path class="st0" d="M274.5,115c-0.3,0.2-0.7,0.3-1.1,0.4c-0.4,0.1-0.9,0.2-1.4,0.2c-1,0-1.7-0.2-2.2-0.6c-0.5-0.4-0.7-1-0.7-1.7
				c0-0.5,0.1-1,0.4-1.4c0.2-0.4,0.6-0.7,1-0.9c0.4-0.2,0.9-0.4,1.5-0.5c0.6-0.1,1.2-0.2,1.8-0.3v-0.6c0-0.4-0.1-0.7-0.2-0.9
				c-0.1-0.2-0.2-0.4-0.4-0.6c-0.2-0.1-0.4-0.2-0.6-0.3c-0.2-0.1-0.5-0.1-0.8-0.1c-0.4,0-0.8,0.1-1.1,0.2c-0.3,0.1-0.6,0.2-0.8,0.4
				l-0.2-0.5c0.2-0.1,0.5-0.3,0.9-0.4c0.4-0.1,0.8-0.2,1.3-0.2c0.3,0,0.7,0,1,0.1c0.3,0.1,0.6,0.2,0.9,0.4c0.2,0.2,0.4,0.4,0.6,0.8
				c0.2,0.3,0.2,0.7,0.2,1.2V115z M273.7,110.6c-0.6,0.1-1.1,0.2-1.6,0.3c-0.5,0.1-0.9,0.3-1.2,0.5c-0.3,0.2-0.6,0.4-0.7,0.7
				c-0.2,0.3-0.3,0.7-0.3,1.1c0,0.7,0.2,1.1,0.6,1.4c0.4,0.3,0.9,0.4,1.6,0.4c0.3,0,0.6,0,0.9-0.1c0.3-0.1,0.5-0.1,0.7-0.2V110.6z"
				/>
			<path class="st0" d="M278.4,115.4h-0.7l-2.8-8.1h0.9l2,6.4c0,0.1,0.1,0.2,0.1,0.3c0,0.1,0,0.2,0.1,0.3c0,0.1,0,0.2,0,0.2h0
				c0-0.1,0-0.2,0-0.2c0-0.1,0-0.2,0.1-0.3c0-0.1,0.1-0.2,0.1-0.3l2-6.4h0.7L278.4,115.4z"/>
			<path class="st0" d="M286.4,115c-0.3,0.2-0.7,0.3-1.1,0.4c-0.4,0.1-0.9,0.2-1.4,0.2c-1,0-1.7-0.2-2.2-0.6c-0.5-0.4-0.7-1-0.7-1.7
				c0-0.5,0.1-1,0.4-1.4c0.2-0.4,0.6-0.7,1-0.9c0.4-0.2,0.9-0.4,1.5-0.5c0.6-0.1,1.2-0.2,1.8-0.3v-0.6c0-0.4-0.1-0.7-0.2-0.9
				c-0.1-0.2-0.2-0.4-0.4-0.6c-0.2-0.1-0.4-0.2-0.6-0.3s-0.5-0.1-0.8-0.1c-0.4,0-0.8,0.1-1.1,0.2c-0.3,0.1-0.6,0.2-0.8,0.4l-0.2-0.5
				c0.2-0.1,0.5-0.3,0.9-0.4c0.4-0.1,0.8-0.2,1.3-0.2c0.3,0,0.7,0,1,0.1c0.3,0.1,0.6,0.2,0.9,0.4c0.2,0.2,0.4,0.4,0.6,0.8
				c0.2,0.3,0.2,0.7,0.2,1.2V115z M285.6,110.6c-0.6,0.1-1.1,0.2-1.6,0.3c-0.5,0.1-0.9,0.3-1.2,0.5c-0.3,0.2-0.6,0.4-0.7,0.7
				c-0.2,0.3-0.3,0.7-0.3,1.1c0,0.7,0.2,1.1,0.6,1.4c0.4,0.3,0.9,0.4,1.6,0.4c0.3,0,0.6,0,0.9-0.1c0.3-0.1,0.5-0.1,0.7-0.2V110.6z"
				/>
			<path class="st0" d="M293,114.9c-0.3,0.2-0.6,0.3-1.1,0.5c-0.4,0.1-1,0.2-1.6,0.2c-0.5,0-0.9-0.1-1.2-0.2
				c-0.3-0.1-0.6-0.3-0.8-0.5c-0.2-0.2-0.4-0.5-0.5-0.8c-0.1-0.3-0.1-0.6-0.1-1v-5.8h0.8v5.7c0,0.6,0.2,1,0.5,1.4
				c0.3,0.4,0.8,0.6,1.5,0.6c0.4,0,0.7,0,1-0.1c0.3-0.1,0.5-0.2,0.7-0.3v-7.3h0.8V114.9z"/>
			<path class="st0" d="M298.6,115.4l-2-3.7h0l-2,3.7h-0.9l2.5-4.2l-2.2-3.9h0.9l1.8,3.3h0l1.8-3.3h0.8l-2.3,3.8l2.5,4.3H298.6z"/>
			<path class="st0" d="M308.7,115c-0.2,0.2-0.5,0.3-0.9,0.4c-0.4,0.1-0.8,0.2-1.4,0.2c-0.6,0-1.1-0.1-1.5-0.3
				c-0.4-0.2-0.8-0.5-1.1-0.9c-0.3-0.4-0.5-0.8-0.6-1.3c-0.1-0.5-0.2-1-0.2-1.6c0-0.7,0.1-1.3,0.3-1.8c0.2-0.5,0.4-1,0.7-1.4
				c0.3-0.4,0.7-0.6,1.1-0.8c0.4-0.2,0.9-0.3,1.5-0.3c0.4,0,0.9,0.1,1.3,0.2v-3.9h0.8V115z M307.9,107.9c-0.4-0.1-0.8-0.2-1.2-0.2
				c-0.5,0-1,0.1-1.4,0.3c-0.4,0.2-0.7,0.5-0.9,0.8c-0.2,0.3-0.4,0.7-0.5,1.2c-0.1,0.4-0.1,0.9-0.1,1.3c0,0.5,0,1,0.1,1.4
				c0.1,0.4,0.3,0.8,0.5,1.1c0.2,0.3,0.5,0.6,0.8,0.8c0.3,0.2,0.7,0.3,1.2,0.3c0.3,0,0.6,0,0.8-0.1c0.2,0,0.4-0.1,0.6-0.2V107.9z"/>
			<path class="st0" d="M310.4,111.7c0.1,1.1,0.3,1.9,0.8,2.4c0.5,0.5,1.1,0.8,2,0.8c0.5,0,0.8-0.1,1.2-0.2c0.3-0.1,0.6-0.2,0.8-0.3
				l0.3,0.6c-0.2,0.1-0.5,0.3-0.9,0.4c-0.4,0.1-0.8,0.2-1.3,0.2c-0.5,0-1-0.1-1.4-0.2c-0.4-0.2-0.8-0.4-1.1-0.7
				c-0.3-0.3-0.6-0.8-0.7-1.3c-0.2-0.5-0.3-1.2-0.3-2c0-0.7,0.1-1.3,0.2-1.9c0.2-0.5,0.4-1,0.7-1.3c0.3-0.3,0.6-0.6,1-0.8
				c0.4-0.2,0.8-0.2,1.2-0.2c0.4,0,0.8,0.1,1.2,0.2c0.4,0.1,0.7,0.4,0.9,0.7c0.3,0.3,0.5,0.7,0.6,1.2c0.1,0.5,0.2,1.1,0.2,1.7
				L310.4,111.7z M314.9,110.5c0-0.5-0.1-0.9-0.2-1.3c-0.1-0.4-0.2-0.6-0.4-0.9c-0.2-0.2-0.4-0.4-0.7-0.5c-0.3-0.1-0.6-0.2-0.9-0.2
				c-0.3,0-0.6,0.1-0.9,0.2c-0.3,0.1-0.5,0.3-0.7,0.6c-0.2,0.3-0.4,0.6-0.5,1.1c-0.1,0.4-0.2,1-0.2,1.6L314.9,110.5z"/>
			<path class="st0" d="M325.4,115c-0.2,0.2-0.5,0.3-0.8,0.4c-0.3,0.1-0.7,0.2-1.1,0.2c-0.6,0-1.1-0.1-1.6-0.4
				c-0.5-0.3-0.9-0.6-1.2-1.1c-0.3-0.5-0.6-1.1-0.8-1.7c-0.2-0.6-0.3-1.4-0.3-2.1c0-0.7,0.1-1.4,0.3-2.1c0.2-0.6,0.4-1.2,0.8-1.7
				c0.3-0.5,0.7-0.9,1.2-1.1c0.5-0.3,1-0.4,1.6-0.4c0.5,0,0.8,0.1,1.2,0.2c0.3,0.1,0.6,0.2,0.8,0.4l-0.3,0.5
				c-0.2-0.1-0.4-0.2-0.6-0.3c-0.3-0.1-0.6-0.1-0.9-0.1c-0.5,0-1,0.1-1.4,0.4c-0.4,0.3-0.7,0.6-0.9,1.1c-0.2,0.4-0.4,0.9-0.5,1.5
				c-0.1,0.6-0.2,1.2-0.2,1.8c0,0.6,0.1,1.2,0.2,1.8c0.1,0.6,0.3,1.1,0.5,1.5c0.2,0.4,0.6,0.8,0.9,1c0.4,0.3,0.8,0.4,1.4,0.4
				c0.3,0,0.6,0,0.9-0.1c0.3-0.1,0.5-0.2,0.7-0.3L325.4,115z"/>
			<path class="st0" d="M331.5,111.4c0,0.6-0.1,1.1-0.2,1.7c-0.1,0.5-0.3,1-0.5,1.3c-0.2,0.4-0.5,0.7-0.9,0.9
				c-0.4,0.2-0.8,0.3-1.4,0.3c-0.5,0-1-0.1-1.4-0.3c-0.4-0.2-0.7-0.5-0.9-0.9c-0.2-0.4-0.4-0.8-0.5-1.3c-0.1-0.5-0.2-1.1-0.2-1.7
				c0-0.6,0.1-1.2,0.2-1.7c0.1-0.5,0.3-1,0.5-1.3c0.2-0.4,0.5-0.7,0.9-0.9c0.4-0.2,0.8-0.3,1.4-0.3c0.5,0,1,0.1,1.4,0.3
				c0.4,0.2,0.7,0.5,0.9,0.9c0.2,0.4,0.4,0.8,0.5,1.3C331.5,110.2,331.5,110.8,331.5,111.4z M330.7,111.4c0-0.4,0-0.9-0.1-1.3
				c-0.1-0.4-0.2-0.8-0.3-1.2c-0.2-0.4-0.4-0.6-0.7-0.9c-0.3-0.2-0.7-0.3-1.1-0.3s-0.8,0.1-1.1,0.3c-0.3,0.2-0.5,0.5-0.7,0.9
				c-0.2,0.4-0.3,0.8-0.3,1.2c-0.1,0.4-0.1,0.9-0.1,1.3s0,0.9,0.1,1.3s0.2,0.8,0.3,1.2c0.2,0.3,0.4,0.6,0.7,0.8
				c0.3,0.2,0.7,0.3,1.1,0.3c0.5,0,0.8-0.1,1.1-0.3c0.3-0.2,0.5-0.5,0.7-0.8c0.2-0.3,0.3-0.7,0.3-1.2
				C330.7,112.2,330.7,111.8,330.7,111.4z"/>
			<path class="st0" d="M337.1,115.4v-5.9c0-0.2,0-0.4-0.1-0.6c-0.1-0.2-0.1-0.4-0.3-0.6c-0.1-0.2-0.3-0.3-0.6-0.4
				c-0.3-0.1-0.6-0.2-1-0.2c-0.2,0-0.4,0-0.6,0s-0.3,0-0.5,0.1c-0.1,0-0.3,0.1-0.4,0.1c-0.1,0-0.2,0.1-0.4,0.1v7.4h-0.8v-7.7
				c0.3-0.2,0.7-0.3,1.2-0.4c0.4-0.1,1-0.2,1.6-0.2c0.5,0,1,0.1,1.3,0.2c0.3,0.2,0.6,0.3,0.8,0.6c0.2,0.2,0.3,0.5,0.4,0.7
				c0.1,0.3,0.1,0.5,0.1,0.8v6H337.1z"/>
			<path class="st0" d="M343.2,113.3c0,0.3-0.1,0.6-0.2,0.8c-0.1,0.3-0.3,0.5-0.5,0.7c-0.2,0.2-0.5,0.4-0.8,0.5
				c-0.3,0.1-0.7,0.2-1,0.2c-0.4,0-0.8-0.1-1.1-0.2c-0.3-0.1-0.6-0.2-0.8-0.4l0.2-0.6c0.1,0.1,0.4,0.2,0.6,0.3
				c0.3,0.1,0.6,0.2,1,0.2c0.5,0,1-0.2,1.3-0.5c0.3-0.3,0.5-0.7,0.5-1.2c0-0.5-0.1-0.9-0.4-1.1c-0.3-0.2-0.6-0.5-1.1-0.6
				c-0.4-0.2-0.8-0.3-1-0.5c-0.3-0.2-0.4-0.4-0.6-0.6c-0.1-0.2-0.2-0.4-0.3-0.6c-0.1-0.2-0.1-0.4-0.1-0.6c0-0.3,0.1-0.5,0.2-0.8
				c0.1-0.3,0.3-0.5,0.5-0.7c0.2-0.2,0.4-0.3,0.7-0.5c0.3-0.1,0.6-0.2,1-0.2c0.4,0,0.7,0.1,1,0.2c0.3,0.1,0.5,0.2,0.7,0.4l-0.2,0.5
				c-0.1-0.1-0.3-0.2-0.5-0.3c-0.2-0.1-0.5-0.2-0.9-0.2c-0.5,0-0.9,0.1-1.2,0.4c-0.3,0.3-0.4,0.7-0.4,1.1c0,0.5,0.1,0.8,0.4,1
				c0.3,0.2,0.7,0.4,1.1,0.6c0.4,0.1,0.7,0.3,1,0.5c0.3,0.2,0.5,0.4,0.6,0.6c0.2,0.2,0.3,0.4,0.3,0.6
				C343.2,112.8,343.2,113,343.2,113.3z"/>
			<path class="st0" d="M346.9,115.4c-0.2,0.1-0.3,0.1-0.5,0.1c-0.3,0-0.6-0.1-0.9-0.2c-0.2-0.1-0.4-0.3-0.6-0.4
				c-0.1-0.2-0.2-0.4-0.3-0.6c-0.1-0.2-0.1-0.5-0.1-0.7v-5.8h-1v-0.5h1v-1.9l0.8-0.3v2.3h1.5v0.5h-1.5v5.9c0,0.3,0.1,0.6,0.3,0.9
				c0.2,0.3,0.5,0.4,0.9,0.4c0.1,0,0.1,0,0.2,0c0.1,0,0.1,0,0.2,0V115.4z"/>
			<path class="st0" d="M350.5,107.8c-0.2-0.1-0.4-0.1-0.6-0.1c-0.2,0-0.4,0-0.6,0c-0.2,0-0.4,0.1-0.5,0.1c-0.2,0.1-0.3,0.1-0.4,0.2
				v7.4h-0.8v-7.7c0.2-0.1,0.4-0.2,0.5-0.2c0.2-0.1,0.4-0.1,0.6-0.2c0.2,0,0.5-0.1,0.8-0.1c0.3,0,0.7,0,1.1,0L350.5,107.8z"/>
			<path class="st0" d="M356.5,114.9c-0.3,0.2-0.6,0.3-1.1,0.5c-0.4,0.1-1,0.2-1.6,0.2c-0.5,0-0.9-0.1-1.2-0.2
				c-0.3-0.1-0.6-0.3-0.8-0.5c-0.2-0.2-0.4-0.5-0.5-0.8c-0.1-0.3-0.1-0.6-0.1-1v-5.8h0.8v5.7c0,0.6,0.2,1,0.5,1.4
				c0.3,0.4,0.8,0.6,1.5,0.6c0.4,0,0.7,0,1-0.1c0.3-0.1,0.5-0.2,0.7-0.3v-7.3h0.8V114.9z"/>
			<path class="st0" d="M362.2,115.1c-0.2,0.1-0.4,0.2-0.7,0.4c-0.3,0.1-0.7,0.2-1.1,0.2c-0.4,0-0.8-0.1-1.2-0.3s-0.7-0.5-0.9-0.8
				c-0.3-0.4-0.5-0.8-0.6-1.3c-0.1-0.5-0.2-1.1-0.2-1.7c0-0.7,0.1-1.3,0.2-1.8c0.1-0.5,0.3-1,0.6-1.3c0.3-0.4,0.6-0.6,1-0.8
				c0.4-0.2,0.8-0.3,1.2-0.3c0.2,0,0.5,0,0.7,0.1c0.2,0,0.4,0.1,0.5,0.1c0.1,0.1,0.3,0.1,0.3,0.2s0.2,0.1,0.2,0.2l-0.2,0.5
				c-0.1-0.1-0.3-0.2-0.5-0.3c-0.2-0.1-0.5-0.1-0.8-0.1c-0.4,0-0.8,0.1-1.1,0.3c-0.3,0.2-0.5,0.4-0.7,0.7c-0.2,0.3-0.3,0.7-0.4,1.1
				c-0.1,0.4-0.1,0.9-0.1,1.4c0,0.5,0,1,0.1,1.5c0.1,0.4,0.2,0.8,0.4,1.1c0.2,0.3,0.4,0.6,0.7,0.8c0.3,0.2,0.6,0.3,1,0.3
				c0.3,0,0.6,0,0.8-0.1c0.2-0.1,0.4-0.2,0.6-0.3L362.2,115.1z"/>
			<path class="st0" d="M365.8,115.4c-0.2,0.1-0.3,0.1-0.5,0.1c-0.3,0-0.6-0.1-0.9-0.2c-0.2-0.1-0.4-0.3-0.6-0.4
				c-0.1-0.2-0.2-0.4-0.3-0.6c-0.1-0.2-0.1-0.5-0.1-0.7v-5.8h-1v-0.5h1v-1.9l0.8-0.3v2.3h1.5v0.5h-1.5v5.9c0,0.3,0.1,0.6,0.3,0.9
				c0.2,0.3,0.5,0.4,0.9,0.4c0.1,0,0.1,0,0.2,0c0.1,0,0.1,0,0.2,0V115.4z"/>
			<path class="st0" d="M367.6,105c0,0.2-0.1,0.3-0.2,0.4c-0.1,0.1-0.2,0.2-0.4,0.2c-0.2,0-0.3-0.1-0.4-0.2
				c-0.1-0.1-0.2-0.2-0.2-0.4c0-0.2,0.1-0.3,0.2-0.4c0.1-0.1,0.2-0.2,0.4-0.2c0.2,0,0.3,0.1,0.4,0.2
				C367.5,104.7,367.6,104.9,367.6,105z M366.6,115.4v-8.1h0.8v8.1H366.6z"/>
			<path class="st0" d="M374.5,111.4c0,0.6-0.1,1.1-0.2,1.7c-0.1,0.5-0.3,1-0.5,1.3c-0.2,0.4-0.5,0.7-0.9,0.9
				c-0.4,0.2-0.8,0.3-1.4,0.3c-0.5,0-1-0.1-1.4-0.3c-0.4-0.2-0.7-0.5-0.9-0.9c-0.2-0.4-0.4-0.8-0.5-1.3c-0.1-0.5-0.2-1.1-0.2-1.7
				c0-0.6,0.1-1.2,0.2-1.7c0.1-0.5,0.3-1,0.5-1.3c0.2-0.4,0.5-0.7,0.9-0.9c0.4-0.2,0.8-0.3,1.4-0.3c0.5,0,1,0.1,1.4,0.3
				c0.4,0.2,0.7,0.5,0.9,0.9c0.2,0.4,0.4,0.8,0.5,1.3C374.4,110.2,374.5,110.8,374.5,111.4z M373.7,111.4c0-0.4,0-0.9-0.1-1.3
				c-0.1-0.4-0.2-0.8-0.3-1.2c-0.2-0.4-0.4-0.6-0.7-0.9c-0.3-0.2-0.7-0.3-1.1-0.3s-0.8,0.1-1.1,0.3c-0.3,0.2-0.5,0.5-0.7,0.9
				c-0.2,0.4-0.3,0.8-0.3,1.2c-0.1,0.4-0.1,0.9-0.1,1.3s0,0.9,0.1,1.3c0.1,0.4,0.2,0.8,0.3,1.2c0.2,0.3,0.4,0.6,0.7,0.8
				c0.3,0.2,0.7,0.3,1.1,0.3c0.5,0,0.8-0.1,1.1-0.3c0.3-0.2,0.5-0.5,0.7-0.8c0.2-0.3,0.3-0.7,0.3-1.2
				C373.6,112.2,373.7,111.8,373.7,111.4z"/>
			<path class="st0" d="M380.1,115.4v-5.9c0-0.2,0-0.4-0.1-0.6c-0.1-0.2-0.1-0.4-0.3-0.6c-0.1-0.2-0.3-0.3-0.6-0.4
				c-0.3-0.1-0.6-0.2-1-0.2c-0.2,0-0.4,0-0.6,0c-0.2,0-0.3,0-0.5,0.1c-0.1,0-0.3,0.1-0.4,0.1c-0.1,0-0.2,0.1-0.4,0.1v7.4h-0.8v-7.7
				c0.3-0.2,0.7-0.3,1.2-0.4c0.4-0.1,1-0.2,1.6-0.2c0.5,0,1,0.1,1.3,0.2c0.3,0.2,0.6,0.3,0.8,0.6c0.2,0.2,0.3,0.5,0.4,0.7
				c0.1,0.3,0.1,0.5,0.1,0.8v6H380.1z"/>
			<path class="st0" d="M391.9,115c-0.3,0.2-0.6,0.3-1,0.4c-0.4,0.1-0.9,0.1-1.5,0.1c-0.5,0-1-0.1-1.5-0.3c-0.5-0.2-1-0.5-1.4-1
				c-0.4-0.4-0.7-1-1-1.7c-0.2-0.7-0.4-1.5-0.4-2.5c0-0.9,0.1-1.7,0.4-2.4c0.2-0.7,0.6-1.2,1-1.6c0.4-0.4,0.8-0.8,1.3-1
				c0.5-0.2,1-0.3,1.5-0.3c0.5,0,1,0.1,1.4,0.2c0.4,0.1,0.7,0.2,0.9,0.4l-0.3,0.5c-0.2-0.1-0.4-0.2-0.7-0.3
				c-0.3-0.1-0.7-0.1-1.2-0.1c-1,0-1.8,0.4-2.4,1.2c-0.6,0.8-0.9,2-0.9,3.6c0,0.8,0.1,1.4,0.3,2c0.2,0.6,0.4,1.1,0.7,1.5
				c0.3,0.4,0.7,0.7,1.1,0.9c0.4,0.2,0.8,0.3,1.3,0.3c0.4,0,0.8,0,1-0.1c0.2-0.1,0.4-0.1,0.6-0.2v-4.4h-2v-0.6h2.9V115z"/>
			<path class="st0" d="M393.7,111.7c0.1,1.1,0.3,1.9,0.8,2.4c0.5,0.5,1.1,0.8,2,0.8c0.5,0,0.8-0.1,1.2-0.2c0.3-0.1,0.6-0.2,0.8-0.3
				l0.3,0.6c-0.2,0.1-0.5,0.3-0.9,0.4c-0.4,0.1-0.8,0.2-1.3,0.2c-0.5,0-1-0.1-1.4-0.2c-0.4-0.2-0.8-0.4-1.1-0.7
				c-0.3-0.3-0.6-0.8-0.7-1.3c-0.2-0.5-0.3-1.2-0.3-2c0-0.7,0.1-1.3,0.2-1.9c0.2-0.5,0.4-1,0.7-1.3c0.3-0.3,0.6-0.6,1-0.8
				c0.4-0.2,0.8-0.2,1.2-0.2c0.4,0,0.8,0.1,1.2,0.2c0.4,0.1,0.7,0.4,0.9,0.7c0.3,0.3,0.5,0.7,0.6,1.2c0.1,0.5,0.2,1.1,0.2,1.7
				L393.7,111.7z M398.1,110.5c0-0.5-0.1-0.9-0.2-1.3c-0.1-0.4-0.2-0.6-0.4-0.9c-0.2-0.2-0.4-0.4-0.7-0.5c-0.3-0.1-0.6-0.2-0.9-0.2
				c-0.3,0-0.6,0.1-0.9,0.2c-0.3,0.1-0.5,0.3-0.7,0.6c-0.2,0.3-0.4,0.6-0.5,1.1c-0.1,0.4-0.2,1-0.2,1.6L398.1,110.5z M396,106.4
				h-0.5l1.1-2c0.2-0.1,0.5-0.2,0.7-0.2c0.2,0,0.3,0.1,0.4,0.2L396,106.4z"/>
			<path class="st0" d="M404.5,115.4v-5.9c0-0.2,0-0.4-0.1-0.6c-0.1-0.2-0.1-0.4-0.3-0.6c-0.1-0.2-0.3-0.3-0.6-0.4
				c-0.3-0.1-0.6-0.2-1-0.2c-0.2,0-0.4,0-0.6,0s-0.3,0-0.5,0.1c-0.1,0-0.3,0.1-0.4,0.1c-0.1,0-0.2,0.1-0.4,0.1v7.4h-0.8v-7.7
				c0.3-0.2,0.7-0.3,1.2-0.4c0.4-0.1,1-0.2,1.6-0.2c0.5,0,1,0.1,1.3,0.2c0.3,0.2,0.6,0.3,0.8,0.6c0.2,0.2,0.3,0.5,0.4,0.7
				c0.1,0.3,0.1,0.5,0.1,0.8v6H404.5z"/>
			<path class="st0" d="M407.1,111.7c0.1,1.1,0.3,1.9,0.8,2.4c0.5,0.5,1.1,0.8,2,0.8c0.5,0,0.8-0.1,1.2-0.2c0.3-0.1,0.6-0.2,0.8-0.3
				l0.3,0.6c-0.2,0.1-0.5,0.3-0.9,0.4c-0.4,0.1-0.8,0.2-1.3,0.2c-0.5,0-1-0.1-1.4-0.2c-0.4-0.2-0.8-0.4-1.1-0.7
				c-0.3-0.3-0.6-0.8-0.7-1.3c-0.2-0.5-0.3-1.2-0.3-2c0-0.7,0.1-1.3,0.2-1.9c0.2-0.5,0.4-1,0.7-1.3c0.3-0.3,0.6-0.6,1-0.8
				c0.4-0.2,0.8-0.2,1.2-0.2c0.4,0,0.8,0.1,1.2,0.2c0.4,0.1,0.7,0.4,0.9,0.7c0.3,0.3,0.5,0.7,0.6,1.2c0.1,0.5,0.2,1.1,0.2,1.7
				L407.1,111.7z M411.5,110.5c0-0.5-0.1-0.9-0.2-1.3c-0.1-0.4-0.2-0.6-0.4-0.9c-0.2-0.2-0.4-0.4-0.7-0.5c-0.3-0.1-0.6-0.2-0.9-0.2
				c-0.3,0-0.6,0.1-0.9,0.2c-0.3,0.1-0.5,0.3-0.7,0.6c-0.2,0.3-0.4,0.6-0.5,1.1c-0.1,0.4-0.2,1-0.2,1.6L411.5,110.5z M409.4,106.4
				h-0.5l1.1-2c0.2-0.1,0.5-0.2,0.7-0.2c0.2,0,0.3,0.1,0.4,0.2L409.4,106.4z"/>
			<path class="st0" d="M416.2,107.8c-0.2-0.1-0.4-0.1-0.6-0.1c-0.2,0-0.4,0-0.6,0c-0.2,0-0.4,0.1-0.5,0.1c-0.2,0.1-0.3,0.1-0.4,0.2
				v7.4h-0.8v-7.7c0.2-0.1,0.4-0.2,0.5-0.2c0.2-0.1,0.4-0.1,0.6-0.2c0.2,0,0.5-0.1,0.8-0.1c0.3,0,0.7,0,1.1,0L416.2,107.8z"/>
			<path class="st0" d="M421.6,115c-0.3,0.2-0.7,0.3-1.1,0.4c-0.4,0.1-0.9,0.2-1.4,0.2c-1,0-1.7-0.2-2.2-0.6s-0.7-1-0.7-1.7
				c0-0.5,0.1-1,0.4-1.4c0.2-0.4,0.6-0.7,1-0.9c0.4-0.2,0.9-0.4,1.5-0.5c0.6-0.1,1.2-0.2,1.8-0.3v-0.6c0-0.4-0.1-0.7-0.2-0.9
				c-0.1-0.2-0.2-0.4-0.4-0.6c-0.2-0.1-0.4-0.2-0.6-0.3c-0.2-0.1-0.5-0.1-0.8-0.1c-0.4,0-0.8,0.1-1.1,0.2c-0.3,0.1-0.6,0.2-0.8,0.4
				l-0.2-0.5c0.2-0.1,0.5-0.3,0.9-0.4c0.4-0.1,0.8-0.2,1.3-0.2c0.3,0,0.7,0,1,0.1c0.3,0.1,0.6,0.2,0.9,0.4c0.2,0.2,0.4,0.4,0.6,0.8
				c0.2,0.3,0.2,0.7,0.2,1.2V115z M420.9,110.6c-0.6,0.1-1.1,0.2-1.6,0.3c-0.5,0.1-0.9,0.3-1.2,0.5c-0.3,0.2-0.6,0.4-0.7,0.7
				c-0.2,0.3-0.3,0.7-0.3,1.1c0,0.7,0.2,1.1,0.6,1.4c0.4,0.3,0.9,0.4,1.6,0.4c0.3,0,0.6,0,0.9-0.1c0.3-0.1,0.5-0.1,0.7-0.2V110.6z"
				/>
			<path class="st0" d="M423.1,115.4v-11.9h0.8v11.9H423.1z"/>
			<path class="st0" d="M425.8,111.7c0.1,1.1,0.3,1.9,0.8,2.4c0.5,0.5,1.1,0.8,2,0.8c0.5,0,0.8-0.1,1.2-0.2c0.3-0.1,0.6-0.2,0.8-0.3
				l0.3,0.6c-0.2,0.1-0.5,0.3-0.9,0.4c-0.4,0.1-0.8,0.2-1.3,0.2c-0.5,0-1-0.1-1.4-0.2c-0.4-0.2-0.8-0.4-1.1-0.7
				c-0.3-0.3-0.6-0.8-0.7-1.3c-0.2-0.5-0.3-1.2-0.3-2c0-0.7,0.1-1.3,0.2-1.9c0.2-0.5,0.4-1,0.7-1.3c0.3-0.3,0.6-0.6,1-0.8
				c0.4-0.2,0.8-0.2,1.2-0.2c0.4,0,0.8,0.1,1.2,0.2c0.4,0.1,0.7,0.4,0.9,0.7c0.3,0.3,0.5,0.7,0.6,1.2c0.1,0.5,0.2,1.1,0.2,1.7
				L425.8,111.7z M430.2,110.5c0-0.5-0.1-0.9-0.2-1.3c-0.1-0.4-0.2-0.6-0.4-0.9c-0.2-0.2-0.4-0.4-0.7-0.5c-0.3-0.1-0.6-0.2-0.9-0.2
				c-0.3,0-0.6,0.1-0.9,0.2c-0.3,0.1-0.5,0.3-0.7,0.6c-0.2,0.3-0.4,0.6-0.5,1.1c-0.1,0.4-0.2,1-0.2,1.6L430.2,110.5z"/>
			<path class="st0" d="M443.6,115.4c0,0,0-0.2,0-0.4c0-0.2,0-0.5-0.1-0.8c0-0.3-0.1-0.7-0.1-1.1c0-0.4-0.1-0.8-0.1-1.2
				c-0.1-1-0.2-2.1-0.3-3.3c0-0.2,0-0.3,0-0.5c0-0.2,0-0.3,0-0.4v-0.4h0l-0.1,0.4c0,0.1-0.1,0.2-0.1,0.4c0,0.2-0.1,0.3-0.1,0.5
				c-0.4,1.2-0.7,2.3-1,3.3c-0.1,0.4-0.2,0.8-0.4,1.2c-0.1,0.4-0.2,0.8-0.3,1.1c-0.1,0.3-0.2,0.6-0.2,0.8c-0.1,0.2-0.1,0.4-0.1,0.4
				h-1.1c0,0-0.1-0.2-0.1-0.4c-0.1-0.2-0.1-0.5-0.2-0.8c-0.1-0.3-0.2-0.7-0.3-1.1c-0.1-0.4-0.2-0.8-0.4-1.2c-0.3-1-0.6-2.1-0.9-3.3
				c-0.1-0.2-0.1-0.3-0.1-0.5c0-0.2-0.1-0.3-0.1-0.4c0-0.1-0.1-0.3-0.1-0.4h0v0.4c0,0.1,0,0.2,0,0.4c0,0.2,0,0.3,0,0.5
				c-0.1,1.2-0.2,2.4-0.3,3.3c0,0.4-0.1,0.8-0.1,1.2c0,0.4-0.1,0.8-0.1,1.1c0,0.3-0.1,0.6-0.1,0.8c0,0.2,0,0.3,0,0.4h-1.6l1.2-10.4
				h2l1.9,6.7c0.1,0.2,0.1,0.3,0.1,0.5c0,0.1,0.1,0.3,0.1,0.4c0,0.1,0.1,0.2,0.1,0.3h0c0-0.1,0-0.2,0.1-0.3c0-0.1,0-0.2,0.1-0.4
				c0-0.1,0.1-0.3,0.1-0.5l1.9-6.7h2l1.2,10.4H443.6z"/>
			<path class="st0" d="M447.5,112c0.2,1.5,0.9,2.3,2.2,2.3c0.5,0,0.9,0,1.2-0.1c0.3-0.1,0.6-0.2,0.8-0.3l0.4,1.2
				c-0.3,0.2-0.7,0.3-1.1,0.4c-0.4,0.1-1,0.2-1.6,0.2c-1.2,0-2.1-0.4-2.8-1.1c-0.7-0.7-1-1.8-1-3.2c0-0.7,0.1-1.3,0.2-1.8
				c0.2-0.5,0.4-1,0.7-1.3c0.3-0.4,0.7-0.6,1.1-0.8c0.4-0.2,0.9-0.3,1.5-0.3c1.1,0,1.9,0.4,2.5,1.1c0.6,0.7,0.8,1.7,0.8,3.1
				L447.5,112z M450.8,110.6c0-0.8-0.1-1.4-0.4-1.8c-0.3-0.4-0.7-0.5-1.2-0.5c-0.5,0-1,0.2-1.3,0.7c-0.3,0.5-0.5,1.2-0.5,2.1
				L450.8,110.6z M449.6,106.4h-1l1.1-2.1c0.2-0.1,0.3-0.2,0.5-0.2c0.2,0,0.4-0.1,0.6-0.1c0.2,0,0.3,0,0.5,0.1
				c0.1,0.1,0.2,0.1,0.3,0.2L449.6,106.4z"/>
			<path class="st0" d="M457.8,115.4v-5.8c0-0.2,0-0.3-0.1-0.5c0-0.2-0.1-0.3-0.2-0.4c-0.1-0.1-0.3-0.2-0.4-0.3
				c-0.2-0.1-0.4-0.1-0.7-0.1c-0.3,0-0.6,0-0.7,0.1c-0.2,0-0.4,0.1-0.5,0.2v6.9h-1.9v-7.7c0.4-0.2,0.8-0.3,1.4-0.4
				c0.5-0.1,1.1-0.2,1.8-0.2c0.6,0,1.1,0.1,1.5,0.2c0.4,0.1,0.8,0.3,1,0.6c0.3,0.2,0.4,0.5,0.5,0.8c0.1,0.3,0.2,0.6,0.2,0.9v5.8
				H457.8z"/>
			<path class="st0" d="M466.6,115c-0.3,0.2-0.7,0.3-1.2,0.4c-0.5,0.1-1.1,0.2-1.7,0.2c-1.1,0-2-0.2-2.5-0.6c-0.6-0.4-0.8-1-0.8-1.8
				c0-0.5,0.1-1,0.4-1.3c0.2-0.4,0.6-0.6,1-0.9c0.4-0.2,0.9-0.4,1.5-0.5c0.6-0.1,1.1-0.2,1.8-0.3v-0.4c0-0.3,0-0.5-0.1-0.7
				c-0.1-0.2-0.2-0.3-0.3-0.4c-0.1-0.1-0.3-0.2-0.5-0.2c-0.2,0-0.4-0.1-0.7-0.1c-0.4,0-0.8,0.1-1.1,0.2c-0.4,0.1-0.7,0.2-0.9,0.3
				l-0.4-1.1c0.3-0.1,0.6-0.3,1.1-0.4c0.5-0.1,1-0.2,1.7-0.2c0.4,0,0.8,0,1.2,0.1c0.4,0.1,0.7,0.3,1,0.5c0.3,0.2,0.5,0.5,0.6,0.9
				c0.2,0.4,0.2,0.8,0.2,1.3V115z M464.8,111c-0.4,0.1-0.8,0.1-1.2,0.2c-0.4,0.1-0.7,0.2-0.9,0.4c-0.2,0.2-0.4,0.3-0.6,0.6
				c-0.1,0.2-0.2,0.5-0.2,0.9c0,0.5,0.2,0.9,0.5,1.2c0.3,0.2,0.7,0.4,1.3,0.4c0.2,0,0.4,0,0.6-0.1c0.2,0,0.4-0.1,0.5-0.2V111z"/>
			<path class="st0" d="M471.1,108.5c-0.3-0.1-0.6-0.2-0.9-0.1c-0.3,0-0.6,0.1-0.8,0.2v6.9h-1.9v-7.7c0.2-0.1,0.4-0.2,0.7-0.3
				c0.2-0.1,0.5-0.1,0.8-0.2c0.3-0.1,0.7-0.1,1.1-0.1c0.4,0,0.9,0,1.4,0L471.1,108.5z"/>
			<path class="st0" d="M477.3,115c-0.3,0.2-0.7,0.3-1.2,0.4c-0.5,0.1-1.1,0.2-1.7,0.2c-1.1,0-2-0.2-2.5-0.6c-0.6-0.4-0.8-1-0.8-1.8
				c0-0.5,0.1-1,0.4-1.3c0.2-0.4,0.6-0.6,1-0.9c0.4-0.2,0.9-0.4,1.5-0.5c0.6-0.1,1.1-0.2,1.8-0.3v-0.4c0-0.3,0-0.5-0.1-0.7
				c-0.1-0.2-0.2-0.3-0.3-0.4c-0.1-0.1-0.3-0.2-0.5-0.2c-0.2,0-0.4-0.1-0.7-0.1c-0.4,0-0.8,0.1-1.1,0.2c-0.4,0.1-0.7,0.2-0.9,0.3
				l-0.4-1.1c0.3-0.1,0.6-0.3,1.1-0.4c0.5-0.1,1-0.2,1.7-0.2c0.4,0,0.8,0,1.2,0.1c0.4,0.1,0.7,0.3,1,0.5c0.3,0.2,0.5,0.5,0.6,0.9
				c0.2,0.4,0.2,0.8,0.2,1.3V115z M475.6,111c-0.4,0.1-0.8,0.1-1.2,0.2c-0.4,0.1-0.7,0.2-0.9,0.4c-0.2,0.2-0.4,0.3-0.6,0.6
				c-0.1,0.2-0.2,0.5-0.2,0.9c0,0.5,0.2,0.9,0.5,1.2c0.3,0.2,0.7,0.4,1.3,0.4c0.2,0,0.4,0,0.6-0.1c0.2,0,0.4-0.1,0.5-0.2V111z"/>
		</g>
	</g>
</g>
</svg>
