<?xml version="1.0" encoding="utf-8"?>
<!-- Generator: Adobe Illustrator 24.3.0, SVG Export Plug-In . SVG Version: 6.00 Build 0)  -->
<svg version="1.1" id="Calque_1" xmlns="http://www.w3.org/2000/svg" xmlns:xlink="http://www.w3.org/1999/xlink" x="0px" y="0px"
	 viewBox="0 0 581.7 127" style="enable-background:new 0 0 581.7 127;" xml:space="preserve">
<style type="text/css">
	.st0{fill:#C4E9FB;}
	.st1{fill:#FDCDA7;}
	.st2{fill:#C6E0A1;}
	.st3{fill:#000000;}
</style>
<g>
	<g>
		<path class="st0" d="M45.6,86.6c1.3-0.4,2.5-0.7,3.7-1.1V23.3l31.2,11.6v44.8c1.3-0.1,2.5-0.2,3.7-0.3V17.1L70.6,3.5
			c-3.1-3.1-8.2-3.1-11.4,0L46.8,15.9L29.1,33.6l-7,7l23.4,8.7V86.6z"/>
		<path class="st0" d="M14.4,48.3l-9.5,9.5c-3.1,3.1-3.1,8.2,0,11.4l8.6,8.6l0.9,0.9V48.3z"/>
		<path class="st0" d="M124.9,57.8l-9.5-9.5v30.4l1.6-1.6l7.9-7.9C128.1,66.1,128.1,61,124.9,57.8z"/>
		<path class="st1" d="M78.8,79.9V36.1L51,25.8V85C61.3,82.3,70.6,80.7,78.8,79.9z"/>
		<path class="st1" d="M113.7,80.1V21.7L86,11.4v67.8C101.9,78.2,112.1,79.8,113.7,80.1z"/>
		<path class="st1" d="M43.8,87.1V50.5L16.1,40.2v40.2l12.4,12.4C33.8,90.2,39.1,88.5,43.8,87.1z"/>
		<path class="st2" d="M39.9,104.3l7.7,7.7l0,0l11.5,11.5c3.1,3.1,8.2,3.1,11.4,0l41.9-41.8C65,86.1,39.9,104.3,39.9,104.3z"/>
	</g>
	<g>
		<path class="st3" d="M343,38.4c0,1-0.3,1.6-1,1.9c-0.3,0.1-0.9,0.2-1.7,0.2c-2.5,0-4.1-0.2-4.8-0.6c-0.7-0.4-1.1-1.3-1.1-2.7
			c0-0.4,0.1-1.5,0.2-3.4c0.1-1.9,0.2-3.6,0.2-5.1l-8.1,2.1c0,1.6,0.1,1.3,0.2,3.2c0.1,1.9,0.2,3,0.2,3.4c0,1.5-0.5,2.4-1.4,2.7
			c-0.7,0.2-2.6,0.4-5.7,0.4c-1.3-0.1-2-0.7-2-1.9v-26l-8.1,2.1v25.6c0,3,1,5.3,3,6.9c1.7,1.4,4,2.2,6.7,2.3v0h5.6
			c2.2,0,4.1-0.7,5.6-2.1c1.4,1.4,3.3,2.1,5.8,2.1h3.1h0.7h1.1c2.8,0,5.1-0.8,6.9-2.5c1.8-1.7,2.7-3.9,2.7-6.7V12.6l-8.2,2.1V38.4z"
			/>
		<path class="st3" d="M325.9,25.2c1,0,1.8-0.4,2.5-1.1c0.7-0.7,1.1-1.6,1.1-2.6c0-1-0.4-1.8-1.1-2.6c-0.7-0.7-1.6-1.1-2.5-1.1
			c-1,0-1.9,0.4-2.6,1.1c-0.8,0.7-1.1,1.6-1.1,2.6c0,1,0.4,1.9,1.1,2.6C324,24.8,324.9,25.2,325.9,25.2z"/>
		<path class="st3" d="M335.1,25.2c1,0,1.9-0.4,2.6-1.1c0.7-0.7,1.1-1.6,1.1-2.6c0-1-0.4-1.8-1.1-2.6c-0.7-0.7-1.6-1.1-2.6-1.1
			c-1,0-1.9,0.4-2.6,1.1c-0.7,0.7-1.1,1.6-1.1,2.6c0,1,0.4,1.9,1.1,2.6C333.2,24.8,334.1,25.2,335.1,25.2z"/>
		<path class="st3" d="M300.1,25.1c1,0,1.9-0.4,2.6-1.1c0.7-0.7,1.1-1.6,1.1-2.6c0-1-0.4-1.9-1.1-2.6c-0.7-0.7-1.6-1.1-2.6-1.1
			c-1,0-1.9,0.4-2.6,1.1c-0.7,0.7-1.1,1.6-1.1,2.6c0,1,0.4,1.9,1.1,2.6C298.2,24.7,299.1,25.1,300.1,25.1z"/>
		<path class="st3" d="M296.9,38.6c0,1.1-0.8,1.8-2.4,1.9c-1.5-0.1-2.3-1.5-2.3-4.4c0-0.8,0.1-1.8,0.2-2.9c0.1-1.2,0.2-1.9,0.2-2.2
			L285,33c0,0.1,0.3,2,0.3,2.8c0,3.1-0.7,4.6-2.1,4.6c-1.4,0-2.2-1.6-2.2-4.7c0-0.8,0-1.8,0.1-2.9c0.1-1.1,0.1-1.8,0.1-1.9l-7.3,2.1
			c0,0.1,0.3,2,0.3,2.8c0,3.1-0.7,4.7-2.2,4.7c-1.4,0-2.1-1.6-2.1-4.8c0-0.8,0-1.7,0.1-2.9c0.1-1.1,0.1-1.8,0.1-1.9l-7.4,2.1
			c0,1.1,0.1,0.2,0.2,1.7c0.1,1.4,0.2,2.3,0.2,2.7c0,1.2-0.3,2-1,2.4c-0.6,0.4-1.9,0.7-3.9,0.7h-16.1v0c-2.1,0-3.4-0.2-4.1-0.6
			c-0.7-0.4-1-1.3-1-2.7c0-0.4,0-1.5,0.2-3.4c0.1-1.9,0.2-3.6,0.2-5.1l-8.1,2.1c0,1.6,0.1,1.3,0.2,3.2c0.1,1.9,0.2,3,0.2,3.4
			c0,1.4-0.4,2.3-1.2,2.6c-0.6,0.3-2,0.5-4.1,0.5v0h-2.6c0.9-1.5,1.4-3.4,1.4-5.6c0-3-1.1-5.5-3.2-7.5c-2.1-2-4.6-3-7.6-3
			c-2.9,0-5.3,1-7.4,3.1c-2,2.1-3.1,4.5-3.1,7.4c0,2,0.7,3.8,2,5.6h-4.8c-1.8-0.2-2.6-1.9-2.6-5c0-0.9,0.1-2.1,0.3-3.7
			c0.2-1.6,0.2-2.6,0.2-3l-7.9,2c0,0.1,0,0.3,0.1,0.6c0.1,1.5,0.2,2.7,0.2,3.7c0,3.7-0.8,5.5-2.5,5.5h-19.4c-0.9,0-1.8-0.3-2.5-1
			c-0.7-0.7-1.1-1.5-1.1-2.4c0-2.2,1.1-3.8,3.2-4.6l-4.5-6.7c-2.3,0.9-4,2.4-5.3,4.5c-1.3,2.1-1.9,4.4-1.9,6.9
			c0,3.4,1.2,6.2,3.6,8.6c2.4,2.4,5.3,3.6,8.6,3.6h19.7c2.4,0,4.4-0.7,5.9-2.1c1.4,1.3,3.3,1.9,5.7,2.1v0h6.4c2.6,0,4.9-0.4,6.8-1.1
			c2.5,0.8,5.3,1.1,8.2,1.1h3.5h0.8h3.4c2.2,0,4.1-0.7,5.6-2.1c1.4,1.4,3.3,2.1,5.8,2.1h3h0.7h15.2h1.2h1.8c2.2,0,4.1-0.7,5.6-2.1
			c1.4,1.4,3.2,2.1,5.4,2.1c1,0,2-0.2,3.1-0.5c1.2-0.4,2.1-1,2.6-1.6c1.6,1.4,3.4,2.1,5.4,2.1c2.7,0,4.6-0.7,5.6-2.1
			c1.4,1.3,3,2,5.1,2.1v0h1.4c2.8,0,5.1-0.8,7-2.5c1.8-1.7,2.8-3.9,2.8-6.7V28.7l-8.1,2.1V38.6z M215,38.1c-0.6,0.6-1.4,0.9-2.3,0.9
			c-0.9,0-1.7-0.3-2.3-0.9c-0.6-0.6-1-1.4-1-2.3c0-0.9,0.3-1.7,1-2.3c0.6-0.6,1.4-0.9,2.3-0.9c0.9,0,1.7,0.3,2.3,0.9
			c0.6,0.6,0.9,1.4,0.9,2.3C215.9,36.7,215.6,37.5,215,38.1z"/>
		<path class="st3" d="M229,53.5c-1,0-1.8,0.3-2.5,1c-0.7,0.7-1,1.5-1,2.5c0,1,0.3,1.8,1,2.4c0.7,0.7,1.5,1,2.5,1
			c0.9,0,1.7-0.3,2.4-1c0.7-0.7,1-1.5,1-2.4c0-1-0.3-1.8-1-2.5C230.8,53.9,230,53.5,229,53.5z"/>
		<path class="st3" d="M237.9,53.8c-1,0-1.8,0.3-2.5,1c-0.7,0.7-1,1.5-1,2.4c0,1,0.3,1.8,1,2.5c0.7,0.7,1.5,1,2.5,1
			c0.9,0,1.7-0.3,2.4-1c0.7-0.7,1-1.5,1-2.5c0-0.9-0.3-1.8-1-2.4C239.7,54.1,238.9,53.8,237.9,53.8z"/>
		<path class="st3" d="M212.6,22.2c1,0,1.9-0.4,2.6-1.1c0.8-0.7,1.1-1.6,1.1-2.6c0-1-0.4-1.9-1.1-2.6c-0.8-0.7-1.6-1.1-2.6-1.1
			c-1,0-1.8,0.4-2.5,1.1c-0.7,0.7-1.1,1.6-1.1,2.6c0,1,0.4,1.8,1.1,2.5C210.8,21.8,211.6,22.2,212.6,22.2z"/>
		<path class="st3" d="M182.5,25.7c1,0,1.9-0.4,2.6-1.1c0.7-0.7,1.1-1.6,1.1-2.6c0-1-0.4-1.9-1.1-2.6c-0.7-0.7-1.6-1.1-2.6-1.1
			c-1,0-1.9,0.4-2.6,1.1c-0.7,0.7-1.1,1.6-1.1,2.6c0,1,0.4,1.9,1.1,2.6C180.6,25.3,181.5,25.7,182.5,25.7z"/>
		<path class="st3" d="M172.2,25.7c1,0,1.9-0.4,2.6-1.1c0.7-0.8,1.1-1.6,1.1-2.6c0-1-0.4-1.9-1.1-2.6c-0.7-0.7-1.6-1.1-2.6-1.1
			c-1,0-1.9,0.4-2.6,1.1c-0.7,0.7-1.1,1.6-1.1,2.6c0,1,0.4,1.9,1.1,2.7C170.3,25.4,171.2,25.7,172.2,25.7z"/>
		<path class="st3" d="M189,30.8l0.1,0C189,30.4,189,30.7,189,30.8z"/>
		<path class="st3" d="M189,30.8L189,30.8C189,30.8,189,30.8,189,30.8z"/>
		<polygon class="st3" points="574.9,15.8 574.9,49.5 578.6,49.5 578.6,14.1 		"/>
		<path class="st3" d="M427.9,37.6l-3.1,2.1l3.8,5.7c0.1,0.2,3.2,4.4,0.5,8.8l-13,12l2.5,2.7l13.1-12.2l0.3-0.4
			c4.3-6.8-0.4-13-0.5-13.2L427.9,37.6z"/>
		<path class="st3" d="M415.7,28.9l-3.7,1.7v10.1l0,0.2c0.1,0.7,0,2.9-1.1,4.1c-0.6,0.6-1.4,0.9-2.5,0.9h-6.6v0h-0.8h-0.2
			c-3.6,0-6.6-2.9-6.6-6.6v-2.8c0-0.2,0-0.4,0-0.6V21.8l-3.7,1.6v2.8H380c-5.7,0-10.3,4.6-10.3,10.3v0.8c0,5.7,4.6,10.3,10.3,10.3
			h3.8l-1.5-3.7H380c-3.6,0-6.6-2.9-6.6-6.6v-0.8c0-3.6,2.9-6.6,6.6-6.6h10.5v5h0v4.3c0,5.7,4.6,10.3,10.3,10.3h0.2h1.2h0.6v0l5.6,0
			c2.7,0,4.4-1.1,5.3-2.1c2.3-2.5,2.1-6.1,2.1-6.9V28.9z"/>
		<path class="st3" d="M559.3,41.8c0,0-0.1,1.8-1.2,2.9c-0.8,0.8-2.1,1.1-3.8,1.1h-18.6c-2.3-1.4-3.8-3.8-3.8-6.5
			c0-4.2,3.4-7.5,7.5-7.5c2.5,0,4.8,1.2,6.2,3.3l3.1-2.1c-2.1-3.1-5.6-4.9-9.3-4.9c-6.2,0-11.2,5-11.2,11.2c0,2.4,0.7,4.6,2.1,6.5
			h-33.6v0h-13.3c1.8-1.5,3.2-3.4,4.2-5.7l0,0c0.5-1.3,0.8-2.6,0.8-4.1c0-6.1-5-11.1-11.1-11.1c-6.1,0-11.1,5-11.1,11.1
			c0,4.2,2.4,7.9,5.9,9.8h-21.7c-2.8,0-5.2-2.3-5.2-5.2v-28l-3.7,1.4v26.6c0,4.9,4,8.9,8.9,8.9h25c0.1,0,1.7-0.3,1.8-1.8h0
			c-0.1,1.6,1.7,1.8,1.8,1.8h18.7v0l56.5,0c2.7,0.1,4.9-0.6,6.4-2.1c2.3-2.2,2.4-5.3,2.4-5.6V14.1l-3.7,1.7V41.8z M477.2,43.4
			c-4,0-7.3-3.3-7.3-7.3c0-4,3.3-7.3,7.3-7.3c4.1,0,7.3,3.3,7.3,7.3c0,1.3-0.3,2.4-0.9,3.5c0,0,0,0,0,0
			C482.5,41.8,480,43.4,477.2,43.4z"/>
		<path class="st3" d="M473.3,21c1.2,0,2.1-0.9,2.1-2.1c0-1.2-0.9-2.1-2.1-2.1c-1.2,0-2.1,0.9-2.1,2.1C471.2,20,472.1,21,473.3,21z"
			/>
		<path class="st3" d="M481.1,21c1.2,0,2.1-0.9,2.1-2.1c0-1.2-0.9-2.1-2.1-2.1c-1.2,0-2.1,0.9-2.1,2.1C479.1,20,480,21,481.1,21z"/>
		<path class="st3" d="M377.7,21c1.2,0,2.1-0.9,2.1-2.1c0-1.2-0.9-2.1-2.1-2.1c-1.2,0-2.1,0.9-2.1,2.1C375.6,20,376.6,21,377.7,21z"
			/>
		<path class="st3" d="M385.6,21c1.2,0,2.1-0.9,2.1-2.1c0-1.2-0.9-2.1-2.1-2.1c-1.2,0-2.1,0.9-2.1,2.1C383.5,20,384.4,21,385.6,21z"
			/>
		<path class="st3" d="M402.8,53.2c-1.2,0-2.1,0.9-2.1,2.1c0,1.2,0.9,2.1,2.1,2.1c1.2,0,2.1-0.9,2.1-2.1
			C404.9,54.2,404,53.2,402.8,53.2z"/>
		<path class="st3" d="M410.7,53.2c-1.2,0-2.1,0.9-2.1,2.1c0,1.2,0.9,2.1,2.1,2.1c1.2,0,2.1-0.9,2.1-2.1
			C412.8,54.2,411.9,53.2,410.7,53.2z"/>
	</g>
	<g>
		<path class="st3" d="M158.4,70.9c-1.5,0-2.7-1.1-2.7-2.5c0-1.4,1.2-2.5,2.7-2.5c1.4,0,2.6,1.1,2.6,2.5
			C161,69.8,159.8,70.9,158.4,70.9z M156.1,104.2V76.3h4.6v27.9H156.1z"/>
		<path class="st3" d="M199.4,104.2V84.1c0-2.8-1.3-5.3-5.4-5.3c-2.3,0-4.1,0.8-5.7,2.5v22.9h-4.6V83.9c0-3.1-2.1-5.2-6.1-5.2
			c-2.3,0-3.5,0.3-5,0.9v24.5H168V77.8c2.5-1.2,5.2-2,9.7-2c4.3,0,6.9,1.3,8.5,3.4c1.9-2,4.8-3.4,8.6-3.4c6.7,0,9.1,4.3,9.1,8.2
			v20.2H199.4z"/>
		<path class="st3" d="M242.4,104.2V84.1c0-2.8-1.3-5.3-5.4-5.3c-2.3,0-4.1,0.8-5.7,2.5v22.9h-4.6V83.9c0-3.1-2.1-5.2-6.1-5.2
			c-2.3,0-3.5,0.3-5,0.9v24.5h-4.6V77.8c2.5-1.2,5.2-2,9.7-2c4.3,0,6.9,1.3,8.5,3.4c1.9-2,4.8-3.4,8.6-3.4c6.7,0,9.1,4.3,9.1,8.2
			v20.2H242.4z"/>
		<path class="st3" d="M263.9,104.7c-7.6,0-10.9-6.3-10.9-14.4c0-8.3,3.4-14.5,10.9-14.5c7.7,0,10.9,6.2,10.9,14.5
			C274.8,98.4,271.5,104.7,263.9,104.7z M263.9,78.7c-5.3,0-6.4,5.9-6.4,11.6c0,5.6,1.1,11.3,6.4,11.3c5.3,0,6.3-5.7,6.3-11.3
			S269.2,78.7,263.9,78.7z"/>
		<path class="st3" d="M289.2,104.7c-3.8,0-6.7-0.9-8.3-2V63.6h4.5v13.7c1.4-0.7,2.9-1.3,5.7-1.3c6.4,0,10.8,5.4,10.8,13.8
			C301.8,98.7,297.4,104.7,289.2,104.7z M289.9,78.6c-2.1,0-3.3,0.4-4.6,1.1v21.4c1,0.5,2.5,0.7,3.9,0.7c5.7,0,8-4.8,8-11.8
			C297.3,83.8,295.1,78.6,289.9,78.6z"/>
		<path class="st3" d="M310.5,70.9c-1.5,0-2.7-1.1-2.7-2.5c0-1.4,1.2-2.5,2.7-2.5c1.4,0,2.6,1.1,2.6,2.5
			C313.1,69.8,311.9,70.9,310.5,70.9z M308.2,104.2V76.3h4.6v27.9H308.2z"/>
		<path class="st3" d="M320.4,104.2V63.6h4.6v40.6H320.4z"/>
		<path class="st3" d="M335.1,70.9c-1.5,0-2.7-1.1-2.7-2.5c0-1.4,1.2-2.5,2.7-2.5c1.4,0,2.6,1.1,2.6,2.5
			C337.7,69.8,336.5,70.9,335.1,70.9z M332.8,104.2V76.3h4.6v27.9H332.8z"/>
		<path class="st3" d="M347.9,92c0.5,6.3,3.5,9.4,8.5,9.4c3.2,0,5.4-0.8,6.9-1.6l1.2,3c-1.7,1-4.7,1.9-8.4,1.9
			c-7.3,0-12.4-4.6-12.4-14.5c0-9.5,4.7-14.4,11.2-14.4c6.7,0,10.7,4.3,10.6,13.7L347.9,92z M354.7,78.7c-4,0-7,3.3-6.9,10.8l13.3-2
			C361.1,81.2,358.7,78.7,354.7,78.7z M354.5,73.3l-5.9-7c0.5-1.2,3-1.2,4.9-0.1l3.6,7.1H354.5z"/>
		<path class="st3" d="M382.4,79.3c-2.3-0.7-4.9-0.5-6.4,0.5v24.4h-4.6V77.8c2.7-1.4,5.4-2.1,12-2L382.4,79.3z"/>
		<path class="st3" d="M390.5,92c0.5,6.3,3.5,9.4,8.5,9.4c3.2,0,5.4-0.8,6.9-1.6l1.2,3c-1.7,1-4.7,1.9-8.4,1.9
			c-7.3,0-12.4-4.6-12.4-14.5c0-9.5,4.7-14.4,11.2-14.4c6.7,0,10.7,4.3,10.6,13.7L390.5,92z M397.3,78.7c-4,0-7,3.3-6.9,10.8l13.3-2
			C403.7,81.2,401.3,78.7,397.3,78.7z"/>
		<path class="st3" d="M438.2,104.6c-6.1,0-8.8-4-8.8-8.5V80.4h-3.2v-5.5h3.2v-6.3l8.5-2.2v8.4h4.5v5.5h-4.5v15.1
			c0,2.2,0.8,3.4,2.7,3.4c0.7,0,1.1-0.1,1.8-0.3v5.2C441.7,104.1,440.2,104.6,438.2,104.6z"/>
		<path class="st3" d="M453.8,92.5c0.6,4.3,2.8,6.4,7.1,6.4c3.4,0,6-0.8,7.6-1.6l1.9,5.3c-2.3,1.1-5.6,2.1-10.5,2.1
			c-9,0-14.1-5.9-14.1-15.3c0-9.2,4.8-15.1,13.2-15.1c8.5,0,12.8,5.8,12.4,15.7L453.8,92.5z M458.6,79.3c-3.5,0-5.7,3-5.4,9
			l10.2-1.5C463.5,81.6,461.7,79.3,458.6,79.3z"/>
		<path class="st3" d="M493,104.2V83.7c0-2.1-0.9-4.1-4.4-4.1c-1.7,0-2.6,0.3-3.6,0.6v24h-8.5V76.5c2.9-1.3,7.1-2.2,12.3-2.2
			c9.3,0,12.6,4,12.6,9.3v20.6H493z"/>
		<path class="st3" d="M514.5,104.7c-3.6,0-6.8-0.9-8.6-2.1l2.2-5.4c1.1,0.9,3.1,1.7,5.2,1.7c2.2,0,3.6-1.4,3.6-3.2c0-2-1-3-3.8-4.1
			c-5.4-2.1-6.6-5.1-6.6-8.2c0-5,3.9-9,9.8-9c3.6,0,6.2,0.7,8.4,2.1l-2.1,4.8c-0.9-0.7-2.6-1.5-4.5-1.5c-2.2,0-3.4,1.4-3.4,3
			c0,2,1.5,3,3.8,4c5.7,2.4,7,5.2,7,8.6C525.7,100.5,521.5,104.7,514.5,104.7z"/>
		<path class="st3" d="M535.1,70.4c-2.5,0-4.5-1.7-4.5-4c0-2.2,2-4,4.5-4c2.5,0,4.5,1.8,4.5,4C539.6,68.7,537.6,70.4,535.1,70.4z
			 M530.9,104.2V74.9h8.5v29.3H530.9z"/>
		<path class="st3" d="M556,80.4v23.8h-8.5V80.4h-3.2v-5.5h3.2v-3c0-7.3,5.1-11.2,13-10.3v5.4c-2.8-0.1-4.5,0.9-4.5,4.2v3.7h4.5v5.5
			H556z"/>
		<path class="st3" d="M575,104.6c-6.1,0-8.8-4-8.8-8.5V80.4H563v-5.5h3.2v-6.3l8.5-2.2v8.4h4.5v5.5h-4.5v15.1
			c0,2.2,0.8,3.4,2.7,3.4c0.7,0,1.1-0.1,1.8-0.3v5.2C578.5,104.1,576.9,104.6,575,104.6z"/>
	</g>
</g>
</svg>
