<?xml version="1.0" encoding="utf-8"?>
<!-- Generator: Adobe Illustrator 24.3.0, SVG Export Plug-In . SVG Version: 6.00 Build 0)  -->
<svg version="1.1" id="Calque_1" xmlns="http://www.w3.org/2000/svg" xmlns:xlink="http://www.w3.org/1999/xlink" x="0px" y="0px"
	 viewBox="0 0 581.7 127" style="enable-background:new 0 0 581.7 127;" xml:space="preserve">
<style type="text/css">
	.st0{fill:#000000;}
	.st1{fill:#2D88C0;}
	.st2{fill:#959B9D;}
	.st3{fill:#263D84;}
</style>
<g>
	<g>
		<path class="st0" d="M53.8,1c17.7,0,32.1,14.2,32.1,31.6S71.5,64.2,53.8,64.2S21.7,50,21.7,32.6S36.1,1,53.8,1 M53.8,0
			C35.5,0,20.7,14.6,20.7,32.6s14.8,32.6,33.1,32.6s33.1-14.6,33.1-32.6S72.1,0,53.8,0L53.8,0z"/>
	</g>
	<g>
		<g>
			<g>
				<path class="st1" d="M44.1,68.4c3,0,5.9-0.3,8.7-0.8c-20.3-0.2-36.7-16.5-36.7-36.5c0-8.1,2.7-15.6,7.2-21.6H10.6
					C4.7,9.4,0,14.1,0,19.9v17.3C6.2,55.3,23.6,68.4,44.1,68.4"/>
				<path class="st2" d="M92.6,45.3C84,63.1,65.5,75.4,44.1,75.4c-18.3,0-34.4-9-44.1-22.8v46.3c7.3,2.5,15.1,3.9,23.3,3.9
					C58,102.8,86.9,77.9,92.6,45.3"/>
				<path class="st3" d="M105.2,9.4h-3.4c2.4,7.6,3.7,15.6,3.7,24c0,44.7-36.9,81-82.2,81c-8.1,0-15.9-1.2-23.3-3.3v2
					c0,5.7,4.7,10.4,10.6,10.4h94.6c5.8,0,10.6-4.7,10.6-10.4V19.9C115.7,14.1,111,9.4,105.2,9.4"/>
				<path class="st1" d="M90.2,29.6c0.4-2.3,0.6-4.7,0.6-7.2c0-4.5-0.7-8.9-1.9-13H83C87.2,15.1,89.9,22.1,90.2,29.6"/>
			</g>
			<g>
				<rect x="281.2" y="17.4" class="st0" width="9.5" height="38.2"/>
				<path class="st0" d="M262.2,55.6L262.2,55.6L262.2,55.6L262.2,55.6h1l0,0l0,0l0,0h1.2c3.3,0,6-1,8.1-2.9c2.1-2,3.2-4.5,3.2-7.7
					V17.4H266v25.4c0,1.2-0.4,1.9-1.2,2.2c-0.3,0.1-0.9,0.2-1.7,0.2l0,0c-2,0-3.6-0.7-5-2c-1.1-1.5-2.3-3-3.4-4.5l-7.8,6.6
					c0.9,1.1,1.8,2.2,2.6,3.3c1.1,1.5,1.6,2.8,1.6,3.9c0,1.7-1.6,4.1-4.9,7.2c-2.2,1.8-4.3,3.6-6.5,5.5l6.2,7.3
					c2.9-2.5,5.8-5,8.7-7.5c3.4-3.4,5.4-6.6,6.1-9.6C261.2,55.4,261.7,55.5,262.2,55.6z"/>
				<path class="st0" d="M251.5,30.6c1.2,0,2.2-0.4,3-1.2c0.8-0.8,1.2-1.8,1.2-3c0-1.1-0.4-2.1-1.2-2.9s-1.8-1.2-3-1.2
					s-2.2,0.4-3.1,1.2c-0.8,0.8-1.3,1.8-1.3,3s0.4,2.2,1.3,3C249.3,30.2,250.3,30.6,251.5,30.6z"/>
				<path class="st0" d="M193.3,60.5c-1.1,0-2.1,0.4-2.9,1.2c-0.8,0.8-1.2,1.7-1.2,2.8s0.4,2,1.2,2.8s1.7,1.2,2.9,1.2
					c1.1,0,2-0.4,2.8-1.2c0.8-0.8,1.2-1.7,1.2-2.8c0-1.1-0.4-2-1.2-2.8C195.4,60.9,194.4,60.5,193.3,60.5z"/>
				<path class="st0" d="M180,61.5c-0.8,0.8-1.2,1.8-1.2,2.9c0,1.1,0.4,2,1.2,2.8s1.7,1.2,2.9,1.2c1.1,0,2-0.4,2.8-1.2
					c0.8-0.8,1.2-1.7,1.2-2.8s-0.4-2-1.2-2.9c-0.8-0.8-1.7-1.2-2.9-1.2C181.8,60.3,180.8,60.7,180,61.5z"/>
				<path class="st0" d="M167.9,53.2c1.9,1.6,4.1,2.4,6.7,2.4h2.1h0.7l0,0h4.2c2.6,0,4.8-0.8,6.6-2.4c1.6,1.6,3.9,2.4,6.8,2.4h3.6
					l0.1-5.2l-0.1,5.2h2.3l0,0h27.8c3.6,0,6.7-1.3,9.3-3.8c2.6-2.6,3.9-5.6,3.9-9.2c0-4.5-2-8.1-6-10.8l-19.4-13.1l-5.8,8.1l3.4,2.2
					c-3.6,0-6.7,1.3-9.2,3.8s-3.8,5.5-3.8,9c0,1.1,0.2,2.3,0.5,3.4h-2.8v0.1l0,0l0,0c-0.8,0-1.6,0-2.3,0c-1.2,0-2.1-0.1-2.5-0.3
					c-0.8-0.5-1.4-2-1.4-3.6c0-0.4,0.1-1.7,0.2-3.9c0.1-2.2,0.2-4.1,0.2-5.9h-9.5c0,1.9,0.1,3.9,0.2,6.1c0.1,2.2,0.2,3.5,0.2,3.9
					c0,1.6-0.4,2.6-1.4,3.1c-0.7,0.4-2.5,0.5-5.3,0.6c-1.8-0.1-3.1-0.7-3.7-2l-7.9-15.5l-8.6,4.1c1,1.9,2,3.9,3,5.8
					c1.5,3.2,2.3,5.1,2.3,5.9c0,1.2-1.7,1.8-5.1,1.8c-0.8,0-1.7,0-2.6-0.1c-1-0.1-1.5-0.1-1.5-0.1v10.4h8.1
					C163.7,55.6,166.1,54.8,167.9,53.2z M231.2,40.7c0.6,0.4,0.8,1,0.8,1.9c0,0.7-0.3,1.3-0.8,1.8s-1.1,0.8-1.8,0.8h-3.3
					c0.3-1.1,0.4-2.2,0.4-3.4c0-1.7-0.3-3.3-0.8-4.8L231.2,40.7z M211.3,38.7c0.7-0.7,1.6-1.1,2.7-1.1c1.1,0,2,0.4,2.7,1.1
					c0.8,0.7,1.1,1.6,1.1,2.7c0,1.1-0.4,2.1-1.1,2.7c-0.7,0.7-1.6,1-2.8,1c-1,0-1.9-0.4-2.7-1.1c-0.8-0.7-1.1-1.6-1.1-2.6
					C210.2,40.4,210.5,39.5,211.3,38.7z M200.9,45.2L200.9,45.2c-0.4,0-0.8,0-1.2,0C200.1,45.2,200.5,45.2,200.9,45.2z"/>
				<path class="st0" d="M539.1,54.4h13.7l0,0v-3.5h-13.1c0.6-4.8-0.2-8.5-0.4-9.1c-1-6.4-6.7-8-9.7-8h-0.1
					c-8,0.6-10.1,6.3-10.2,9.2c-0.3,3.6,0.6,6.4,2.5,8.4c3,3.1,7.4,3,7.6,3h5.9l-0.1,0.2v0.1c0,0.1-1.8,6.5-17.6,14.7l1.7,3.2
					c16.8-8.7,19.2-15.8,19.4-17C538.9,55.2,539,54.8,539.1,54.4z M536.1,50.8h-6.7c0,0-3.1,0-4.9-1.9c-1.2-1.3-1.7-3.2-1.5-5.8V43
					c0-0.5,0.3-5.2,6.8-5.7c0.8,0,5.3,0.3,6.1,5v0.1C535.9,42.5,536.7,46.2,536.1,50.8z"/>
				<path class="st0" d="M559.1,52.7c0.8,5.2,5.4,9.2,10.9,9.2c6.1,0,11.1-4.9,11.1-10.9s-5-10.9-11.1-10.9c-5.2,0-9.5,3.5-10.7,8.2
					c-0.9,0.7-3.3,2.5-6.5,2.5l0,0v3.6l0,0C555.4,54.4,557.5,53.6,559.1,52.7z M570.1,43.7c4.1,0,7.5,3.3,7.5,7.4s-3.4,7.4-7.5,7.4
					s-7.5-3.3-7.5-7.4C562.6,46.9,565.9,43.7,570.1,43.7z"/>
				<path class="st0" d="M507.9,50.4c2.3-3.8,1.8-8.8,0.2-11.8c-2-3.8-6.7-4.7-6.9-4.8l-0.7,3.5c0,0,3.2,0.7,4.4,3
					c1.2,2.1,1.4,5.8-0.1,8.3c-1.2,1.9-3.3,2.9-6.3,3c-0.8-0.1-4.9-1-5.1-5.9v-9.1h-3.6v9.1c0,0.3,0,0.6,0.1,0.9h-0.1
					c0,0.2-0.6,5-4.4,4.9c-0.7-0.1-5-1-5.1-5.9v-9.1h-3.6v9.1c0,0.3,0,0.6,0.1,0.9h-0.1c0,0.2-0.6,5.2-4.6,4.9h-9h-0.4
					c0,0-1.2,0.2-2.2-0.5s-1.7-2.2-2-4.3c0-0.4,0.1-0.7,0.1-1.1v-9.1H455v9c-0.1,5-4.4,5.8-5.1,6h-0.2c-3.4,0-4.1-4.1-4.2-4.9v-10
					h-3.6v10.2c-0.1,0.8-0.8,4.8-4.2,4.8h-0.2c-0.7-0.1-5-1-5.1-5.9v-9.1h-3.6v9.1c0,0.3,0,0.6,0.1,0.9h-0.1c0,0.2-0.7,5.2-4.6,4.9
					h-84.5v1.2v-1.1c-3.5,0-6.3-2.8-6.3-6.2v-2.7c0-0.2,0-0.4,0-0.6V28.7l-3.6,1.5v2.7h-10.1c-5.5,0-9.9,4.4-9.9,9.8v0.7
					c0,5.4,4.4,9.8,9.9,9.8h3.6l-1.5-3.5h-2.2c-3.5,0-6.3-2.8-6.3-6.2v-0.7c0-3.5,2.8-6.3,6.3-6.3h10.1v4.8l0,0v4.1
					c0,5.4,4.4,9.8,9.9,9.8l0,0H424c0.2,0,0.3,0,0.5,0c3,0,5-1.6,6.2-3.6c1.9,2.3,4.6,3.4,6.5,3.6c0.2,0,0.3,0,0.5,0
					c2.9,0,4.8-1.5,6-3.3c1.2,1.8,3.2,3.3,6.1,3.3c0.2,0,0.3,0,0.5,0c1.7-0.2,4.3-1.2,6.1-3.3c0.5,0.9,1.2,1.7,2,2.2
					c1.4,1,2.8,1.2,3.8,1.2c0.4,0,0.8,0,1-0.1h8.8c3.3,0.2,5.4-1.5,6.7-3.6c1.9,2.3,4.6,3.3,6.5,3.6c0.2,0,0.3,0,0.5,0
					c3,0,5-1.6,6.2-3.6c1.9,2.3,4.6,3.3,6.3,3.6h0.2l0,0C503.9,55.1,506.5,52.5,507.9,50.4z"/>
				<path class="st0" d="M523.4,24.9l0.6,2.5c3.2-1.1,6.3-1.8,9.2-1.9l-0.4-2.4c-0.6,0.1-1.1,0.2-1.7,0.2c-2.8,0-3.2-1.5-3.2-2.4
					c0-1.6,1.1-2.6,2.9-2.6c0.2,0,0.5,0,0.7,0.1l0.1-2.1c-0.2,0-0.4,0-0.7,0c-5.3,0-6,2.4-6,4.2c0,1.2,0.3,2,1,2.6L527,24l-1.3,0.4
					C525.1,24.5,524.3,24.7,523.4,24.9z"/>
				<path class="st0" d="M317.9,26.3c1.2,0,2.2-1,2.2-2.2s-1-2.2-2.2-2.2s-2.2,1-2.2,2.2C315.7,25.4,316.7,26.3,317.9,26.3z"/>
				<path class="st0" d="M326.2,26.3c1.2,0,2.2-1,2.2-2.2s-1-2.2-2.2-2.2s-2.2,1-2.2,2.2C324,25.4,324.9,26.3,326.2,26.3z"/>
				<g>
					<path class="st0" d="M157.9,95.1v31.2h-5.7V95.1h-4.1v-3.5h4.1v-4.9c0-6.8,4.2-11.3,11.9-11v3.6c-3.5,0.2-6.1,1.8-6.1,6.7v5.5
						h6.1V95h-6.2V95.1z"/>
					<path class="st0" d="M181.9,127c-9.6,0-13.8-7.8-13.8-18c0-10.4,4.2-18,13.7-18c9.7,0,13.8,7.7,13.8,18
						C195.6,119.2,191.4,127,181.9,127z M181.9,94.6c-6.7,0-8,7.4-8,14.4s1.4,14,8,14c6.7,0,8-7.1,8-14S188.6,94.6,181.9,94.6z"/>
					<path class="st0" d="M223,126.3v-24.9c0-3.2-1.4-6.8-7.4-6.8c-3.3,0-4.8,0.5-6.7,1.2v30.5h-5.7V93.4c3.1-1.5,7.3-2.4,12.9-2.4
						c9.8,0,12.7,5.3,12.7,10.3v25.1L223,126.3L223,126.3z"/>
					<path class="st0" d="M251.9,127c-10.1,0-15.5-7-15.5-17.5c0-11.5,6.2-18.2,15.3-18.2c2,0,3.7,0.3,5.6,0.8V75.8h5.7v48.8
						C260.6,125.9,256.8,127,251.9,127z M257.3,95.2c-1.4-0.4-2.9-0.6-4.4-0.6c-8.2,0-10.8,7-10.8,14.5c0,8.2,2.9,14.2,10.1,14.2
						c2.4,0,4-0.3,5.1-1V95.2z"/>
					<path class="st0" d="M283.6,127c-9.1,0-13.4-3.9-13.4-10.2c0-9.2,8.8-11.9,19.7-13v-2.1c0-5.3-3.3-6.9-7.8-6.9
						c-3.4,0-6.5,1.2-8.5,2.2l-1.4-3.3c2-1.1,5.9-2.6,10.8-2.6c6.5,0,12.3,2.8,12.3,11.3v22.3C292.6,126,288.5,127,283.6,127z
						 M289.9,106.6c-8.9,1.1-14.2,3-14.2,10c0,5,3.1,7.1,8.4,7.1c2.2,0,4.4-0.4,5.8-1.2L289.9,106.6L289.9,106.6z"/>
					<path class="st0" d="M314.6,126.6c-6.4,0-8.8-4.5-8.8-8.8V95.1h-4.1v-3.5h4.1v-8l5.7-1.7v9.7h6.1v3.5h-6.1v22.6
						c0,2.8,1.2,5,4.4,5c0.6,0,1.1-0.1,1.7-0.3v3.6C317.1,126.3,316,126.6,314.6,126.6z"/>
					<path class="st0" d="M327.8,84.9c-1.9,0-3.4-1.4-3.4-3.1s1.5-3.2,3.4-3.2c1.8,0,3.3,1.4,3.3,3.2
						C331.2,83.5,329.7,84.9,327.8,84.9z M325,126.3V91.6h5.7v34.7H325z"/>
					<path class="st0" d="M352.5,127c-9.6,0-13.8-7.8-13.8-18c0-10.4,4.2-18,13.7-18c9.7,0,13.8,7.7,13.8,18
						C366.2,119.2,362,127,352.5,127z M352.5,94.6c-6.7,0-8,7.4-8,14.4s1.4,14,8,14c6.7,0,8-7.1,8-14S359.2,94.6,352.5,94.6z"/>
					<path class="st0" d="M393.6,126.3v-24.9c0-3.2-1.4-6.8-7.4-6.8c-3.3,0-4.8,0.5-6.7,1.2v30.5h-5.7V93.4
						c3.1-1.5,7.3-2.4,12.9-2.4c9.8,0,12.7,5.3,12.7,10.3v25.1L393.6,126.3L393.6,126.3z"/>
					<path class="st0" d="M423.2,126.3l12.6-29.7h-11.3v-6.8H449l-12,29.7h12.2v6.8H423.2z"/>
					<path class="st0" d="M470,127c-10.7,0-16.2-3.9-16.2-11.5c0-9.4,9.6-12.2,20.7-13.2v-1.7c0-3.8-2.6-4.9-6.5-4.9
						c-3.6,0-7.2,1.2-9.6,2.2l-2.3-6c2.6-1.1,7.4-2.8,14-2.8c8.4,0,14.6,3.5,14.6,13.4v21.8C481.4,125.9,476.3,127,470,127z
						 M474.4,107.1c-6.5,0.6-10.7,2.1-10.7,7.9c0,4.3,2.5,6.1,6.7,6.1c1.6,0,3-0.3,3.9-0.7v-13.3H474.4z"/>
					<path class="st0" d="M513.1,126.3v-25.4c0-2.8-1.3-5.2-5.5-5.2c-1.7,0-3.1,0.3-4.5,1v29.6h-10.7V73.1H503V91
						c2.5-1.1,5.1-1.7,8-1.7c9.3,0,12.8,5.3,12.8,11.4v25.6H513.1z"/>
					<path class="st0" d="M537.2,84.2c-3.2,0-5.7-2.2-5.7-4.9c0-2.7,2.5-4.9,5.7-4.9s5.7,2.2,5.7,4.9
						C542.9,82.1,540.4,84.2,537.2,84.2z M531.9,126.3V89.8h10.7v36.5H531.9z"/>
					<path class="st0" d="M567.5,127c-11.2,0-18.2-6.5-18.2-18.7c0-11.7,6.7-18.9,16.3-18.9c2.2,0,4.1,0.3,5.4,0.6V73.1h10.7v51.2
						C578.3,126.1,573.9,127,567.5,127z M571,95.7c-0.9-0.3-1.9-0.4-3-0.4c-5.9,0-8.2,5-8.2,12.5c0,7.9,2.4,12.5,7.8,12.5
						c1.4,0,2.5-0.1,3.3-0.5V95.7H571z"/>
				</g>
			</g>
		</g>
	</g>
</g>
</svg>
